<?xml version="1.0" encoding="utf-8"?>
<!-- Generator: Adobe Illustrator 25.4.1, SVG Export Plug-In . SVG Version: 6.00 Build 0)  -->
<svg version="1.1" id="レイヤー_1" xmlns="http://www.w3.org/2000/svg" xmlns:xlink="http://www.w3.org/1999/xlink" x="0px"
	 y="0px" viewBox="0 0 258.8 75" style="enable-background:new 0 0 258.8 75;" xml:space="preserve">
<style type="text/css">
	.st0{fill:#FFBB4A;}
	.st1{enable-background:new    ;}
	.st2{fill:#573001;}
	.st3{fill:none;stroke:#573001;stroke-linecap:round;stroke-linejoin:round;}
</style>
<g id="レイヤー_2_00000141417751132851685860000007735418865254149505_">
	<g id="デザイン">
		<circle class="st0" cx="37.5" cy="37.5" r="37.5"/>
		<g class="st1">
			<path class="st2" d="M34.5,32.8c-0.8,0-1.1-0.5-1.1-1c0-0.5,0.4-1.1,1.1-1.1h7.7c0.7,0,1.1,0.5,1.1,1s-0.3,1-1.1,1H34.5z
				 M40.2,47.5c-0.7,0-1.5,0-2.2,0c-0.6,0-1.3,0-1.8,0c-1.1-0.1-1.8-0.8-1.8-1.9c0-0.6,0-1.2,0-1.8c0-0.6,0-1.2,0-1.7
				c0-0.9,0.6-1.8,1.8-1.8c0.7,0,1.4,0,2.1,0s1.4,0,2,0c0.9,0,1.9,0.7,1.9,1.7c0,0.6,0,1.2,0,1.8c0,0.6,0,1.3,0,1.8
				C42.1,46.7,41.4,47.5,40.2,47.5z M35.6,29.6c-0.7,0-1.1-0.5-1.1-0.9c0-0.5,0.4-1,1.1-1H41c0.7,0,1,0.5,1,1c0,0.5-0.3,1-1,1H35.6z
				 M35.6,36c-0.7,0-1.1-0.5-1.1-0.9c0-0.5,0.4-1,1.1-1H41c0.7,0,1,0.5,1,1c0,0.5-0.3,1-1,1H35.6z M35.6,39.1
				c-0.7,0-1.1-0.5-1.1-0.9c0-0.5,0.4-1,1.1-1H41c0.7,0,1,0.5,1,1c0,0.5-0.3,1-1,1H35.6z M40.1,43.9c0-0.4,0-0.9,0-1.2
				c0-0.6-0.4-0.6-1.9-0.6c-0.4,0-0.8,0-1.2,0c-0.7,0-0.7,0.5-0.7,1.8c0,0.4,0,0.9,0,1.2c0,0.5,0.3,0.6,1.8,0.6c1.2,0,1.9,0,1.9-0.6
				C40.1,44.7,40.1,44.3,40.1,43.9z M45,30c-0.7,0-1.1-0.5-1.1-1c0-0.5,0.4-1.1,1.1-1.1c1,0,2,0,3.1,0c0.8,0,1.6,0,2.4,0
				c1.6,0,2.6,0.9,2.6,2.6c0,0.6,0,1.5,0,2.3c0,2.1,0,4.1-2.6,4.1c-0.8,0-1.6,0-2.4,0c-1.7,0-2.1,0-2.1,0.9c0,1.1-0.1,2.5-0.1,4
				c0,0.9,0,1.8,0,2.5c0,1,0.7,1.2,2.8,1.2c2.2,0,3.2-0.3,3.2-2.4c0-0.8,0.6-1.1,1.1-1.1c0.3,0,1.3,0.1,1.3,1.3
				c0,4.3-3.2,4.5-5.7,4.5c-2.9,0-4.9-0.3-5-2.9c0-0.7,0-1.7,0-2.8c0-1.7,0-3.6,0.1-4.8c0-1.1,0.7-2.2,2.6-2.3c0.9,0,2,0,2.9,0
				c1.6,0,1.7,0,1.7-2.3c0-0.6,0-1.1-0.1-1.8C50.9,30,50.5,30,48.6,30C47.5,30,46.3,30,45,30L45,30z"/>
		</g>
		<g class="st1">
			<path class="st2" d="M78.1,41.4c0,1.4-0.2,2.7-2.5,2.7c-1.2,0-2.6,0-3.9,0l0,1.1v0c0,1.4-1.2,2.8-3.7,2.8c-0.8,0-2.5,0-2.5-1.3
				c0-0.6,0.4-1.1,1.1-1.1c0.1,0,0.2,0,0.4,0c0.4,0.1,0.9,0.2,1.3,0.2c0.7,0,1.3-0.2,1.3-1.1l0-0.6c-2.1,0-4.2,0-6.1,0
				c-0.6,0-0.9-0.5-0.9-0.9c0-0.5,0.3-0.9,0.9-0.9h0c1.8,0,3.9,0,6.1,0v-1.1h-8.8c-0.6,0-0.8-0.5-0.8-0.9c0-0.4,0.3-0.9,0.8-0.9h8.8
				v-1c-2.3,0-4.5,0-6.1,0h0c-0.5,0-0.8-0.4-0.8-0.8c0-0.4,0.3-0.9,0.9-0.9c1.7,0,3.9,0,6,0V36c-5.7,0-6.3,0-6.3-2.2
				c0-1.6,0.3-2.3,2.5-2.3c0.9,0,2.3,0,3.8,0v-0.9l-7.2,0c-0.6,0-1-0.5-1-1c0-0.5,0.3-1,1-1l7.2,0l0-1c0-0.7,0.6-1.1,1.1-1.1
				s1.1,0.4,1.1,1.1v1l7.1,0c0.7,0,1,0.5,1,1c0,0.5-0.3,1-1,1l-7.1,0v0.9c1.5,0,2.9,0,3.8,0c1.5,0,2.2,0.5,2.3,1.4
				c0,0.3,0,0.5,0,0.8c0,0.3,0,0.5,0,0.7C77.5,36,76.8,36,71.6,36v0.9c1.4,0,2.8,0,3.9,0c1.5,0,2.4,0.5,2.5,1.7c0,0.2,0,0.5,0,0.8
				h2.2c0.6,0,0.9,0.5,0.9,1s-0.3,1-0.9,1H78.1z M69.5,33c-1.3,0-2.5,0-3.2,0c-0.5,0-0.7,0.1-0.7,0.3c0,0,0,0,0,0.5
				c0,0.4,0.6,0.4,4,0.4V33z M71.6,34.4c3.8,0,3.9,0,3.9-0.7c0-0.4-0.1-0.6-0.8-0.6c-0.7,0-1.8,0-3.1,0V34.4z M75.9,39.2
				c0-0.4-0.3-0.6-0.7-0.6c-1,0-2.2,0-3.6,0v1h4.3L75.9,39.2z M71.6,41.3v1.1c1.2,0,2.4,0,3.6,0c0.4,0,0.7-0.2,0.7-0.7
				c0-0.1,0-0.2,0-0.4H71.6z"/>
		</g>
		<g class="st1">
			<path class="st2" d="M92.3,30.3c0.4-0.1,0.7-0.3,1-0.4c1.3-0.8,2.6,1.2,0.8,2.1c-0.6,0.3-1.6,0.6-2.6,0.8
				c-0.3,0.8-0.7,1.6-1.2,2.4c1.7-0.3,3.2,0.3,4,2.1c1-0.5,2-1,2.9-1.4c0.6-0.2,1.2-0.5,1.9-0.9c1.8-1,2.9,1.4,1.3,2.2
				c-0.8,0.4-1.3,0.5-2.6,1c-1,0.4-2.1,0.9-3,1.3c0.1,0.8,0.1,1.8,0,2.6c0,1-0.7,1.5-1.3,1.5c-0.6,0-1.2-0.4-1.1-1.4
				c0-0.5,0-1.1,0-1.6c-0.2,0.1-0.4,0.2-0.6,0.4c-3,1.9-2.6,3.4-1.3,4c1.3,0.6,3.6,0.2,4.8-0.2c2.1-0.6,2.8,1.9,0.6,2.5
				c-1.4,0.4-4.7,0.7-6.6-0.3c-3.2-1.8-2.7-5.1,1.7-7.9c0.3-0.2,0.7-0.5,1.2-0.7c-0.6-2-2.5-1.8-4.1,0c0,0-0.1,0.1-0.1,0.1
				c-0.2,0.3-0.4,0.5-0.6,0.6c-1.3,1.2-3.1-0.2-1.6-1.5c0.6-0.6,1.4-1.4,1.9-2.3c0.4-0.7,0.8-1.4,1.1-2.1c-1.3,0.2-2.2,0.1-3-0.3
				c-1.7-0.9-0.6-3.1,1.1-2c0.5,0.3,1.4,0.2,2.3,0c0.1,0,0.2,0,0.4,0c0.2-0.7,0.2-1.2,0.3-2c0.1-1.4,2.4-1.3,2.4-0.1
				C92.6,29.3,92.5,29.8,92.3,30.3L92.3,30.3z"/>
		</g>
		<g class="st1">
			<path class="st2" d="M110.4,32.7c-0.7,0-1.1-0.5-1.1-0.9c0-0.5,0.4-1,1.1-1h6.6c0.7,0,1,0.5,1,1c0,0.5-0.3,1-1,1H110.4z
				 M113.4,47.4c-0.6,0-1.2,0-1.7,0c-1.1-0.1-1.8-0.8-1.8-1.9c0-0.6,0-1.2,0-1.8c0-0.6,0-1.2,0-1.7c0-0.9,0.6-1.8,1.8-1.8
				c0.5,0,1.1,0,1.7,0c0.7,0,1.3,0,1.9,0c0.9,0,1.9,0.7,1.9,1.7c0,0.6,0,1.2,0,1.8c0,0.6,0,1.3,0,1.8c0,0.3,0,0.5-0.1,0.7
				c3.3-0.6,4.1-3.1,4.1-6.6c0-0.3,0-0.6,0-0.9c0,0,0,0,0,0c0-0.7,0.5-1.1,1.1-1.1c0.6,0,1.2,0.4,1.2,1.1c0,0.3,0,0.6,0,0.9
				c0,3.8-1,7.7-5.9,8.6c-0.1,0-0.2,0-0.3,0c-0.7,0-1-0.5-1-1c0,0,0-0.1,0-0.1C115.7,47.3,115.4,47.4,113.4,47.4z M111.1,29.4
				c-0.7,0-1-0.5-1-0.9c0-0.5,0.4-1,1-1h4.8c0.6,0,1,0.5,1,1c0,0.5-0.3,1-1,1H111.1z M111.2,35.8c-0.7,0-1-0.5-1-0.9
				c0-0.5,0.4-1,1-1h4.8c0.6,0,1,0.5,1,1c0,0.5-0.3,1-1,1H111.2z M111.2,38.9c-0.7,0-1-0.5-1-0.9c0-0.5,0.4-1,1-1h4.8
				c0.6,0,1,0.5,1,1s-0.3,1-1,1H111.2z M115.1,43.7c0-0.5,0-0.9,0-1.2c0-0.6-0.6-0.6-1.7-0.6c-0.3,0-0.6,0-0.9,0
				c-0.7,0-0.7,0.4-0.7,1.8c0,0.5,0,0.9,0,1.3c0,0.5,0.5,0.6,1.6,0.6c1.5,0,1.7-0.2,1.7-0.6C115.1,44.6,115.1,44.2,115.1,43.7z
				 M119.7,39.3c0,0.6-0.5,1-1,1c-0.5,0-1.1-0.3-1.1-1c0-0.3,0-0.6,0-1c0-0.4,0-0.7,0-1.1c0-1.2,0.9-2,2.5-2.1c1.4,0,3,0,4.5,0
				c1.2,0,2.3,0,3.4,0c1.2,0,2.4,0.8,2.4,2.2c0,0.3,0,0.6,0,1c0,0.3,0,0.6,0,0.9c0,0.6-0.6,1-1.1,1c-0.5,0-1.1-0.3-1.1-0.9
				c0,0,0,0,0,0c0-2.1,0-2.3-1.2-2.3c-1,0-2.4,0-3.7,0c-3.3,0-3.5,0-3.6,1.2C119.7,38.1,119.7,38.1,119.7,39.3L119.7,39.3z
				 M119.7,34c-0.7,0-1-0.4-1-0.9c0-0.5,0.4-1,1-1l3,0v-1.3l-3.9,0c-0.7,0-1-0.5-1-0.9c0-0.5,0.4-1,1-1l3.9,0v-1.5
				c0-0.7,0.6-1.1,1.1-1.1s1.2,0.4,1.2,1.1V29l4.4,0c0.7,0,1,0.5,1,0.9c0,0.5-0.3,1-1,1l-4.4,0v1.3l3.2,0c0.6,0,1,0.5,1,0.9
				c0,0.5-0.3,0.9-1,0.9H119.7z M128.9,43.5c0-0.7,0.5-1,1-1c0.5,0,1.2,0.3,1.2,1.2c0,2.7-0.7,4.1-3.8,4.1c-2.4,0-3-1.1-3-2.8
				c0-1,0-5.8,0.1-6.6c0-0.6,0.6-0.9,1.2-0.9c1,0,1,0.9,1,1.3c0,1.3-0.1,4.5-0.1,5.7c0,0.7,0,1.2,0.9,1.2c1.2,0,1.6-0.1,1.6-1.9
				C128.9,43.7,128.9,43.6,128.9,43.5L128.9,43.5z"/>
		</g>
		<g class="st1">
			<path class="st2" d="M136.2,40.9c-1.7-2.8,0.4-5.4,2.7-5.1c0.1,0,0.3,0,0.4,0.1c0-0.6,0.1-1.2,0.1-1.8c-1.4,0.2-2.3-0.1-2.7-0.2
				c-1.3-0.5-0.6-2.6,0.8-2c0.6,0.2,1.2,0.3,2,0.1c0-1-0.1-1.7-0.2-2.2c-0.2-1.8,2.5-1.7,2.5-0.1c0,0.4,0,1,0,1.6
				c0.2-0.1,0.5-0.2,0.7-0.4c1.2-0.8,2.5,1.1,0.9,2c-0.5,0.3-1.2,0.5-1.8,0.7c0,0.8-0.1,1.5-0.1,2.4c0,0.3,0,0.8-0.1,1.3
				c0.3,0.6,0.4,1.3,0.1,2.2c-0.3,0.7-0.8,1.8-1.2,2.7c-0.5,1.1-0.6,2.1,0.3,2.7c1,0.6,3.6,0.6,5.3,0c1.8-0.6,2.1-2,1.6-4.3
				c-0.4-1.6,2-2.1,2.4-0.2c0.7,3.4,0,5.7-3.4,6.8c-2,0.7-5.4,0.7-7.2-0.4c-1.5-0.9-2-2.5-1.2-4.7C137.3,42,136.6,41.6,136.2,40.9z
				 M139.4,38.8c0-0.3,0-0.5-0.1-0.7l0,0c-0.1-0.3-0.3-0.4-0.6-0.5c-1.1-0.1-1.6,1-1.2,1.8c0.2,0.6,1.2,1.3,1.9-0.2
				C139.4,39.1,139.4,39,139.4,38.8L139.4,38.8z M150.8,36.3c-0.5-0.8-1.5-1.7-2.8-1.8c-1.5,0-1.4-2.3,0.4-2.1
				c1.7,0.1,3.7,1.2,4.5,2.6c0.4,0.7,0.1,1.3-0.4,1.7C152,37,151.2,37,150.8,36.3z"/>
		</g>
		<polyline class="st3" points="169.6,46.5 258.3,46.5 249.4,37.3 		"/>
	</g>
</g>
</svg>
