<svg xmlns="http://www.w3.org/2000/svg" viewBox="0 0 761.17 314.06"><defs><style>.cls-1{fill:#fff;}.cls-2{fill:#573001;}.cls-3{fill:#707070;}.cls-4,.cls-5{fill:#ec0000;stroke:#ec0000;stroke-miterlimit:10;}.cls-4{stroke-width:1.85px;}.cls-5{stroke-width:1.89px;}</style></defs><g id="レイヤー_2" data-name="レイヤー 2"><g id="デザイン"><circle class="cls-1" cx="157.03" cy="157.03" r="157.03"/><path class="cls-2" d="M69.91,83.61l-7.5,0a.93.93,0,1,1,0-1.86l6.5,0,0-1.92A1,1,0,0,1,70,79a1,1,0,0,1,1.06.94l0,1.92,6.48,0a.93.93,0,1,1,0,1.86Zm-1,3.66c-1.14,0-2.2,0-2.82,0s-.78.26-.8.88,0,1.82,0,2.94,0,2.3,0,3.26v0a.88.88,0,0,1-1,.84.93.93,0,0,1-1-.86v-1.2c0-1.78,0-3.84,0-5.36s.86-2.16,2.36-2.2c.76,0,1.94,0,3.22,0v-.74a1,1,0,0,1,2,0v.74c1.32,0,2.58,0,3.44,0a2.09,2.09,0,0,1,2.3,2.12c0,.64,0,1.34,0,1.92v1.28c0,.34,0,.76,0,1.5v.06c0,1.38-1.06,2.48-2.92,2.48-1,0-2.1-.16-2.1-1.1a.88.88,0,0,1,.82-1,.75.75,0,0,1,.2,0,4.34,4.34,0,0,0,1,.16c.54,0,1-.2,1-.84,0,0,0-2.9,0-4.2a.7.7,0,0,0-.74-.76c-.68,0-1.8,0-3,0v8.54a1,1,0,0,1-2,0Z"/><path class="cls-2" d="M82.81,95.83a.86.86,0,0,1,.34-.64,6.17,6.17,0,0,0,1.78-2.38.69.69,0,0,1,.64-.44,1,1,0,0,1,1,.92c0,.58-1.64,3.4-2.74,3.4A1,1,0,0,1,82.81,95.83Zm4-3.8c-.44,0-.88,0-1.22,0a1.63,1.63,0,0,1-1.48-1.8c0-1.4,0-3.26,0-5,0-1.28,0-2.5,0-3.42A1.55,1.55,0,0,1,85.55,80c.3,0,.7,0,1.08,0,.54,0,1.1,0,1.48,0a1.64,1.64,0,0,1,1.58,1.64c0,1.12,0,2.5,0,3.88,0,1.68,0,3.36,0,4.64C89.65,91.87,88.57,92,86.79,92Zm1.26-7H85.71v1.92h2.34Zm0-1.46c0-.54,0-1,0-1.46s-.34-.62-1.12-.62c-.94,0-1.12.14-1.12.64s0,.88,0,1.44Zm-2.3,4.84c0,.56,0,1.08,0,1.5s.22.6,1.12.6c.66,0,1.08,0,1.12-.62,0-.44,0-.94,0-1.48Zm13.7-6.26c-1.18,0-2.5-.06-3.74-.06-.72,0-1.4,0-2,0s-.74.32-.74.78v1.86h4.84c1,0,1.66.46,1.66,1.54a14.14,14.14,0,0,1-2.14,5.86,7.66,7.66,0,0,0,3.1,2.36.94.94,0,0,1,.62.88A1.07,1.07,0,0,1,100,96.45c-.68,0-2.08-.76-3.66-2.84-1.66,2.06-3.36,3-3.94,3a.93.93,0,0,1-.92-.94.89.89,0,0,1,.54-.82,8.8,8.8,0,0,0,3.3-2.76,14.18,14.18,0,0,1-1.9-5.76h-.44c-.06,3.24-.38,6.86-2.12,9.48a1,1,0,0,1-.84.46.91.91,0,0,1-.94-.82v-.08a.91.91,0,0,1-.44.12.71.71,0,0,1-.7-.56,4.7,4.7,0,0,0-.68-1.46.7.7,0,0,1-.14-.42.77.77,0,0,1,.8-.7c.74,0,1.38,1.3,1.58,1.86a.62.62,0,0,1,.06.26c1.42-2.32,1.68-5.18,1.68-7.94,0-1.46-.06-2.88-.08-4.18,0-1.12.66-1.86,2-1.9,1,0,2.12,0,3.2,0s2.16,0,3.1,0a.84.84,0,0,1,.88.86.83.83,0,0,1-.88.86Zm-1.9,4.6c0-.26-.18-.42-.5-.42l-2.16,0a13,13,0,0,0,1.36,4.22A10.89,10.89,0,0,0,97.53,86.73Z"/><path class="cls-2" d="M110.07,85.09c-.12,2.88-.72,7.8-3.9,11a1.21,1.21,0,0,1-.8.36,1,1,0,0,1-1-.92.84.84,0,0,1,.3-.64c3-2.88,3.36-7.16,3.5-9.8l0-.16c-.66,0-1.32,0-2,0h0a.81.81,0,0,1-.84-.86.86.86,0,0,1,.86-.9l2,0c0-.5,0-1,0-1.48s0-1,0-1.42v0a.87.87,0,0,1,1-.84.94.94,0,0,1,1,.88v.52c0,.76,0,1.56-.06,2.36h1.42c2.1,0,2.1,1.94,2.1,2.68a50.1,50.1,0,0,1-.4,6.72c-.38,2.3-1.6,3.3-3.26,3.3a5.48,5.48,0,0,1-1.44-.22,1,1,0,0,1-.7-1,.82.82,0,0,1,.78-.9,1.34,1.34,0,0,1,.36.06,2.14,2.14,0,0,0,.78.14c1.1,0,2-.62,2-7.32,0-1.26,0-1.74-.78-1.74l-.92,0Zm9.54,10.68c-.42,0-.82,0-1.22,0-1.58,0-3.36,0-3.42-2.16,0-1.48-.06-3.08-.06-4.68s0-3.2.06-4.66a2.19,2.19,0,0,1,2.2-2.08c.44,0,.84,0,1.24,0s.8,0,1.22,0a2.28,2.28,0,0,1,2.24,2.12c.06,1.4.08,3,.08,4.58s0,3.2-.08,4.66A2.28,2.28,0,0,1,119.61,95.77Zm.42-6.9c0-1.48,0-2.94-.06-4.1,0-.72-.36-.82-.92-.88-.22,0-.44,0-.66,0s-.44,0-.66,0c-.54.06-.86.26-.88.88-.06,1.14-.08,2.54-.08,4s0,3.12.08,4.4c0,.68.16.88,1.56.88,1.12,0,1.54-.12,1.56-.94C120,91.83,120,90.35,120,88.87Z"/><path class="cls-2" d="M128.35,94.85a.94.94,0,0,1-1-.94.92.92,0,0,1,1-.94H135V83.29h-5.46a.92.92,0,1,1,0-1.84h12.8a.9.9,0,0,1,.9.94.86.86,0,0,1-.9.9H137V93h6.5a.91.91,0,0,1,.9,1,.87.87,0,0,1-.9.92Z"/><path class="cls-2" d="M153.59,96.29c-2.2,0-3.72,0-3.8-2,0-.34,0-.76,0-1.2,0-1.08,0-2.34.06-3a1.88,1.88,0,0,1,1.88-1.88c.56,0,1.1,0,1.62,0s1.22,0,1.84,0a2,2,0,0,1,2,1.8c0,.82.08,2.32.08,3.42C157.23,95.41,157.11,96.29,153.59,96.29Zm1.72-5.84c0-.66-.4-.68-1.86-.68s-1.78,0-1.82.68c0,.44,0,1.36,0,2.16,0,.5,0,1,0,1.24,0,.66.52.74,1.88.74,1.62,0,1.86,0,1.86-1.4C155.35,92.35,155.33,91,155.31,90.45Zm5.44-3.54c-.86,0-1.74.06-2.62.06s-2,0-3-.06A2,2,0,0,1,152.89,85c0-.56,0-1.16,0-1.72s0-1.12,0-1.58a2,2,0,0,1,2.18-1.94c.74,0,1.62,0,2.52,0,1.08,0,2.22,0,3.26,0a2.11,2.11,0,0,1,2.08,1.8c0,.5.06,1.06.06,1.62s0,1.26-.06,1.78A2.15,2.15,0,0,1,160.75,86.91Zm.34-3.58c0-.36,0-.72,0-1.06,0-.86-.5-.88-2.92-.88-.78,0-1.58,0-2.36,0-1,0-1,.72-1,1.9,0,1.4.06,1.9,1,1.94.7,0,1.44,0,2.16,0s1.46,0,2.14,0C161.05,85.23,161.09,84.69,161.09,83.33Zm1.4,13c-2.24,0-3.76,0-3.84-2,0-.34,0-.76,0-1.2,0-1.08,0-2.34.06-3a1.89,1.89,0,0,1,1.92-1.88c.58,0,1.12,0,1.64,0s1.22,0,1.84,0a2,2,0,0,1,2,1.8c0,.74.06,2.08.06,3.14C166.15,95.41,166.09,96.29,162.49,96.29Zm1.74-5.84c0-.66-.36-.68-1.86-.68s-1.82,0-1.86.68c0,.44,0,1.36,0,2.16,0,.5,0,1,0,1.24,0,.74.62.74,1.9.74,1.84,0,1.88-.22,1.88-1.4C164.27,92.35,164.25,91,164.23,90.45Z"/><path class="cls-2" d="M184.35,88c0-2.22-1.74-4.12-4.64-4.12h0a.9.9,0,0,1,.56.84v.1c0,2.1-2.06,5.74-4.26,7.9a2.17,2.17,0,0,1-1.5.68c-1.42,0-2.7-1.6-2.7-3.78,0-3.62,3.56-7.3,8.06-7.3,4,0,6.56,2.68,6.56,5.8a6.13,6.13,0,0,1-.44,2.26c-1.76,4.44-7.2,5.06-7.48,5.06a1.05,1.05,0,0,1-1.14-1c0-.44.34-.86,1.1-1C182.07,92.83,184.35,90.59,184.35,88Zm-5.78-4c-2.5.5-5,3.16-5,5.54,0,1.5,1,1.68,1.06,1.68A.53.53,0,0,0,175,91c.6-.54,3.1-3.5,3.18-6.2A1,1,0,0,1,178.57,84Z"/><path class="cls-2" d="M191.83,84a.82.82,0,0,1-.86-.82.81.81,0,0,1,.86-.82h5.6a.8.8,0,0,1,.86.82.81.81,0,0,1-.86.82ZM204,96a.82.82,0,0,1-.9.8.85.85,0,0,1-.92-.82v0l.06-4.2c-1.12,1.84-3.32,4.16-4.24,4.16a.86.86,0,0,1-.86-.8c-.4.84-1.12.94-2.76.94-.52,0-1,0-1.38,0a1.52,1.52,0,0,1-1.44-1.58c0-.52,0-1,0-1.44s0-.88,0-1.32A1.47,1.47,0,0,1,193,90.15c.4,0,.94,0,1.46,0s1,0,1.32,0a1.56,1.56,0,0,1,1.54,1.42c0,.46,0,.94,0,1.44s0,1,0,1.4c0,.06,0,.1,0,.16a1,1,0,0,1,.3-.26,12.43,12.43,0,0,0,4.06-4.24l-2.86.06h0a.75.75,0,0,1-.78-.78.77.77,0,0,1,.8-.82l3.5,0,0-1.3-1.5-.06a1.85,1.85,0,0,1-2-1.8c0-.6,0-1.26,0-1.92s0-1.36,0-2a1.84,1.84,0,0,1,2-1.72c.66,0,1.48,0,2.34,0s1.7,0,2.4,0a1.9,1.9,0,0,1,2,1.7c0,.72,0,1.5,0,2.28,0,.56,0,1.12,0,1.62a2,2,0,0,1-2,1.82c-.44,0-1,.06-1.6.06v1.3l3.86,0a.8.8,0,0,1,.84.82.76.76,0,0,1-.82.78h0l-3.34-.06a16.54,16.54,0,0,0,4.3,3.76.91.91,0,0,1,.48.8,1.07,1.07,0,0,1-1,1c-1.12,0-4-3.62-4.26-4L204,96ZM192.59,81.21a.8.8,0,0,1,0-1.6h4.12a.8.8,0,1,1,0,1.6Zm0,5.34a.8.8,0,1,1,0-1.6h3.92a.8.8,0,1,1,0,1.6Zm0,2.58a.8.8,0,1,1,0-1.6h3.92a.8.8,0,1,1,0,1.6Zm3.12,3.94c0-.32,0-.66,0-.94,0-.5-.38-.54-1.3-.54-1.28,0-1.28,0-1.28,1.46,0,.32,0,.66,0,1s.06.48,1.4.48c.4,0,1.16,0,1.16-.5C195.75,93.71,195.75,93.39,195.75,93.07Zm6.5-12c-1.76,0-1.82,0-1.82,1.7h1.84Zm0,3h-1.84c0,1.3,0,1.68.88,1.72l1,0Zm1.7,0,0,1.74c2,0,2,0,2-1.74Zm2-1.32c0-.34,0-.68,0-1,0-.72-.46-.72-1.92-.72v1.7Z"/><path class="cls-2" d="M218.81,91.47v2.46a12.6,12.6,0,0,0,5,.7c2,0,4.18-.16,6-.28H230a.86.86,0,0,1,.86.9,1,1,0,0,1-1,1c-1.42.14-3,.22-4.48.22-4.26,0-7.8-.36-9.78-3-.68,2.58-1.3,3.14-2,3.14a.86.86,0,0,1-.94-.74.76.76,0,0,1,.18-.48,9,9,0,0,0,1.52-5.2v-.32a.74.74,0,0,1,.82-.72.82.82,0,0,1,.9.78c0,.38-.1,1.3-.12,1.44a4.13,4.13,0,0,0,1.12,1.58v-4.4h-2.92a.76.76,0,1,1,0-1.52h7.18a.76.76,0,1,1,0,1.52h-2.54V90h2a.76.76,0,1,1,0,1.52Zm.82-5.38c-.6,0-1.24.06-1.88.06-3,0-3.66-.1-3.66-2.54,0-.7,0-1.44.06-2.1A1.8,1.8,0,0,1,216,79.75c.62,0,1.22,0,1.82,0s1.2,0,1.8,0a1.89,1.89,0,0,1,1.78,1.62c.06.64.08,1.34.08,2,0,.34,0,.68,0,1A1.71,1.71,0,0,1,219.63,86.09Zm.14-2.5h-4.08v.48c0,.54.28.68,2,.68s2.06,0,2.08-.7Zm0-1.64c0-.8-.22-.8-2-.8s-2,0-2.06.8v.26h4Zm7.16-.38c-.1.36-.2.7-.3,1,1.76,0,2.86.16,2.94,1.5,0,.8.06,1.7.06,2.58s0,1.78-.06,2.54a1.83,1.83,0,0,1-1.86,1.58A9.61,9.61,0,0,0,230.11,92a.85.85,0,0,1,.66.84.92.92,0,0,1-.9.94c-.84,0-2.54-1.2-3.26-1.72a.65.65,0,0,1-.28-.56.9.9,0,0,1,.36-.7h-1.62a.8.8,0,0,1,.32.62c0,.94-3.28,2.58-4.08,2.58a.85.85,0,0,1-.88-.84.89.89,0,0,1,.74-.86,6.51,6.51,0,0,0,2.88-1.58,1.54,1.54,0,0,1-1.38-1.5c0-.76,0-1.62,0-2.5s0-1.78,0-2.62.54-1.42,1.92-1.48l.2,0c.08-.34.16-.62.22-1h-2.34a.79.79,0,0,1-.86-.78.78.78,0,0,1,.86-.78h7a.79.79,0,0,1,.88.78.8.8,0,0,1-.88.78Zm1,4.5h-3.54v1.1h3.54Zm0-1.66c0-.58-.28-.64-1.68-.64s-1.74.08-1.78.66c0,.14,0,.3,0,.44h3.5Zm-3.48,4,0,.56c0,.4,0,.64,1.74.64,1.24,0,1.68,0,1.72-.66,0-.18,0-.36,0-.54Z"/><path class="cls-2" d="M235.57,95.85a1.06,1.06,0,0,1,.58-.84,4.37,4.37,0,0,0,1.7-2,.87.87,0,0,1,.9-.68.92.92,0,0,1,1,.84c0,1-1.66,3.58-3.06,3.58A1,1,0,0,1,235.57,95.85Zm9.06-12.76,0,1.84c1,0,2.06,0,3,0a2.06,2.06,0,0,1,2.14,1.72c0,.4,0,.86,0,1.34s0,1,0,1.42a2.14,2.14,0,0,1-2.24,2c-1.16,0-2.4.06-3.62.06s-2.4,0-3.52-.06c-1.46-.06-2.22-.84-2.28-1.94,0-.42,0-.82,0-1.2s0-1,0-1.42c0-.9.64-1.84,2.24-1.88.66,0,1.5,0,2.4,0l0-5a.87.87,0,0,1,1-.84.9.9,0,0,1,1,.84v1.46l5.84,0a.89.89,0,1,1,0,1.78Zm3.18,5.14c0-1.18,0-1.62-.94-1.64-.74,0-1.68,0-2.66,0-1.18,0-2.42,0-3.36,0s-.92.52-.92,1.54,0,1.56.94,1.6,1.9,0,3,0,2.16,0,3.08,0C247.67,89.69,247.81,89.39,247.81,88.23Zm-5.52,8.4a.84.84,0,0,1-.88-.9v-.3a6.08,6.08,0,0,0-.4-2.2A.79.79,0,0,1,241,93c0-.42.42-.64.86-.64a1,1,0,0,1,.84.38,5.73,5.73,0,0,1,.74,2.86A1.08,1.08,0,0,1,242.29,96.63Zm4.28,0a.89.89,0,0,1-.9-.78,6.63,6.63,0,0,0-1-2.42.69.69,0,0,1-.14-.4c0-.4.44-.68.9-.68,1.3,0,2.24,2.72,2.24,3.24A1.06,1.06,0,0,1,246.57,96.59Zm4.76-.14a1,1,0,0,1-.88-.56,7.33,7.33,0,0,0-1.94-2.32.65.65,0,0,1-.28-.5c0-.4.5-.76,1-.76,1,0,3.18,2.18,3.18,3.08A1.11,1.11,0,0,1,251.33,96.45Z"/><path class="cls-3" d="M315,27.12c-1.2-1.4-2.4-2.79-3.68-4.1a54.88,54.88,0,0,0-4.06-3.72A49,49,0,0,0,303,16a41.29,41.29,0,0,0-4.65-2.69,60.16,60.16,0,0,0-9.84-3.86,65,65,0,0,0-10.23-2.22,57.33,57.33,0,0,0-10.31-.5,33,33,0,0,0-5,.67A19.89,19.89,0,0,0,258,9a9.19,9.19,0,0,0-2.08,1.41,5.41,5.41,0,0,0-1.47,2.16,3,3,0,0,0-.09,1.11,5.44,5.44,0,0,0,.22,1.33,10.82,10.82,0,0,0,1.37,2.66.87.87,0,0,0,.62.33,1,1,0,0,0,.67-.21.92.92,0,0,0,.32-.62,1,1,0,0,0-.2-.67l0-.06.06.09-.08-.12v0h0a10,10,0,0,1-.95-1.84,5.22,5.22,0,0,1-.16-1c0-.13,0-.25,0-.37s.07-.16.1-.24a5.87,5.87,0,0,1,.62-.86,7.1,7.1,0,0,1,1.13-.92,14.48,14.48,0,0,1,3.23-1.4,31.24,31.24,0,0,1,7.57-1.15,54.52,54.52,0,0,1,7,.32,63.5,63.5,0,0,1,7.37,1.18l-.25-.06a63,63,0,0,1,14.79,5.26,41.34,41.34,0,0,1,5.44,3.41,60.83,60.83,0,0,1,5,4.21,50.92,50.92,0,0,1,4.14,4.42l2,2.37a27.13,27.13,0,0,1,1.89,2.52,22.9,22.9,0,0,1,2.22,5c.23.78.44,1.56.6,2.35a14.07,14.07,0,0,1,.23,2.25,14.34,14.34,0,0,1-.05,1.73,14,14,0,0,1-.29,1.83,15.29,15.29,0,0,1-1.17,3.37,15.66,15.66,0,0,1-2.07,2.86,18.86,18.86,0,0,1-3.58,3,28,28,0,0,1-6.17,2.67,34.75,34.75,0,0,1-4.84,1c-.78.11-1.56.19-2.34.26a13.65,13.65,0,0,0,2.42-1.28A8.66,8.66,0,0,0,303,55.63a9.35,9.35,0,0,0,1.39-2.26A7.64,7.64,0,0,0,305,51a10.86,10.86,0,0,0-.09-2.67,14,14,0,0,0-1.77-4.81,22.09,22.09,0,0,0-3.42-4.23,38.21,38.21,0,0,0-8.74-6.41,49.51,49.51,0,0,0-4.91-2.4c-1.6-.68-3.25-1.26-4.9-1.79a49.55,49.55,0,0,0-10.22-2.14,36.07,36.07,0,0,0-10.27.26c-.82.16-1.62.39-2.42.63a24.89,24.89,0,0,0-2.46.88A14.65,14.65,0,0,0,251.44,31,10.17,10.17,0,0,0,248.82,35a10.48,10.48,0,0,0-.54,2.26,6.27,6.27,0,0,0,.18,2.4,12,12,0,0,0,.83,2.18,9.7,9.7,0,0,0,1.59,2.26c.58.63,1.21,1.22,1.82,1.82s1,1,1.53,1.41a5.91,5.91,0,0,0-1.2,1.88,3.7,3.7,0,0,0,0,2.28c.07.22.13.42.22.63a4.53,4.53,0,0,0,.34.55,2.42,2.42,0,0,0,.48.48,4.81,4.81,0,0,0,.75.45,11.46,11.46,0,0,0,1.09.46c.39.16.76.34,1.15.51.87.36,1.78.67,2.67,1,1.68.62,3.34,1.28,5,1.83s3.4,1,5.12,1.44a62.28,62.28,0,0,0,10.59,1.6l.84,0a8.72,8.72,0,0,1-1,.36,20.57,20.57,0,0,1-4.6.76c-1,0-2.06,0-3.1-.06s-2.27-.13-3.41-.26l-.06,0a26.28,26.28,0,0,0-2.43-1.35,24.23,24.23,0,0,0-2.48-1,10,10,0,0,0-2.59-.58,3.85,3.85,0,0,0-1.47.15,8,8,0,0,0-1.12.59,1.24,1.24,0,0,0-.72,1,1.26,1.26,0,0,0,.52,1.13c.3.24.58.5.9.71a4,4,0,0,0,1.14.49c.4.13.81.2,1.22.29s.93.19,1.4.27c.84.15,1.7.26,2.56.37l2.21.31a24.86,24.86,0,0,1,3.16,2.41,15.89,15.89,0,0,1,2.12,2.37,5.6,5.6,0,0,1,.4.9,4.83,4.83,0,0,1,.13.76c0,.1,0,.21,0,.31s-.08.22-.13.33a4.67,4.67,0,0,1-.36.51l-.33.28a3.85,3.85,0,0,1-.52.22,8.35,8.35,0,0,1-1.57.21,25.34,25.34,0,0,1-4.35-.25c-.79-.12-1.58-.28-2.37-.43s-1.53-.29-2.29-.46c-2.06-.47-4.12-1-6.18-1.5-1.49-.37-3-.78-4.44-1.24a1.26,1.26,0,1,0-.87,2.37c2.78.85,5.62,1.46,8.44,2.12l2.63.62c.89.19,1.79.35,2.68.52a27.49,27.49,0,0,0,4.94.63,11,11,0,0,0,4.83-.59,4.34,4.34,0,0,0,1.71-1.58,4.46,4.46,0,0,0,.48-1,4.21,4.21,0,0,0,.12-1.46,5.53,5.53,0,0,0-.27-1.19,4.88,4.88,0,0,0-.51-1.17A13.23,13.23,0,0,0,273.91,65c-.33-.34-.68-.68-1-1l1.17,0c.86,0,1.71,0,2.56,0a20.74,20.74,0,0,0,2.61-.36,11.63,11.63,0,0,0,4.92-1.93,6.53,6.53,0,0,0,1.14-1.15h1.5a57.13,57.13,0,0,0,8.37.45,43.05,43.05,0,0,0,10.37-1.28,26.67,26.67,0,0,0,9.61-4.47,19.17,19.17,0,0,0,3.64-3.78,13.86,13.86,0,0,0,2.18-4.65,20.88,20.88,0,0,0,.53-2.47,15.44,15.44,0,0,0,.1-2.72,15.53,15.53,0,0,0-.25-2.45,26.12,26.12,0,0,0-.72-2.73,21.38,21.38,0,0,0-4.25-7.8c-.44-.53-.89-1.05-1.33-1.57ZM297.64,15.26l-.07,0,.07,0Zm3,29.54a13.36,13.36,0,0,1,1.25,2.75,11.1,11.1,0,0,1,.4,2.36,9.67,9.67,0,0,1-.14,1.7,6.42,6.42,0,0,1-.45,1.2,8.77,8.77,0,0,1-1.05,1.5,8.12,8.12,0,0,1-1.33,1.09,14.72,14.72,0,0,1-3.17,1.34,33.93,33.93,0,0,1-4.11.93,38.22,38.22,0,0,1-4.28.38l-1.36,0a2.11,2.11,0,0,0,0-.25,7,7,0,0,0-1.15-3.49c-.26-.41-.54-.8-.84-1.19a19.91,19.91,0,0,0-4-3.71,35.74,35.74,0,0,0-4.68-2.8,23.92,23.92,0,0,0-4.74-1.89,27.89,27.89,0,0,0-5-.9,21.34,21.34,0,0,0-5.11.26,12.9,12.9,0,0,0-4.75,1.67l-.85-.75c-.6-.57-1.18-1.16-1.76-1.75a12.93,12.93,0,0,1-1.64-1.91,11.13,11.13,0,0,1-.86-1.93,7.87,7.87,0,0,1-.23-1.27A8,8,0,0,1,251,37a11.15,11.15,0,0,1,.77-2.09,9.37,9.37,0,0,1,1.06-1.54,10.26,10.26,0,0,1,1.74-1.4A19.85,19.85,0,0,1,258.94,30a24.21,24.21,0,0,1,2.92-.67,26,26,0,0,1,3.05-.3,47.66,47.66,0,0,1,5.34.2,43.48,43.48,0,0,1,5.66.87l-.07,0a54.29,54.29,0,0,1,12.55,4.54,41.12,41.12,0,0,1,8.48,5.78,23.63,23.63,0,0,1,3.79,4.38ZM268.72,8.61h0ZM258,11.21l-.06,0,.06,0Zm38,47.52h0ZM265.08,29.05h0Zm18.11,26.76a7.72,7.72,0,0,1,.59,1.31c.05.21.09.42.12.64a.22.22,0,0,1,0,.08c-1.36-.23-2.72-.5-4.06-.8a64.27,64.27,0,0,1-15-5.38A47.85,47.85,0,0,1,260,48.71c-.55-.38-1.1-.77-1.63-1.17a11.72,11.72,0,0,1,1.17-.44,19,19,0,0,1,4.37-.68,23.13,23.13,0,0,1,5.3.57,24.39,24.39,0,0,1,2.88.86c1,.37,1.9.81,2.81,1.27s2,1.1,3,1.73a23.6,23.6,0,0,1,3,2.28,15.89,15.89,0,0,1,2.3,2.68Zm-7.28,5.82h0ZM259.33,51.18a49.76,49.76,0,0,0,4.8,2.77q2.06,1,4.19,1.93c-1.6-.45-3.18-1-4.74-1.52l-4-1.52c-.68-.25-1.36-.51-2-.81-.32-.13-.62-.28-.93-.41s-.48-.19-.71-.3l-.24-.16,0,0-.09-.21c0-.16-.06-.31-.08-.47s0-.15,0-.22l.12-.32a6,6,0,0,1,.56-.76,1.59,1.59,0,0,1,.13-.13c1,.76,2,1.49,3.09,2.18Zm-2.05-34.73,0,0,0,0Z"/><path class="cls-2" d="M93.56,134.51a9.16,9.16,0,0,0,5,5.93,5,5,0,0,0-.9,1.13,9.91,9.91,0,0,1-5-6,9,9,0,0,1-5,6,4.4,4.4,0,0,0-.93-1,8.07,8.07,0,0,0,4.88-6.05H86.94v-1.24h4.84a33.48,33.48,0,0,0,.16-3.59h1.31a33.63,33.63,0,0,1-.18,3.59h5.24v1.24Z"/><path class="cls-2" d="M112.78,140.36v.93H101.06v-.93h5.24v-.62h-4.13v-.82h4.13v-.58h-3.81v-3.25h8.92v3.25h-3.94v.58h4.2v.82h-4.2v.62Zm-.06-5.77H101.11v-.88h11.61Zm-1.66-1.38h-8.33v-3.14h8.33Zm-7.42,3.16h2.66v-.59h-2.66Zm2.66,1.28V137h-2.66v.61Zm3.54-6.92H103.9v.59h5.94Zm0,1.22H103.9v.6h5.94Zm.39,3.83h-2.76v.59h2.76Zm0,1.26h-2.76v.61h2.76Z"/><path class="cls-2" d="M119.43,132.77h-4.21v-1h4.21Zm7.36,7.39c0,.63-.13,1-.52,1.21a5.08,5.08,0,0,1-2,.22,5,5,0,0,0-.33-1.2,11.66,11.66,0,0,0,1.45,0c.2,0,.26-.05.26-.24v-8.95h-4.56v3.67c0,2-.14,4.91-1.18,6.78a5.36,5.36,0,0,0-1-.66l.07-.14h-2.36v.57h-1v-4.37h3.35v3.75a14.08,14.08,0,0,0,.94-5.93v-4.71h6.77Zm-7.7-5.65h-3.34v-.93h3.34Zm-3.34.8h3.34v.95h-3.34Zm3.32-4.27h-3.24v-.95h3.24Zm-1,7h-1.42v1.87h1.42Zm4.75-3.64v-1.08h-1.18v-.91h1.18v-1h1v1h1.23v.91h-1.23v1.08h1.37v.91h-3.62v-.91Zm-.24,5.12V140h-.89v-3.85H125v3.37Zm0-2.48v1.58h1.48V137Z"/><path class="cls-2" d="M133.85,139c-1.42.49-2.93,1-4.1,1.38l-.28-1.24c.47-.13,1-.29,1.66-.48v-3.3h-1.4v-1.12h1.4V131.6H129.6v-1.12h4.13v1.12h-1.44v2.59h1.23v1.12h-1.23v2.94c.44-.15.91-.29,1.35-.45Zm7.68,1.13v1.1h-8.31v-1.1H137v-1.55h-2.82v-1.09H137V136.1h-2.7v-5.85H141v5.85h-2.72v1.34h2.89v1.09h-2.89v1.55Zm-6.13-7.4h1.7v-1.4h-1.7Zm0,2.39h1.7v-1.43h-1.7Zm4.39-3.79h-1.66v1.4h1.66Zm0,2.36h-1.66v1.43h1.66Z"/><path class="cls-2" d="M146.82,130.74c-.09.25-.22.76-.27,1a30.67,30.67,0,0,0-.64,4.85,10.2,10.2,0,0,0,.09,1.35c.2-.52.46-1.14.65-1.61l.68.52a24.55,24.55,0,0,0-.92,3,2.55,2.55,0,0,0-.07.59c0,.13,0,.32,0,.48l-1.17.08a16.06,16.06,0,0,1-.5-4.16,37.09,37.09,0,0,1,.56-5.14,7.31,7.31,0,0,0,.12-1.06Zm3,6.3a4.58,4.58,0,0,0-.16,1.14c0,.59.43,1,2,1a14.1,14.1,0,0,0,3.21-.34l0,1.38a17.13,17.13,0,0,1-3.27.26c-2.18,0-3.19-.75-3.19-2a7.68,7.68,0,0,1,.22-1.59Zm4.66-5.37V133a31.3,31.3,0,0,1-5.39,0v-1.31A24.26,24.26,0,0,0,154.45,131.67Z"/><path class="cls-2" d="M168.91,140.1c0,.71-.17,1.08-.65,1.29a8.5,8.5,0,0,1-2.48.21,4.66,4.66,0,0,0-.42-1.24c.86,0,1.76,0,2,0s.34-.08.34-.3v-7h-8.11v8.54h-1.2v-9.73h3.55a16.69,16.69,0,0,0,.76-2.22l1.53.25c-.29.66-.62,1.37-.95,2h5.63Zm-6.71-1.22v.91h-1.1v-5.24h5v4.33Zm0-3.26v2.18H165v-2.18Z"/><path class="cls-2" d="M174.21,132.82c0,.81,0,1.9.09,2.9.2,2,.72,3.38,1.58,3.38.65,0,1.21-1.4,1.49-2.58l1,1.21c-.82,2.21-1.61,3-2.56,3-1.3,0-2.49-1.25-2.84-4.64a34.29,34.29,0,0,1-.15-3.44,6.28,6.28,0,0,0-.09-1.21l1.57,0A11.42,11.42,0,0,0,174.21,132.82Zm9,5.36-1.34.52c-.21-2.21-1-5-2.25-6.51l1.29-.43A13.65,13.65,0,0,1,183.24,138.18Z"/><path class="cls-2" d="M186.34,131.75l5.61-.51c1.37-.11,2.66-.18,3.55-.21v1.3a10.92,10.92,0,0,0-2.5.2,4.23,4.23,0,0,0-2.85,3.86c0,2.34,2.19,3.12,4.32,3.21L194,141c-2.52-.13-5.17-1.48-5.17-4.33a5.1,5.1,0,0,1,2.18-4.17c-1.13.13-4.29.44-5.72.74l-.14-1.42C185.65,131.8,186.1,131.77,186.34,131.75Z"/><path class="cls-2" d="M200.66,132.82a26.92,26.92,0,0,0,.09,2.9c.19,2,.71,3.38,1.57,3.38.65,0,1.21-1.4,1.5-2.58l1,1.21c-.82,2.21-1.62,3-2.57,3-1.3,0-2.49-1.25-2.84-4.64a34.29,34.29,0,0,1-.15-3.44,6.28,6.28,0,0,0-.09-1.21l1.58,0A9.72,9.72,0,0,0,200.66,132.82Zm9,5.36-1.34.52c-.21-2.21-1-5-2.25-6.51l1.29-.43A13.65,13.65,0,0,1,209.68,138.18Z"/><path class="cls-2" d="M218.9,132.88a19.78,19.78,0,0,1-2.29.45,22.37,22.37,0,0,1-2.8,5.47l-1.25-.63a18.47,18.47,0,0,0,2.7-4.7l-.93,0c-.49,0-1,0-1.54-.05l-.1-1.2c.51.05,1.12.08,1.64.08s.87,0,1.33-.05a10.94,10.94,0,0,0,.38-2.19l1.41.13c-.1.45-.27,1.16-.47,1.89a13.58,13.58,0,0,0,1.88-.44Zm1.58,1.34c0,.54,0,1,0,1.5s.05,1.16.09,1.89a8.55,8.55,0,0,1,2.66,1.62l-.68,1.11a9.87,9.87,0,0,0-1.93-1.43v.35c0,1.09-.66,2-2.35,2-1.5,0-2.71-.64-2.71-2s1.1-2.07,2.7-2.07a6.26,6.26,0,0,1,1.07.09c0-1-.11-2.22-.14-3.06Zm-1.12,4.18a4.43,4.43,0,0,0-1.18-.15c-.86,0-1.42.37-1.42.89s.45.93,1.33.93a1.12,1.12,0,0,0,1.29-1.21A3.94,3.94,0,0,0,219.36,138.4Zm3.53-3.69a16.49,16.49,0,0,0-3-1.79l.65-1a21.82,21.82,0,0,1,3.08,1.73Z"/><path class="cls-2" d="M228.29,132.82a27.1,27.1,0,0,0,.1,2.9c.19,2,.71,3.38,1.57,3.38.65,0,1.21-1.4,1.49-2.58l1,1.21c-.82,2.21-1.61,3-2.56,3-1.3,0-2.49-1.25-2.84-4.64a34.29,34.29,0,0,1-.15-3.44,6.28,6.28,0,0,0-.09-1.21l1.57,0A11.42,11.42,0,0,0,228.29,132.82Zm9,5.36-1.34.52c-.21-2.21-.95-5-2.25-6.51l1.29-.43A13.65,13.65,0,0,1,237.32,138.18Z"/><path class="cls-2" d="M91.67,178.52c-.28-.45-.82-1.22-1.32-1.86V183H89.13v-5.71a12,12,0,0,1-1.85,3.44,7,7,0,0,0-.63-1.17A13.1,13.1,0,0,0,89,174.91H87.05v-1.16h2.08V171h1.22v2.72h1.71v1.16H90.35v.33c.51.5,1.76,1.89,2.06,2.24Zm7.06-3.61H97.44v6.5c0,.76-.18,1.1-.65,1.3a6.92,6.92,0,0,1-2.35.23,6.43,6.43,0,0,0-.43-1.23c.78,0,1.6,0,1.83,0s.32-.08.32-.31V176.6a15.65,15.65,0,0,1-3.7,4.38,5.36,5.36,0,0,0-.87-1,13.72,13.72,0,0,0,4.2-5.09h-3.3v-1.16h3.67v-2.7h1.28v2.7h1.29Z"/><path class="cls-2" d="M104.35,176.62c.39.42,1.64,2,1.91,2.39l-.76,1c-.22-.46-.72-1.28-1.15-2v5h-1.13v-5a13.53,13.53,0,0,1-1.65,3.45,6.7,6.7,0,0,0-.58-1.21,12.89,12.89,0,0,0,1.87-3.73h-1.65v-1.13h2V171.1h1.13v4.25h2v1.13h-2ZM101.91,175a13.37,13.37,0,0,0-.65-2.92l.86-.22a13.42,13.42,0,0,1,.71,2.9Zm4.58-3c-.34,1-.73,2.22-1.07,3l-.77-.23a21,21,0,0,0,.78-3Zm5,7.36V183h-1.13v-3.38l-3.85.7-.2-1.12,4-.73v-7.39h1.13v7.18L113,178l.17,1.1Zm-2.8-1.89a10.22,10.22,0,0,0-2.13-1.56l.57-.87a11.69,11.69,0,0,1,2.17,1.47Zm.52-3.13a9.35,9.35,0,0,0-2-1.68l.61-.82a10.88,10.88,0,0,1,2.06,1.58Z"/><path class="cls-2" d="M123.92,182.13c0-.18,0-.42,0-.7h-6.16c-.53,0-1.18,0-1.56,0V180c.38,0,1,.06,1.51.06h6.22v-5.8h-6.07c-.5,0-1.17,0-1.5,0v-1.43c.45,0,1.07.08,1.5.08h6.47c.35,0,.8,0,1,0,0,.29,0,.76,0,1.1v6.72c0,.45,0,1.09.05,1.37Z"/><path class="cls-2" d="M138.48,173.19a4.59,4.59,0,0,0-.38.68,17.68,17.68,0,0,1-2.13,3.7,35.23,35.23,0,0,1,3.72,3.81l-1.16,1a27.2,27.2,0,0,0-3.43-3.79,16.61,16.61,0,0,1-5,3.73L129,181.24a14.59,14.59,0,0,0,5.34-3.81,10.62,10.62,0,0,0,2.07-3.43h-4.77c-.51,0-1.21.06-1.42.07v-1.46c.26,0,1,.09,1.42.09h4.82a4.25,4.25,0,0,0,1.13-.13Z"/><path class="cls-2" d="M150.14,178.75a33.85,33.85,0,0,0-4.91-2v4a16.57,16.57,0,0,0,.1,1.67h-1.6a12.77,12.77,0,0,0,.11-1.67v-7.51a9.27,9.27,0,0,0-.12-1.46h1.6c0,.43-.09,1-.09,1.46v2a44.76,44.76,0,0,1,5.5,2.08Z"/><path class="cls-2" d="M158.5,171.85c-.07.27-.14.6-.2.89s-.18,1-.29,1.59c.52,0,1-.06,1.28-.06,1.24,0,2.19.52,2.19,2.31a12.73,12.73,0,0,1-.73,4.67,1.94,1.94,0,0,1-2,1.12,6.73,6.73,0,0,1-1.53-.2l-.23-1.35a6.84,6.84,0,0,0,1.59.27,1,1,0,0,0,1-.61,10.26,10.26,0,0,0,.58-3.75c0-1.11-.5-1.29-1.32-1.29-.26,0-.69,0-1.17.06a26.55,26.55,0,0,1-2.65,6.91l-1.34-.54a19.84,19.84,0,0,0,2.67-6.22l-1.41.15c-.34,0-.91.12-1.27.19l-.13-1.41c.44,0,.8,0,1.25,0s1.1-.06,1.82-.13a15.44,15.44,0,0,0,.31-2.75Zm4.63,1.68a24.43,24.43,0,0,1,2.12,4.35l-1.29.61a14.94,14.94,0,0,0-2.25-4.73l1.21-.53.21.29a14.93,14.93,0,0,0-1-1.8l.84-.35a19.12,19.12,0,0,1,1.06,1.79Zm1.51-.56a11.93,11.93,0,0,0-1.07-1.79l.84-.36a17,17,0,0,1,1.08,1.79Z"/><path class="cls-2" d="M179,172.19v1.05H167.74v-1.05h4.93V171h1.23v1.17Zm-.44,9.41c0,.61-.13,1-.57,1.15a6.6,6.6,0,0,1-2.15.19,4.46,4.46,0,0,0-.37-1.12H172v.63h-1V179h4.92v2.81a8.72,8.72,0,0,0,1.22,0c.21,0,.27-.05.27-.22V178.3h-7.84V183h-1.18v-5.68h10.23Zm-1.66-7.73v2.71h-7v-2.71Zm-1.23.83H171v1.05h4.6Zm-.89,5.17H172V181h2.79Z"/><path class="cls-2" d="M184,174.19c0,.81,0,1.9.09,2.9.2,2,.72,3.38,1.58,3.38.65,0,1.21-1.4,1.49-2.59l1,1.21c-.82,2.21-1.61,3-2.56,3-1.3,0-2.49-1.25-2.85-4.64a34.16,34.16,0,0,1-.14-3.45,6.4,6.4,0,0,0-.09-1.21l1.57,0A11.42,11.42,0,0,0,184,174.19Zm9,5.36-1.34.52c-.21-2.21-.95-5-2.25-6.52l1.28-.42A13.52,13.52,0,0,1,193,179.55Z"/><path class="cls-2" d="M96.69,219.68c0,.74-.11,1.35-.16,1.86H98.2v1.06H96.34a2.62,2.62,0,0,1-.44,1.19,1.35,1.35,0,0,1-1,.54,13.73,13.73,0,0,1-1.81,0,2.48,2.48,0,0,0-.27-.92c.69.06,1.28.08,1.55.08a.54.54,0,0,0,.51-.21,1.81,1.81,0,0,0,.28-.67H89.35c0,.28-.09.54-.14.77L88,223.28c.2-1,.44-2.26.64-3.6h-2v-1.09H88.8c.15-1,.28-2,.37-2.81h7.75s0,.4,0,.56q-.06,1.24-.12,2.25h1.78v1.09Zm-6.9-5A11.42,11.42,0,0,1,87.88,217a4,4,0,0,0-1-.76,9.48,9.48,0,0,0,2.78-3.83l1.3.23a11.06,11.06,0,0,1-.52,1h7.5v1.08Zm0,5c-.09.64-.19,1.27-.3,1.86h2.26c.08-.56.17-1.2.25-1.86Zm.4-2.83c-.07.55-.15,1.15-.23,1.74h2.17c.07-.6.12-1.19.17-1.74Zm5.09,4.69c.06-.5.13-1.11.19-1.86H93.16c-.08.66-.16,1.31-.24,1.86Zm.27-2.95c0-.52.06-1.11.09-1.74H93.47c0,.55-.12,1.14-.18,1.74Z"/><path class="cls-2" d="M111.27,213.23v10.91H110v-.79h-6.12v.84h-1.24v-11Zm-7.41,1.22v3.18H110v-3.18Zm6.12,7.67v-3.3h-6.12v3.3Z"/><path class="cls-2" d="M120.72,222.51a7.2,7.2,0,0,0,1.14-.18,3.7,3.7,0,0,0,3.12-3.65,3.4,3.4,0,0,0-3.09-3.59,28.78,28.78,0,0,1-.77,3.61c-.78,2.63-1.84,4.1-3.13,4.1s-2.44-1.44-2.44-3.59a5.59,5.59,0,0,1,5.75-5.34,4.77,4.77,0,0,1,5.06,4.86c0,2.69-1.73,4.56-4.87,5Zm-.91-4.08a18.14,18.14,0,0,0,.7-3.31,4.32,4.32,0,0,0-3.67,4c0,1.49.67,2.16,1.19,2.16S119.21,220.42,119.81,218.43Z"/><path class="cls-2" d="M138.53,213.82a9,9,0,0,0-.48,1,18,18,0,0,1-1.86,3.69,36.25,36.25,0,0,1,3.16,2.92l-1,1.16a27.37,27.37,0,0,0-3-2.92,16.49,16.49,0,0,1-5,4.12l-1.18-1.06a14.31,14.31,0,0,0,5.07-4,37.2,37.2,0,0,0-3.58-2.55l.87-1c1.08.69,2.51,1.67,3.55,2.45a13.81,13.81,0,0,0,1.61-3.32,7.08,7.08,0,0,0,.29-1.07Z"/><path class="cls-2" d="M142,221.08c.47,0,1,.08,1.47.08h7.64a9.36,9.36,0,0,0,1.3-.08v1.58c-.43,0-.93-.07-1.3-.07h-7.64c-.48,0-1,0-1.47.07Zm1.1-6.39c.43,0,1,.06,1.38.06H150a13.11,13.11,0,0,0,1.35-.06v1.48c-.36,0-.91,0-1.35,0H144.5c-.47,0-1,0-1.4,0Z"/><path class="cls-2" d="M163.49,222.06c.3,0,.83,0,1.13-.05v1.32l-1.1,0h-7l-1.17,0V222a10.23,10.23,0,0,0,1.17.07H161c.18-1.11.52-3.34.56-4.07H157.7c-.39,0-.8,0-1.15,0v-1.35a10.88,10.88,0,0,0,1.14.06h3.69a2.79,2.79,0,0,0,.78-.1l1,.48a4.4,4.4,0,0,0-.1.47c-.11.83-.47,3.26-.65,4.47Z"/><path class="cls-2" d="M168,217.51c.42,0,1.22.08,1.93.08h7.05c.64,0,1.15-.06,1.46-.08v1.6c-.29,0-.87-.05-1.44-.05h-7.07c-.73,0-1.5,0-1.93.05Z"/><path class="cls-2" d="M186.55,213.22c-.06.27-.14.6-.19.88s-.19,1-.3,1.6c.52,0,1-.06,1.28-.06,1.24,0,2.19.52,2.19,2.31a12.77,12.77,0,0,1-.73,4.67,1.94,1.94,0,0,1-2,1.12,7.44,7.44,0,0,1-1.53-.2l-.22-1.35a7.24,7.24,0,0,0,1.58.27,1,1,0,0,0,1.05-.61,10.14,10.14,0,0,0,.58-3.76c0-1.1-.5-1.28-1.32-1.28-.26,0-.68,0-1.17.06a25.67,25.67,0,0,1-2.65,6.9l-1.34-.53a19.79,19.79,0,0,0,2.67-6.23l-1.41.16-1.27.18-.13-1.4c.44,0,.81,0,1.25,0s1.1-.07,1.82-.13a15.55,15.55,0,0,0,.31-2.76Zm4.63,1.68a24.43,24.43,0,0,1,2.12,4.35l-1.29.61a14.84,14.84,0,0,0-2.25-4.73l1.21-.53.21.28a14.09,14.09,0,0,0-1-1.79l.84-.35a16.85,16.85,0,0,1,1.06,1.79Zm1.51-.56a12.56,12.56,0,0,0-1.07-1.8l.85-.35c.33.48.83,1.3,1.08,1.78Z"/><path class="cls-2" d="M197.05,220a11.46,11.46,0,0,1-.87,3.31,4.92,4.92,0,0,0-.92-.45,9.87,9.87,0,0,0,.77-3Zm1.54-1v5.36h-1.08v-5.29c-.74,0-1.43.07-2,.11l-.1-1.06.91,0c.24-.31.49-.65.75-1a12.49,12.49,0,0,0-1.64-1.82l.59-.81.35.31a15.73,15.73,0,0,0,1.07-2.35l1.09.39c-.47.88-1,1.91-1.48,2.61a7.89,7.89,0,0,1,.63.76,23.73,23.73,0,0,0,1.32-2.27l1,.45a41.27,41.27,0,0,1-2.58,3.69l1.72-.07a11.32,11.32,0,0,0-.54-1l.87-.37a11,11,0,0,1,1.25,2.66l-.93.44a7.19,7.19,0,0,0-.23-.72Zm1.19.78a13.13,13.13,0,0,1,.85,2.46l-1,.34a14.54,14.54,0,0,0-.79-2.5Zm7.66,3.11V224h-7.55v-1.09h1.29v-9.79h5.33v9.79Zm-5.08-8.7v2.13h2.92v-2.13Zm2.92,3.22h-2.92v2.15h2.92Zm-2.92,5.48h2.92v-2.24h-2.92Z"/><path class="cls-2" d="M218.19,213.23c-.09.33-.19.85-.26,1.13s-.1.46-.17.69a4.14,4.14,0,0,1,3.44,4.24c0,2.64-1.89,4.21-4.61,4.6l-.78-1.17c2.75-.25,4.07-1.66,4.07-3.48a3,3,0,0,0-2.41-3.06,16.19,16.19,0,0,1-1.82,4.25,6.24,6.24,0,0,0,.75.85l-1,.83c-.18-.21-.36-.42-.53-.64a3.42,3.42,0,0,1-2.54,1.5c-1,0-1.91-.85-1.91-2.43a5.51,5.51,0,0,1,2-4c-.14-.38-.26-.75-.37-1.12a8.92,8.92,0,0,0-.47-1.25l1.35-.41c.08.38.18.8.27,1.18s.17.59.28.9a6.74,6.74,0,0,1,3.13-.86c.06-.27.13-.53.17-.78a6.75,6.75,0,0,0,.08-1.09Zm-4.23,7a14.88,14.88,0,0,1-1.19-2.51,4.19,4.19,0,0,0-1.18,2.75c0,.75.31,1.22.84,1.22a2.54,2.54,0,0,0,1.68-1.21Zm.92-.88a15.91,15.91,0,0,0,1.35-3.23,5.41,5.41,0,0,0-2.46.82,13.63,13.63,0,0,0,1,2.21Z"/><path class="cls-2" d="M230.92,215.61a19.62,19.62,0,0,1-2.29.46,22.71,22.71,0,0,1-2.79,5.47l-1.25-.64a18.85,18.85,0,0,0,2.69-4.69l-.92,0c-.5,0-1,0-1.55,0l-.09-1.19c.51,0,1.12.07,1.64.07s.87,0,1.32-.05a10.19,10.19,0,0,0,.38-2.18l1.42.13c-.11.44-.28,1.16-.47,1.88a13.11,13.11,0,0,0,1.87-.44Zm1.59,1.34c0,.55,0,1,0,1.51s.06,1.15.09,1.88a8.69,8.69,0,0,1,2.67,1.63l-.69,1.1a11,11,0,0,0-1.92-1.43V222c0,1.1-.67,2-2.36,2-1.49,0-2.7-.64-2.7-2s1.09-2.06,2.69-2.06a5.43,5.43,0,0,1,1.08.09c0-1-.12-2.23-.14-3.07Zm-1.12,4.19a4.15,4.15,0,0,0-1.18-.16c-.86,0-1.42.38-1.42.9s.44.92,1.32.92,1.29-.55,1.29-1.21C231.4,221.46,231.4,221.32,231.39,221.14Zm3.52-3.7a16.64,16.64,0,0,0-3-1.79l.65-1a21,21,0,0,1,3.08,1.73Z"/><path class="cls-2" d="M240.32,215.56c0,.8,0,1.9.09,2.9.2,2,.72,3.38,1.57,3.38.65,0,1.21-1.41,1.5-2.59l1,1.21c-.82,2.21-1.61,3-2.56,3-1.3,0-2.5-1.25-2.85-4.64a34.27,34.27,0,0,1-.14-3.45,7.27,7.27,0,0,0-.09-1.21l1.57,0A9.59,9.59,0,0,0,240.32,215.56Zm9,5.35-1.34.52c-.21-2.21-.95-5-2.25-6.51l1.29-.43A13.69,13.69,0,0,1,249.34,220.91Z"/><path class="cls-4" d="M51.77,125.49c.21.44.45.88.68,1.31l.68,1.28.51.95.26.49c.28.47.55.95.83,1.43l.48.82a2.07,2.07,0,0,0,.15.25l1,1.36.88,1.25.29.42.12.17h0l0,0,0,0h0c.76.93,1.54,1.86,2.31,2.79l.32.39c.08.1.18.19.27.29l1.53,1.55.59.6.23.2,1.7,1.35.21.17.08.06.5.3.83.5.25.15c.16.1.34.18.52.28a.36.36,0,0,0,.24,0,.9.9,0,0,0,.34-.11c.2-.11.32-.29.2-.35s-.39-.2-.57-.31l-.44-.26-1-.6a3,3,0,0,1-.34-.26l-.89-.71-.82-.66-.23-.2L62.06,139l-.68-.69-.26-.26c-.27-.35-.56-.68-.84-1l-1.39-1.7-.41-.51-.22-.31-.54-.78L56.5,132l-.27-.38c-.08-.12-.14-.24-.21-.36l-1-1.79c-.44-.76-.84-1.54-1.25-2.32s-.74-1.35-1.08-2c0-.1-.28-.11-.53,0s-.41.27-.37.37Z"/><path class="cls-5" d="M67.22,126.69c-.39.27-.77.56-1.16.85l-1.12.83-.84.63c-.14.1-.28.2-.42.32l-1.25,1-.72.58-.22.18-1.16,1.11-1.07,1-.36.35a.93.93,0,0,0-.14.14h0l0,0,0,0h0l-2.34,2.6-.33.37a3.4,3.4,0,0,0-.23.3c-.42.56-.84,1.12-1.27,1.67-.16.22-.32.44-.49.65s-.11.16-.16.25l-1.05,1.81a2.53,2.53,0,0,0-.13.22.35.35,0,0,0-.05.08c-.07.18-.14.35-.22.52l-.36.86c0,.08-.07.17-.1.26a4.14,4.14,0,0,0-.19.53.3.3,0,0,0,0,.23,1,1,0,0,0,.16.3c.13.17.32.26.36.14s.13-.4.21-.59.13-.3.19-.45c.15-.34.29-.69.44-1a2.18,2.18,0,0,1,.2-.37c.18-.31.36-.63.55-.94l.51-.87a2.13,2.13,0,0,1,.16-.25l1.16-1.53.57-.74.21-.29.86-.94,1.42-1.58c.14-.15.29-.3.43-.46l.27-.26.66-.62,1.49-1.41.33-.31c.1-.1.21-.17.31-.26l1.56-1.24c.67-.53,1.35-1,2-1.54s1.18-.89,1.78-1.32c.09-.07.07-.28-.06-.5s-.31-.35-.41-.29Z"/><path class="cls-4" d="M51.77,167.19c.21.45.45.88.68,1.32l.68,1.27.51,1,.26.48c.28.48.55,1,.83,1.43l.48.83c0,.08.09.17.15.25l1,1.36c.29.41.58.83.88,1.24.09.15.19.29.29.43l.12.17h0l0,0,0,0h0c.76.93,1.54,1.86,2.31,2.79l.32.39c.08.1.18.19.27.29L62.05,182l.59.6.23.2,1.7,1.36.21.17.08.06.5.3.83.5.25.15.52.27a.35.35,0,0,0,.24,0,1.16,1.16,0,0,0,.34-.12c.2-.11.32-.28.2-.34s-.39-.2-.57-.31l-.44-.26-1-.6a3,3,0,0,1-.34-.26L64.5,183l-.82-.66-.23-.2c-.46-.48-.93-.95-1.39-1.42l-.68-.69-.26-.27c-.27-.34-.56-.68-.84-1L58.89,177c-.14-.16-.27-.33-.41-.5s-.15-.21-.22-.31l-.54-.78-1.22-1.74-.27-.38c-.08-.12-.14-.24-.21-.36-.34-.6-.68-1.2-1-1.79-.44-.76-.84-1.54-1.25-2.32s-.74-1.35-1.08-2c0-.1-.28-.11-.53,0s-.41.27-.37.37Z"/><path class="cls-5" d="M67.22,168.4c-.39.27-.77.56-1.16.85l-1.12.83-.84.62-.42.32-1.25,1-.72.58c-.07.06-.15.11-.22.18l-1.16,1.1-1.07,1-.36.34-.14.14h0l0,0,0,0h0L56.4,178l-.33.36a3.55,3.55,0,0,0-.23.31l-1.27,1.67c-.16.22-.32.44-.49.65l-.16.24-1.05,1.82a2.53,2.53,0,0,0-.13.22.35.35,0,0,0-.05.08l-.22.52-.36.85c0,.09-.07.18-.1.26a5.62,5.62,0,0,0-.19.53.32.32,0,0,0,0,.24,1.1,1.1,0,0,0,.16.3c.13.17.32.26.36.14s.13-.41.21-.59.13-.3.19-.45c.15-.35.29-.69.44-1a2.18,2.18,0,0,1,.2-.37c.18-.31.36-.63.55-.94l.51-.88a2,2,0,0,1,.16-.24l1.16-1.53.57-.75.21-.28c.29-.31.57-.63.86-.95.47-.52,1-1,1.42-1.57l.43-.46.27-.26.66-.63,1.49-1.41.33-.31.31-.25L63.87,172c.67-.53,1.35-1,2-1.53s1.18-.9,1.78-1.33c.09-.06.07-.27-.06-.49s-.31-.35-.41-.29Z"/><path class="cls-4" d="M51.77,208.9c.21.44.45.88.68,1.32l.68,1.27.51.95.26.49.83,1.43.48.83c0,.08.09.17.15.25l1,1.35.88,1.25.29.42.12.18h0l0,0,0,0h0c.76.94,1.54,1.86,2.31,2.79.1.14.21.27.32.4a3.57,3.57,0,0,0,.27.28l1.53,1.55.59.6.23.2,1.7,1.36.21.17.08.05.5.31.83.49.25.15c.16.1.34.19.52.28a.43.43,0,0,0,.24,0,1.16,1.16,0,0,0,.34-.12c.2-.11.32-.28.2-.35l-.57-.3-.44-.27-1-.6a3,3,0,0,1-.34-.26l-.89-.71-.82-.65-.23-.2-1.39-1.43-.68-.69-.26-.26c-.27-.34-.56-.68-.84-1l-1.39-1.7c-.14-.17-.27-.34-.41-.5l-.22-.32-.54-.77-1.22-1.74-.27-.39c-.08-.11-.14-.24-.21-.36-.34-.59-.68-1.19-1-1.78-.44-.77-.84-1.55-1.25-2.32s-.74-1.35-1.08-2c0-.1-.28-.11-.53,0s-.41.26-.37.37Z"/><path class="cls-5" d="M67.22,210.11c-.39.27-.77.56-1.16.84l-1.12.84-.84.62-.42.32-1.25,1-.72.58a1.74,1.74,0,0,0-.22.18l-1.16,1.1-1.07,1-.36.35a1.85,1.85,0,0,0-.14.14h0l0,0,0,0h0l-2.34,2.6-.33.36a3.4,3.4,0,0,0-.23.3l-1.27,1.68-.49.65a2.5,2.5,0,0,0-.16.24l-1.05,1.81-.13.23a.22.22,0,0,0-.05.08c-.07.17-.14.34-.22.51l-.36.86c0,.09-.07.17-.1.26a4.76,4.76,0,0,0-.19.53.3.3,0,0,0,0,.23,1,1,0,0,0,.16.3c.13.17.32.26.36.14s.13-.4.21-.59.13-.29.19-.44l.44-1a2.53,2.53,0,0,1,.2-.36l.55-1,.51-.87a2.13,2.13,0,0,1,.16-.25l1.16-1.53.57-.74.21-.29.86-.94,1.42-1.57.43-.47.27-.25.66-.63,1.49-1.41.33-.31.31-.25,1.56-1.25c.67-.53,1.35-1,2-1.53s1.18-.9,1.78-1.33c.09-.06.07-.27-.06-.49s-.31-.35-.41-.3Z"/><circle class="cls-1" cx="596.61" cy="157.03" r="157.03"/><path class="cls-2" d="M537.23,90.71a21.77,21.77,0,0,1-.2,2.22,4.13,4.13,0,0,1-4.24,3.68c-1.3,0-2.54-.3-2.54-1.32a.93.93,0,0,1,.9-1,1.11,1.11,0,0,1,.34.06,4.56,4.56,0,0,0,1.32.22c2.16,0,2.28-2,2.4-3.88l-7.88,0a.88.88,0,0,1-1-.88,1,1,0,0,1,1-1l7.88,0a20.2,20.2,0,0,0-.24-2.24l-6.34,0a.88.88,0,0,1-1-.88,1,1,0,0,1,1-1l5.88,0a5.2,5.2,0,0,0-1.36-2.28c-1.56.12-3,.18-4.06.18a.94.94,0,0,1-1-.94.89.89,0,0,1,1-.9h0l.88,0a41.09,41.09,0,0,0,9.37-1.08,1.35,1.35,0,0,1,.29,0,1,1,0,0,1,.93,1,.82.82,0,0,1-.6.84,40.32,40.32,0,0,1-4.53.7,8,8,0,0,1,1.16,2.48l4.89,0a.92.92,0,0,1,.94,1,.89.89,0,0,1-.94.92l-4.47,0a19.32,19.32,0,0,1,.22,2.24l5.55,0a.92.92,0,0,1,.94,1,.89.89,0,0,1-.94.92Z"/><path class="cls-2" d="M551.09,95.89l.2-9.56c-1.58,2-2.18,2.3-2.64,2.3a.93.93,0,0,1-.94-.9,1,1,0,0,1,.36-.72A18.42,18.42,0,0,0,552.89,80a.86.86,0,0,1,.86-.6,1.08,1.08,0,0,1,1.1,1,13.16,13.16,0,0,1-1.6,3.2L553,95.89a.91.91,0,0,1-1,.92.9.9,0,0,1-1-.9Zm9-3.58v3.46a1,1,0,1,1-1.92,0V84.45h-.74a22.33,22.33,0,0,1-2.16,3.38,1.2,1.2,0,0,1-.9.52.89.89,0,0,1-.9-.88,1,1,0,0,1,.26-.64,17.46,17.46,0,0,0,3.38-6.78.91.91,0,0,1,.92-.74,1,1,0,0,1,1,.9,15.92,15.92,0,0,1-.84,2.5h6.91a.84.84,0,0,1,.86.88.82.82,0,0,1-.86.86h-5v2.16h4.13a.84.84,0,0,1,.86.88.82.82,0,0,1-.86.86h-4.13v2.22h4.33a.84.84,0,0,1,.86.88.82.82,0,0,1-.86.86Z"/><path class="cls-2" d="M572.61,96.65a1,1,0,0,1-1-1,1.06,1.06,0,0,1,.74-1c4.1-1.68,5.24-4.66,5.24-7.5a13.18,13.18,0,0,0-.34-2.86c-.2-.94-.64-1.32-1.12-1.32a2.14,2.14,0,0,0-1.48,1,6.87,6.87,0,0,0-1.1,4.26c0,1.08-.56,1.56-1.06,1.56-1,0-1-1.32-1-1.6a17.18,17.18,0,0,1,.8-4.3c.3-1,.8-2.48,1-3.7a.81.81,0,0,1,.84-.7,1.12,1.12,0,0,1,1.14,1c0,.06,0,.12,0,.18a3.47,3.47,0,0,1-.62,1.4c-.14.22-.16.3-.14.3s.16-.12.3-.26a2.65,2.65,0,0,1,1.8-.86c2.4,0,3,4,3,6.08,0,3.34-1.46,7-6.38,9.12A1.46,1.46,0,0,1,572.61,96.65Z"/><path class="cls-2" d="M598.64,88c0-2.22-1.74-4.12-4.65-4.12h0a.9.9,0,0,1,.56.84v.1c0,2.1-2.06,5.74-4.26,7.9a2.17,2.17,0,0,1-1.5.68c-1.42,0-2.7-1.6-2.7-3.78,0-3.62,3.56-7.3,8.06-7.3,4,0,6.57,2.68,6.57,5.8a6.13,6.13,0,0,1-.44,2.26c-1.76,4.44-7.21,5.06-7.49,5.06a1.05,1.05,0,0,1-1.14-1c0-.44.34-.86,1.1-1C596.35,92.83,598.64,90.59,598.64,88Zm-5.79-4c-2.5.5-5,3.16-5,5.54,0,1.5,1,1.68,1.06,1.68a.53.53,0,0,0,.38-.16c.6-.54,3.1-3.5,3.18-6.2A1,1,0,0,1,592.85,84Z"/><path class="cls-2" d="M606.11,84a.82.82,0,0,1-.86-.82.81.81,0,0,1,.86-.82h5.6a.8.8,0,0,1,.86.82.81.81,0,0,1-.86.82Zm12.21,12a.83.83,0,0,1-.91.8.85.85,0,0,1-.92-.82v0l.06-4.2c-1.12,1.84-3.32,4.16-4.24,4.16a.86.86,0,0,1-.86-.8c-.4.84-1.12.94-2.76.94-.52,0-1,0-1.38,0a1.52,1.52,0,0,1-1.44-1.58c0-.52,0-1,0-1.44s0-.88,0-1.32a1.47,1.47,0,0,1,1.42-1.52c.4,0,.94,0,1.46,0s1,0,1.32,0a1.56,1.56,0,0,1,1.54,1.42c0,.46,0,.94,0,1.44s0,1,0,1.4c0,.06,0,.1,0,.16a1,1,0,0,1,.3-.26A12.43,12.43,0,0,0,616,90.07l-2.86.06h0a.75.75,0,0,1-.78-.78.77.77,0,0,1,.8-.82l3.5,0,0-1.3-1.5-.06a1.85,1.85,0,0,1-2-1.8c0-.6,0-1.26,0-1.92s0-1.36,0-2a1.84,1.84,0,0,1,2-1.72c.66,0,1.48,0,2.34,0s1.71,0,2.41,0a1.9,1.9,0,0,1,2,1.7c0,.72,0,1.5,0,2.28,0,.56,0,1.12,0,1.62a2,2,0,0,1-2,1.82c-.44,0-1,.06-1.6.06v1.3l3.86,0a.8.8,0,0,1,.84.82.76.76,0,0,1-.82.78h0l-3.34-.06a16.54,16.54,0,0,0,4.3,3.76.91.91,0,0,1,.48.8,1.07,1.07,0,0,1-1,1c-1.12,0-4-3.62-4.26-4l.06,4.3ZM606.87,81.21a.8.8,0,1,1,0-1.6H611a.8.8,0,1,1,0,1.6Zm0,5.34a.8.8,0,1,1,0-1.6h3.92a.8.8,0,1,1,0,1.6Zm0,2.58a.8.8,0,1,1,0-1.6h3.92a.8.8,0,1,1,0,1.6ZM610,93.07c0-.32,0-.66,0-.94,0-.5-.38-.54-1.3-.54-1.28,0-1.28,0-1.28,1.46,0,.32,0,.66,0,1s.06.48,1.4.48c.4,0,1.16,0,1.16-.5C610,93.71,610,93.39,610,93.07Zm6.5-12c-1.76,0-1.82,0-1.82,1.7h1.84Zm0,3h-1.84c0,1.3,0,1.68.88,1.72l1,0Zm1.71,0,0,1.74c2,0,2,0,2-1.74Zm2-1.32c0-.34,0-.68,0-1,0-.72-.46-.72-1.92-.72v1.7Z"/><path class="cls-2" d="M633.09,91.47v2.46a12.6,12.6,0,0,0,5,.7c2,0,4.19-.16,6-.28h.08a.86.86,0,0,1,.86.9,1,1,0,0,1-1,1c-1.42.14-3,.22-4.49.22-4.26,0-7.8-.36-9.78-3-.68,2.58-1.3,3.14-2,3.14a.86.86,0,0,1-.94-.74.76.76,0,0,1,.18-.48,9,9,0,0,0,1.52-5.2v-.32a.74.74,0,0,1,.82-.72.82.82,0,0,1,.9.78c0,.38-.1,1.3-.12,1.44a4.13,4.13,0,0,0,1.12,1.58v-4.4h-2.92a.76.76,0,1,1,0-1.52h7.18a.76.76,0,0,1,0,1.52h-2.54V90h2a.76.76,0,0,1,0,1.52Zm.82-5.38c-.6,0-1.24.06-1.88.06-3,0-3.66-.1-3.66-2.54,0-.7,0-1.44.06-2.1a1.8,1.8,0,0,1,1.82-1.76c.62,0,1.22,0,1.82,0s1.2,0,1.8,0a1.89,1.89,0,0,1,1.78,1.62c.06.64.08,1.34.08,2,0,.34,0,.68,0,1A1.71,1.71,0,0,1,633.91,86.09Zm.14-2.5H630v.48c0,.54.28.68,2,.68s2.06,0,2.08-.7ZM634,82c0-.8-.22-.8-2-.8s-2,0-2.06.8v.26h4Zm7.17-.38c-.1.36-.2.7-.3,1,1.76,0,2.86.16,2.94,1.5,0,.8.06,1.7.06,2.58s0,1.78-.06,2.54A1.83,1.83,0,0,1,642,90.77,9.61,9.61,0,0,0,644.4,92a.85.85,0,0,1,.66.84.92.92,0,0,1-.9.94c-.84,0-2.54-1.2-3.26-1.72a.64.64,0,0,1-.29-.56.91.91,0,0,1,.37-.7h-1.63a.8.8,0,0,1,.32.62c0,.94-3.28,2.58-4.08,2.58a.85.85,0,0,1-.88-.84.89.89,0,0,1,.74-.86,6.51,6.51,0,0,0,2.88-1.58,1.54,1.54,0,0,1-1.38-1.5c0-.76,0-1.62,0-2.5s0-1.78,0-2.62.54-1.42,1.92-1.48l.2,0c.08-.34.17-.62.23-1H637a.79.79,0,0,1-.86-.78A.78.78,0,0,1,637,80h7a.79.79,0,0,1,.88.78.8.8,0,0,1-.88.78Zm1,4.5h-3.55v1.1h3.55Zm0-1.66c0-.58-.28-.64-1.68-.64s-1.75.08-1.79.66c0,.14,0,.3,0,.44h3.51Zm-3.49,4,0,.56c0,.4,0,.64,1.75.64,1.24,0,1.68,0,1.72-.66,0-.18,0-.36,0-.54Z"/><path class="cls-2" d="M649.85,95.85a1.06,1.06,0,0,1,.58-.84,4.37,4.37,0,0,0,1.7-2,.87.87,0,0,1,.9-.68.92.92,0,0,1,1,.84c0,1-1.66,3.58-3.06,3.58A1,1,0,0,1,649.85,95.85Zm9.06-12.76,0,1.84c1,0,2.06,0,3,0A2.06,2.06,0,0,1,664,86.69c0,.4,0,.86,0,1.34s0,1,0,1.42a2.14,2.14,0,0,1-2.24,2c-1.17,0-2.41.06-3.63.06s-2.4,0-3.52-.06c-1.46-.06-2.22-.84-2.28-1.94,0-.42,0-.82,0-1.2s0-1,0-1.42c0-.9.64-1.84,2.24-1.88.66,0,1.5,0,2.4,0l0-5a.87.87,0,0,1,1-.84.9.9,0,0,1,1,.84v1.46l5.85,0a.89.89,0,1,1,0,1.78Zm3.18,5.14c0-1.18,0-1.62-.94-1.64-.74,0-1.68,0-2.66,0-1.18,0-2.42,0-3.36,0s-.92.52-.92,1.54,0,1.56.94,1.6,1.9,0,3,0,2.16,0,3.08,0C662,89.69,662.09,89.39,662.09,88.23Zm-5.52,8.4a.84.84,0,0,1-.88-.9v-.3a6.08,6.08,0,0,0-.4-2.2.79.79,0,0,1-.06-.28c0-.42.42-.64.86-.64a1,1,0,0,1,.84.38,5.73,5.73,0,0,1,.74,2.86A1.08,1.08,0,0,1,656.57,96.63Zm4.28,0a.89.89,0,0,1-.9-.78,6.63,6.63,0,0,0-1-2.42.69.69,0,0,1-.14-.4c0-.4.44-.68.9-.68,1.3,0,2.25,2.72,2.25,3.24A1.07,1.07,0,0,1,660.85,96.59Zm4.77-.14a1,1,0,0,1-.88-.56,7.33,7.33,0,0,0-1.94-2.32.65.65,0,0,1-.28-.5c0-.4.5-.76,1-.76,1,0,3.18,2.18,3.18,3.08A1.11,1.11,0,0,1,665.62,96.45Z"/><path class="cls-3" d="M754.6,27.12c-1.2-1.4-2.4-2.79-3.68-4.1a54.88,54.88,0,0,0-4.06-3.72A49,49,0,0,0,742.55,16a41.29,41.29,0,0,0-4.65-2.69,59.81,59.81,0,0,0-9.84-3.86,65,65,0,0,0-10.23-2.22,57.22,57.22,0,0,0-10.3-.5,33.11,33.11,0,0,0-5,.67A19.89,19.89,0,0,0,697.56,9a9.19,9.19,0,0,0-2.08,1.41A5.41,5.41,0,0,0,694,12.61a3,3,0,0,0-.09,1.11,5.44,5.44,0,0,0,.22,1.33,10.82,10.82,0,0,0,1.37,2.66.87.87,0,0,0,.62.33,1,1,0,0,0,.67-.21.92.92,0,0,0,.32-.62,1,1,0,0,0-.2-.67l0-.06.06.09-.08-.12v0h0a10,10,0,0,1-1-1.84,5.22,5.22,0,0,1-.16-1c0-.13,0-.25,0-.37l.11-.24a5.21,5.21,0,0,1,.62-.86,6.61,6.61,0,0,1,1.12-.92,14.48,14.48,0,0,1,3.23-1.4,31.24,31.24,0,0,1,7.57-1.15,54.43,54.43,0,0,1,7,.32,63.16,63.16,0,0,1,7.37,1.18l-.25-.06a63,63,0,0,1,14.79,5.26,41.34,41.34,0,0,1,5.44,3.41,60.83,60.83,0,0,1,5,4.21,50.92,50.92,0,0,1,4.14,4.42l2,2.37a27.13,27.13,0,0,1,1.89,2.52,22.9,22.9,0,0,1,2.22,5c.23.78.44,1.56.6,2.35a14.07,14.07,0,0,1,.23,2.25,16.72,16.72,0,0,1,0,1.73,14,14,0,0,1-.3,1.83,15.29,15.29,0,0,1-1.17,3.37,15.66,15.66,0,0,1-2.07,2.86,19.11,19.11,0,0,1-3.57,3,28.23,28.23,0,0,1-6.18,2.67,34.75,34.75,0,0,1-4.84,1c-.78.11-1.56.19-2.34.26a13.31,13.31,0,0,0,2.42-1.28,8.66,8.66,0,0,0,1.81-1.66A9,9,0,0,0,744,53.37a7.64,7.64,0,0,0,.58-2.36,10.86,10.86,0,0,0-.09-2.67,14,14,0,0,0-1.77-4.81,22.09,22.09,0,0,0-3.42-4.23,38.21,38.21,0,0,0-8.74-6.41,49.51,49.51,0,0,0-4.91-2.4c-1.6-.68-3.24-1.26-4.9-1.79a49.55,49.55,0,0,0-10.22-2.14,36.07,36.07,0,0,0-10.27.26,29.54,29.54,0,0,0-4.88,1.51A14.65,14.65,0,0,0,691,31,10.17,10.17,0,0,0,688.4,35a10.48,10.48,0,0,0-.54,2.26,6.27,6.27,0,0,0,.18,2.4,12,12,0,0,0,.83,2.18,9.7,9.7,0,0,0,1.59,2.26c.58.63,1.21,1.22,1.82,1.82s1,1,1.53,1.41a5.91,5.91,0,0,0-1.2,1.88,3.7,3.7,0,0,0,0,2.28,4.75,4.75,0,0,0,.23.63,3.48,3.48,0,0,0,.33.55,2.42,2.42,0,0,0,.48.48,4.81,4.81,0,0,0,.75.45,11.46,11.46,0,0,0,1.09.46c.39.16.76.34,1.15.51.88.36,1.78.67,2.67,1,1.68.62,3.34,1.28,5,1.83s3.4,1,5.12,1.44A62.28,62.28,0,0,0,720,60.46l.84,0a8.72,8.72,0,0,1-1,.36,20.57,20.57,0,0,1-4.6.76c-1,0-2.06,0-3.09-.06s-2.28-.13-3.41-.26l-.07,0a25,25,0,0,0-2.43-1.35,24.23,24.23,0,0,0-2.48-1,10,10,0,0,0-2.59-.58,3.85,3.85,0,0,0-1.47.15,8.57,8.57,0,0,0-1.12.59,1.24,1.24,0,0,0-.72,1,1.26,1.26,0,0,0,.52,1.13c.3.24.58.5.9.71a4.1,4.1,0,0,0,1.14.49c.4.13.81.2,1.22.29s.93.19,1.4.27c.85.15,1.7.26,2.56.37l2.21.31A24.86,24.86,0,0,1,711,66.07a15.89,15.89,0,0,1,2.12,2.37,5.6,5.6,0,0,1,.4.9,4.83,4.83,0,0,1,.13.76c0,.1,0,.21,0,.31s-.08.22-.13.33a4.67,4.67,0,0,1-.36.51l-.33.28a3.85,3.85,0,0,1-.52.22,8.35,8.35,0,0,1-1.57.21,25.4,25.4,0,0,1-4.35-.25c-.79-.12-1.58-.28-2.37-.43s-1.52-.29-2.28-.46c-2.07-.47-4.13-1-6.19-1.5-1.49-.37-3-.78-4.44-1.24a1.26,1.26,0,1,0-.87,2.37c2.78.85,5.62,1.46,8.44,2.12l2.64.62c.88.19,1.78.35,2.67.52a27.49,27.49,0,0,0,4.94.63,11,11,0,0,0,4.83-.59,4.34,4.34,0,0,0,1.71-1.58,4.46,4.46,0,0,0,.48-1,4.21,4.21,0,0,0,.12-1.46,5.53,5.53,0,0,0-.27-1.19,4.88,4.88,0,0,0-.51-1.17A13.23,13.23,0,0,0,713.49,65c-.33-.34-.68-.68-1-1l1.17,0c.86,0,1.71,0,2.56,0a20.74,20.74,0,0,0,2.61-.36,11.63,11.63,0,0,0,4.92-1.93,6.53,6.53,0,0,0,1.14-1.15h1.5a57.13,57.13,0,0,0,8.37.45,43.2,43.2,0,0,0,10.38-1.28,26.71,26.71,0,0,0,9.6-4.47,19.17,19.17,0,0,0,3.64-3.78,14.08,14.08,0,0,0,2.19-4.65,23.05,23.05,0,0,0,.52-2.47,15.44,15.44,0,0,0,.1-2.72,16.8,16.8,0,0,0-.24-2.45c-.18-.92-.46-1.83-.73-2.73a22.34,22.34,0,0,0-2.16-4.9,21.34,21.34,0,0,0-2.09-2.9c-.44-.53-.89-1.05-1.33-1.57ZM737.22,15.26l-.07,0,.07,0Zm3,29.54a13.87,13.87,0,0,1,1.24,2.75,11.1,11.1,0,0,1,.4,2.36,9.67,9.67,0,0,1-.14,1.7,6.42,6.42,0,0,1-.45,1.2,8.77,8.77,0,0,1-1,1.5,8.12,8.12,0,0,1-1.33,1.09,14.72,14.72,0,0,1-3.17,1.34,34.2,34.2,0,0,1-4.1.93,38.4,38.4,0,0,1-4.29.38l-1.36,0a2.11,2.11,0,0,0,0-.25,7,7,0,0,0-1.15-3.49c-.26-.41-.54-.8-.84-1.19a19.91,19.91,0,0,0-4-3.71,35.74,35.74,0,0,0-4.68-2.8,23.92,23.92,0,0,0-4.74-1.89,27.89,27.89,0,0,0-5-.9,21.34,21.34,0,0,0-5.11.26,12.9,12.9,0,0,0-4.75,1.67L694.9,45c-.6-.57-1.18-1.16-1.76-1.75a12.93,12.93,0,0,1-1.64-1.91,10.38,10.38,0,0,1-.85-1.93,6.94,6.94,0,0,1-.24-1.27,8,8,0,0,1,.13-1.2,11.15,11.15,0,0,1,.77-2.09,9.37,9.37,0,0,1,1.06-1.54,10.67,10.67,0,0,1,1.74-1.4A19.85,19.85,0,0,1,698.52,30a24.21,24.21,0,0,1,2.92-.67,26,26,0,0,1,3-.3,47.66,47.66,0,0,1,5.34.2,43.22,43.22,0,0,1,5.66.87l-.07,0A54.12,54.12,0,0,1,728,34.64a41.12,41.12,0,0,1,8.48,5.78,23.68,23.68,0,0,1,3.8,4.38Zm-32-36.19h0Zm-10.77,2.6-.06,0,.06,0Zm38,47.52h0ZM704.66,29.05h0Zm18.11,26.76a7.72,7.72,0,0,1,.59,1.31,4.52,4.52,0,0,1,.12.64.22.22,0,0,1,0,.08c-1.36-.23-2.72-.5-4.06-.8a64.27,64.27,0,0,1-15-5.38,47.85,47.85,0,0,1-4.85-2.95c-.55-.38-1.09-.77-1.63-1.17a11.72,11.72,0,0,1,1.17-.44,19,19,0,0,1,4.37-.68,23.13,23.13,0,0,1,5.3.57,23.84,23.84,0,0,1,2.88.86c1,.37,1.9.81,2.81,1.27s2,1.1,3,1.73a23.6,23.6,0,0,1,3,2.28,15.89,15.89,0,0,1,2.3,2.68Zm-7.28,5.82h0ZM698.92,51.18A49.61,49.61,0,0,0,703.71,54q2.06,1,4.19,1.93c-1.6-.45-3.18-1-4.74-1.52l-4-1.52c-.68-.25-1.36-.51-2-.81l-.93-.41c-.24-.09-.48-.19-.71-.3l-.24-.16-.05,0-.09-.21a3.81,3.81,0,0,1-.07-.47,1.55,1.55,0,0,1,0-.22l.12-.32a6,6,0,0,1,.56-.76,1.59,1.59,0,0,1,.13-.13c1,.76,2,1.49,3.1,2.18Zm-2.06-34.73,0,0,0,0Z"/><path class="cls-2" d="M538,137.49h-5.21V140c0,.79-.22,1.13-.77,1.31a9,9,0,0,1-2.75.21,5.33,5.33,0,0,0-.51-1.2c1,0,2.08,0,2.38,0s.39-.09.39-.36v-2.54h-5.23v-1.18h5.23v-1.85h-4.34v-1.15h4.34v-1.77c-1.39.11-2.81.21-4.12.26a3.47,3.47,0,0,0-.29-1.06,45.88,45.88,0,0,0,8.76-1.06l.9,1a27.35,27.35,0,0,1-4,.72v1.92h4.47v1.15h-4.47v1.85H538Z"/><path class="cls-2" d="M542.35,134.71v6.89h-1.2V130.19H546v4.52Zm0-3.61V132h2.45v-.89Zm2.45,2.71v-1h-2.45v1Zm7.09,6.28c0,.69-.14,1.08-.61,1.29a6.71,6.71,0,0,1-2.26.21,6.3,6.3,0,0,0-.38-1.19h-3.51v.65H544v-5.44h4.88v4.75c.64,0,1.26,0,1.47,0s.3-.08.3-.3v-5.34H547v-4.55h4.92Zm-6.76-3.57v1h2.64v-1Zm2.64,3v-1.08h-2.64v1.08Zm.36-8.39V132h2.54v-.89Zm2.54,2.74v-1h-2.54v1Z"/><path class="cls-2" d="M560,130.48c-.07.28-.14.6-.2.89s-.18,1-.3,1.6c.52,0,1-.07,1.29-.07,1.24,0,2.19.52,2.19,2.32a12.68,12.68,0,0,1-.73,4.66,1.94,1.94,0,0,1-2,1.12,7.46,7.46,0,0,1-1.54-.19l-.22-1.36a6.93,6.93,0,0,0,1.59.28,1,1,0,0,0,1.05-.61,10.37,10.37,0,0,0,.57-3.76c0-1.11-.49-1.29-1.31-1.29-.26,0-.69,0-1.17.07a26.36,26.36,0,0,1-2.65,6.9l-1.34-.53a20,20,0,0,0,2.67-6.23l-1.41.16c-.34,0-.91.11-1.27.18l-.13-1.41a10.43,10.43,0,0,0,1.25,0c.41,0,1.1-.06,1.82-.13a15.34,15.34,0,0,0,.31-2.75Zm4.63,1.68a24.18,24.18,0,0,1,2.12,4.36l-1.29.61a15.05,15.05,0,0,0-2.25-4.73l1.21-.54.21.29a14.93,14.93,0,0,0-1-1.8l.84-.35a18,18,0,0,1,1,1.8Zm1.5-.56a11.09,11.09,0,0,0-1.06-1.79l.84-.35a16.91,16.91,0,0,1,1.08,1.78Z"/><path class="cls-2" d="M573.94,130.42c-.07.27-.13.6-.19.88s-.19,1-.31,1.6c.54,0,1-.06,1.29-.06,1.25,0,2.2.52,2.2,2.31a12.55,12.55,0,0,1-.74,4.67,1.93,1.93,0,0,1-2,1.12,6.65,6.65,0,0,1-1.52-.2l-.23-1.35a6.68,6.68,0,0,0,1.59.27,1,1,0,0,0,1.05-.61,10.31,10.31,0,0,0,.58-3.76c0-1.1-.5-1.28-1.32-1.28-.26,0-.69,0-1.17.06a27.28,27.28,0,0,1-2.65,6.91l-1.34-.54a19.78,19.78,0,0,0,2.65-6.22l-1.39.15-1.28.18-.12-1.4c.43,0,.8,0,1.23,0s1.11-.07,1.84-.13a14.53,14.53,0,0,0,.3-2.76Zm4.43,1.29a22.87,22.87,0,0,1,2.31,4.68l-1.27.61a15.25,15.25,0,0,0-2.25-4.77Z"/><path class="cls-2" d="M587.82,130.42c-.06.27-.13.6-.18.88s-.2,1-.31,1.6c.53,0,1-.06,1.28-.06,1.25,0,2.2.52,2.2,2.31a12.35,12.35,0,0,1-.74,4.67,1.93,1.93,0,0,1-2,1.12,6.72,6.72,0,0,1-1.52-.2l-.22-1.35a6.6,6.6,0,0,0,1.58.27,1,1,0,0,0,1.06-.61,10.33,10.33,0,0,0,.57-3.76c0-1.1-.49-1.28-1.31-1.28-.26,0-.69,0-1.17.06a27,27,0,0,1-2.66,6.91l-1.33-.54a20.25,20.25,0,0,0,2.65-6.22l-1.39.15-1.29.18-.12-1.4c.43,0,.81,0,1.24,0s1.1-.07,1.83-.13a14.53,14.53,0,0,0,.3-2.76Zm4.43,1.29a22.91,22.91,0,0,1,2.32,4.68l-1.28.61a15.45,15.45,0,0,0-2.24-4.77Z"/><path class="cls-2" d="M605.33,131.6c-.26.17-.56.37-.79.54-.66.46-2.22,1.83-3.13,2.58a4.74,4.74,0,0,1,1.52-.22c2.15,0,3.75,1.33,3.75,3.12,0,2.07-1.65,3.54-4.53,3.54-1.78,0-3-.81-3-2a2,2,0,0,1,2.13-1.83,2.59,2.59,0,0,1,2.71,2.26,2.1,2.1,0,0,0,1.35-2c0-1.21-1.22-2.07-2.8-2.07-2,0-3.27,1-4.79,2.58l-.95-1c1-.82,2.61-2.17,3.36-2.79s2.2-1.83,2.85-2.39c-.68,0-2.87.11-3.55.15-.32,0-.66,0-1,.09l0-1.34a9.22,9.22,0,0,0,1,.07c.68,0,3.59-.08,4.29-.14a5.75,5.75,0,0,0,.82-.13Zm-2.51,8.34a1.55,1.55,0,0,0-1.52-1.58c-.53,0-.92.31-.92.72s.66.91,1.53.91A8.46,8.46,0,0,0,602.82,139.94Z"/><path class="cls-2" d="M537.47,177.57v5.37h-1.24v-.77h-7.69v.8h-1.22v-5.4h1.22V181h3.14v-4.2h-3.87v-4.54H529v3.37h2.66v-4.5h1.23v4.5h2.78v-3.38H537v4.55h-4.06V181h3.32v-3.42Z"/><path class="cls-2" d="M548.09,177.87a12.64,12.64,0,0,0,4.62,3.6,6.13,6.13,0,0,0-.85,1,14,14,0,0,1-4.56-3.91V183H546v-4.36a13.82,13.82,0,0,1-4.55,3.85,6,6,0,0,0-.86-1,12.66,12.66,0,0,0,4.65-3.58h-4.34V176.7H546v-3h-4.49v-1.15H546V171h1.27v1.5h4.59v1.15H547.3v3h5.11v1.17Zm-4.51-4a9.1,9.1,0,0,1,1.17,2.37l-1.14.45a9.68,9.68,0,0,0-1.09-2.42Zm5,2.48a16.32,16.32,0,0,0,1.23-2.52l1.26.38a22.59,22.59,0,0,1-1.45,2.49Z"/><path class="cls-2" d="M558,172.11c-.09.25-.22.76-.28,1a30.57,30.57,0,0,0-.63,4.85,8.92,8.92,0,0,0,.09,1.35c.19-.52.45-1.14.65-1.61l.67.52a25.85,25.85,0,0,0-.92,3,2,2,0,0,0-.06.59c0,.13,0,.32,0,.48l-1.17.08a16.14,16.14,0,0,1-.49-4.16,35.6,35.6,0,0,1,.56-5.14,9.23,9.23,0,0,0,.11-1.07Zm3,6.29a5.19,5.19,0,0,0-.15,1.15c0,.58.42,1,2,1a14.78,14.78,0,0,0,3.22-.34l0,1.38a17.87,17.87,0,0,1-3.26.26c-2.19,0-3.2-.76-3.2-2a7.68,7.68,0,0,1,.22-1.59Zm4.67-5.37v1.33a32.46,32.46,0,0,1-5.4,0v-1.31A23.75,23.75,0,0,0,565.62,173Z"/><path class="cls-2" d="M578.71,182.45c-.17-.46-.4-1-.68-1.63-2.06.25-6.22.7-7.91.86l-1.15.16-.23-1.51c.4,0,.91,0,1.3,0l.53,0c.73-1.86,2-5.74,2.33-7.06a8.19,8.19,0,0,0,.28-1.36l1.63.34c-.14.35-.31.74-.49,1.32-.39,1.23-1.58,4.91-2.23,6.63,1.77-.16,4-.41,5.36-.59A17.9,17.9,0,0,0,576,177l1.26-.55a38,38,0,0,1,2.86,5.34Z"/><path class="cls-2" d="M591.72,175.71a4.49,4.49,0,0,0-.19.44,9.41,9.41,0,0,1-1.91,3.66,9.63,9.63,0,0,1-4.66,2.77l-1-1.17a8.87,8.87,0,0,0,4.55-2.34,6.15,6.15,0,0,0,1.44-2.6h-6.62c-.31,0-.88,0-1.37.05v-1.35c.5.05,1,.09,1.37.09H590a2.43,2.43,0,0,0,.83-.12Zm-8.59-3.57a11.78,11.78,0,0,0,1.23.06h5.08a12.3,12.3,0,0,0,1.27-.06v1.34c-.33,0-.85,0-1.29,0h-5.06c-.4,0-.87,0-1.23,0Z"/><path class="cls-2" d="M599.33,171.85c-.07.27-.14.6-.2.89s-.18,1-.3,1.59c.52,0,1-.06,1.29-.06,1.24,0,2.19.52,2.19,2.31a12.73,12.73,0,0,1-.73,4.67,1.94,1.94,0,0,1-2,1.12,6.82,6.82,0,0,1-1.54-.2l-.22-1.35a6.84,6.84,0,0,0,1.59.27,1,1,0,0,0,1.05-.61,10.27,10.27,0,0,0,.57-3.75c0-1.11-.49-1.29-1.31-1.29-.26,0-.69,0-1.17.06a26.55,26.55,0,0,1-2.65,6.91l-1.34-.54a19.84,19.84,0,0,0,2.67-6.22l-1.41.15c-.34,0-.91.12-1.27.19l-.13-1.41c.44,0,.8,0,1.25,0s1.1-.06,1.82-.13a15.44,15.44,0,0,0,.31-2.75Zm4.63,1.68a24.43,24.43,0,0,1,2.12,4.35l-1.29.61a15.16,15.16,0,0,0-2.25-4.73l1.21-.53.21.29a14.93,14.93,0,0,0-1-1.8l.84-.35a19,19,0,0,1,1,1.79Zm1.5-.56a11.09,11.09,0,0,0-1.06-1.79l.84-.36a17,17,0,0,1,1.08,1.79Z"/><path class="cls-2" d="M617.05,174.8c-.08.17-.17.48-.25.72a3.26,3.26,0,0,1,2.54,3.09c0,1.83-1.17,3.51-4.23,4l-.69-1.08c2.39-.26,3.64-1.48,3.64-3a2.12,2.12,0,0,0-1.62-2,10.45,10.45,0,0,1-2.79,4.06c.1.35.2.69.3,1l-1.18.35c-.06-.2-.13-.4-.18-.62a4.61,4.61,0,0,1-2.09.62,1.56,1.56,0,0,1-1.63-1.74c0-1.65,1.42-3.38,3.2-4.2,0-.6.08-1.2.13-1.76h-.63c-.61,0-1.61-.05-2.15-.09l0-1.19a21.68,21.68,0,0,0,2.23.17h.71l.09-.88a5.2,5.2,0,0,0,0-.67l1.35,0c-.06.19-.11.43-.15.61s-.11.54-.16.86a25.06,25.06,0,0,0,4.45-.55v1.2a40,40,0,0,1-4.6.46c0,.45-.08.91-.12,1.4a8,8,0,0,1,2.06-.29h.36a4.12,4.12,0,0,0,.14-.83Zm-4.73,5.32a16,16,0,0,1-.29-2.9,3.79,3.79,0,0,0-1.94,2.74c0,.48.21.72.67.72A3.16,3.16,0,0,0,612.32,180.12Zm.85-3.11a13.08,13.08,0,0,0,.2,2.25,8.33,8.33,0,0,0,1.92-2.9h-.08a6.79,6.79,0,0,0-2,.34Z"/><path class="cls-2" d="M630.87,173c-.26.17-.56.36-.8.53-.66.47-2.22,1.84-3.13,2.59a4.74,4.74,0,0,1,1.52-.22c2.16,0,3.76,1.32,3.76,3.12,0,2.07-1.65,3.53-4.54,3.53-1.78,0-3-.8-3-2a2,2,0,0,1,2.14-1.83,2.57,2.57,0,0,1,2.7,2.26,2.1,2.1,0,0,0,1.35-2c0-1.21-1.22-2.07-2.79-2.07-2.06,0-3.28,1-4.8,2.57l-.95-1,3.37-2.79c.71-.6,2.2-1.84,2.85-2.4l-3.55.16c-.33,0-.67,0-.95.09l0-1.34a8.91,8.91,0,0,0,1,.07c.67,0,3.58-.08,4.29-.15a3.64,3.64,0,0,0,.81-.13Zm-2.51,8.33a1.56,1.56,0,0,0-1.52-1.57c-.54,0-.93.31-.93.71,0,.56.67.91,1.54.91A6.66,6.66,0,0,0,628.36,181.3Z"/><path class="cls-2" d="M535.65,218.42a7.64,7.64,0,0,1-1.78,3.22,24.41,24.41,0,0,1,3.47,1.71l-1,1a23.53,23.53,0,0,0-3.53-1.83,12.87,12.87,0,0,1-5.4,1.85,4.78,4.78,0,0,0-.7-1.11,13,13,0,0,0,4.77-1.27c-.73-.29-1.47-.55-2.17-.78l-.29.5-1.26-.33c.48-.78,1.07-1.85,1.64-2.94h-3v-1.16h3.58c.35-.7.69-1.39,1-2l1.26.27c-.26.55-.54,1.13-.84,1.73h6.47v1.16ZM528,216.55h-1.23v-2.88h4.71v-1.28h1.29v1.28h4.84v2.88h-1.29v-1.76H528Zm2.82,1.87c-.32.64-.65,1.25-1,1.82.88.26,1.83.57,2.78.93a5.64,5.64,0,0,0,1.61-2.75Z"/><path class="cls-2" d="M547.08,222.9H552V224H541v-1.1h4.77V221h-3.71V220h3.71v-1.8h-3.1v-1a14.09,14.09,0,0,1-1.5,1,4.75,4.75,0,0,0-.76-1,14.81,14.81,0,0,0,5.31-4.84H547a15.31,15.31,0,0,0,5.56,4.69,7.58,7.58,0,0,0-.79,1.07,15.42,15.42,0,0,1-1.43-.91v1h-3.25V220h3.78V221h-3.78Zm3.09-5.79a17.08,17.08,0,0,1-3.74-3.55,15.91,15.91,0,0,1-3.59,3.55Z"/><path class="cls-2" d="M554.66,218.21a15.54,15.54,0,0,0,.65-3.35l.87.13a16.92,16.92,0,0,1-.61,3.53Zm12,4.54v1.14h-8v-1.14h3.62V219.8h-2.64v-1.13h2.64v-2.45h-1.69a12.12,12.12,0,0,1-.84,1.93,6.11,6.11,0,0,0-1.08-.56,6.27,6.27,0,0,0,.49-.9l-.73.35a12.55,12.55,0,0,0-.78-2v9.32h-1.21V212.4h1.21v2.4l.76-.31a11.79,11.79,0,0,1,.85,1.95,15.37,15.37,0,0,0,.86-3.46l1.18.2a16.38,16.38,0,0,1-.39,1.9h1.37v-2.63h1.21v2.63h2.8v1.14h-2.8v2.45H566v1.13h-2.52v2.95Z"/><path class="cls-2" d="M572.1,213.48a9.1,9.1,0,0,0-.27,1,30.52,30.52,0,0,0-.64,4.85,10.43,10.43,0,0,0,.09,1.35c.2-.52.46-1.15.65-1.61l.68.52a24,24,0,0,0-.92,3,2.47,2.47,0,0,0-.07.58c0,.13,0,.33,0,.48l-1.17.08a16,16,0,0,1-.5-4.16,36.91,36.91,0,0,1,.56-5.13,7.62,7.62,0,0,0,.12-1.07Zm3,6.29a4.58,4.58,0,0,0-.16,1.14c0,.59.43,1,2,1a14.69,14.69,0,0,0,3.21-.33l0,1.37a17.13,17.13,0,0,1-3.27.26c-2.18,0-3.19-.75-3.19-2a7.68,7.68,0,0,1,.22-1.58Zm4.67-5.37v1.33a33.57,33.57,0,0,1-5.4,0v-1.32A23.76,23.76,0,0,0,579.74,214.4Z"/><path class="cls-2" d="M585.31,217.25a11.48,11.48,0,0,1-1.45,5l-1.12-.65a10,10,0,0,0,1.39-4.61ZM587.6,216v6.31c0,.62.13.72.79.72h2.11c.71,0,.83-.44.93-2.57a3.44,3.44,0,0,0,1.12.52c-.15,2.44-.49,3.15-2,3.15h-2.33c-1.49,0-1.91-.4-1.91-1.82V216Zm-.39-3.58a20.56,20.56,0,0,1,4.38,2.19l-.79,1.06a19.81,19.81,0,0,0-4.37-2.33Zm5.47,4.1a13.7,13.7,0,0,1,2.39,4.73l-1.2.58a14,14,0,0,0-2.28-4.75Z"/><path class="cls-2" d="M597.41,212.89h5.83V214h-1.69v1.3H603v8.84h-1v-.68h-3.34v.86h-.95v-9h1.52V214h-1.81Zm1.24,7.56H602v-1.07h-.68c-.53,0-.68-.15-.68-.83v-2.29H600v1a3.35,3.35,0,0,1-.88,2.47,2.79,2.79,0,0,0-.48-.43,2.65,2.65,0,0,0,.75-2.05v-1h-.75Zm3.34,2v-1.14h-3.34v1.14ZM600.7,214h-.65v1.3h.65Zm1.29,2.31h-.75v2.28c0,.17,0,.19.14.19h.36c.13,0,.17,0,.19,0l.06.06Zm5.46,6.79c.53,0,.62-.33.7-2.13a3.16,3.16,0,0,0,1.09.5c-.13,2.14-.45,2.75-1.7,2.75h-2c-1.29,0-1.69-.35-1.69-1.72V217h3.75v-2.83H603.8V213h5v6h-1.17v-.86H605v4.34c0,.51.11.6.65.6Z"/><path class="cls-2" d="M616.67,213.22c-.07.27-.14.6-.2.88s-.18,1-.3,1.6c.52,0,1-.06,1.29-.06,1.24,0,2.19.52,2.19,2.31a12.77,12.77,0,0,1-.73,4.67,2,2,0,0,1-2,1.12,7.45,7.45,0,0,1-1.54-.2l-.22-1.35a7.42,7.42,0,0,0,1.59.27,1,1,0,0,0,1-.61,10.37,10.37,0,0,0,.57-3.76c0-1.1-.49-1.28-1.31-1.28-.26,0-.69,0-1.17.06a26.36,26.36,0,0,1-2.65,6.9l-1.34-.53a19.53,19.53,0,0,0,2.66-6.23l-1.4.16-1.27.18-.13-1.4c.44,0,.8,0,1.24,0s1.11-.07,1.82-.13a14.72,14.72,0,0,0,.32-2.76Zm4.63,1.68a24.43,24.43,0,0,1,2.12,4.35l-1.29.61a15.05,15.05,0,0,0-2.25-4.73l1.21-.53c.06.09.13.18.21.28a14.09,14.09,0,0,0-1-1.79l.84-.35a16.77,16.77,0,0,1,1,1.79Zm1.5-.56a12.49,12.49,0,0,0-1.06-1.8l.84-.35a16.91,16.91,0,0,1,1.08,1.78Z"/><path class="cls-2" d="M634.39,216.17c-.08.17-.17.48-.25.71a3.26,3.26,0,0,1,2.54,3.1c0,1.83-1.17,3.51-4.23,4l-.69-1.08c2.39-.26,3.64-1.48,3.64-3a2.12,2.12,0,0,0-1.62-2,10.41,10.41,0,0,1-2.79,4c.1.36.2.69.3,1l-1.18.35c-.06-.2-.13-.41-.18-.63a4.48,4.48,0,0,1-2.09.63,1.56,1.56,0,0,1-1.63-1.75c0-1.65,1.42-3.38,3.2-4.19,0-.6.08-1.2.13-1.76h-.63c-.61,0-1.61-.05-2.15-.09l0-1.2a19.19,19.19,0,0,0,2.23.17h.7l.1-.87c0-.22,0-.49,0-.68l1.35,0c-.06.2-.11.43-.15.62s-.11.54-.16.85a24.2,24.2,0,0,0,4.45-.54v1.19a42.18,42.18,0,0,1-4.6.47c0,.44-.08.91-.12,1.39a8.42,8.42,0,0,1,2.06-.28H633a4.12,4.12,0,0,0,.14-.83Zm-4.74,5.32a17,17,0,0,1-.28-2.9,3.78,3.78,0,0,0-1.94,2.74c0,.48.21.72.66.72A3.09,3.09,0,0,0,629.65,221.49Zm.86-3.11a13.08,13.08,0,0,0,.2,2.25,8.33,8.33,0,0,0,1.92-2.9h-.08a6.79,6.79,0,0,0-2,.34Z"/><path class="cls-2" d="M648.21,214.34c-.26.16-.56.36-.8.53-.66.47-2.22,1.83-3.13,2.59a4.74,4.74,0,0,1,1.52-.22c2.16,0,3.76,1.32,3.76,3.12,0,2.06-1.65,3.53-4.54,3.53-1.78,0-3-.8-3-2a2,2,0,0,1,2.14-1.83,2.56,2.56,0,0,1,2.7,2.26,2.11,2.11,0,0,0,1.35-2c0-1.21-1.22-2.06-2.79-2.06-2.06,0-3.28,1-4.8,2.57l-.95-1c1-.82,2.61-2.17,3.37-2.8s2.19-1.83,2.84-2.39l-3.54.16c-.33,0-.67,0-1,.09l0-1.34a8.85,8.85,0,0,0,1,.06c.68,0,3.59-.07,4.29-.14a4.38,4.38,0,0,0,.82-.13Zm-2.51,8.33a1.56,1.56,0,0,0-1.52-1.57c-.54,0-.93.31-.93.71,0,.56.67.91,1.54.91A6.66,6.66,0,0,0,645.7,222.67Z"/><path class="cls-4" d="M491.35,125.49c.21.44.45.88.68,1.31l.68,1.28.51.95.26.49c.28.47.55.95.83,1.43l.48.82a2.07,2.07,0,0,0,.15.25l.95,1.36.88,1.25.29.42.12.17h0l0,0,0,0h0c.76.93,1.54,1.86,2.31,2.79l.32.39a3.76,3.76,0,0,0,.28.29c.5.52,1,1,1.52,1.55l.6.6.22.2,1.7,1.35.21.17.08.06.5.3.83.5.25.15c.16.1.34.18.52.28a.36.36,0,0,0,.24,0,.9.9,0,0,0,.34-.11c.2-.11.32-.29.2-.35s-.39-.2-.57-.31l-.44-.26-1-.6A3,3,0,0,1,505,142l-.89-.71-.82-.66-.23-.2L501.64,139l-.68-.69c-.08-.09-.18-.17-.26-.26-.27-.35-.56-.68-.84-1l-1.39-1.7-.41-.51-.22-.31-.54-.78L496.08,132c-.09-.13-.18-.25-.26-.38s-.14-.24-.21-.36l-1-1.79c-.44-.76-.84-1.54-1.25-2.32s-.74-1.35-1.08-2c-.05-.1-.28-.11-.53,0s-.41.27-.37.37Z"/><path class="cls-5" d="M506.8,126.69c-.39.27-.77.56-1.16.85l-1.12.83-.83.63a4.35,4.35,0,0,0-.43.32l-1.25,1-.72.58-.22.18-1.16,1.11-1.07,1-.36.35-.14.14h0l0,0,0,0h0l-2.34,2.6-.33.37c-.08.09-.15.2-.23.3-.42.56-.84,1.12-1.27,1.67-.16.22-.32.44-.49.65l-.15.25-1.06,1.81a2.53,2.53,0,0,0-.13.22.35.35,0,0,0-.05.08c-.07.18-.14.35-.22.52l-.36.86c0,.08-.07.17-.1.26s-.13.35-.19.53a.36.36,0,0,0,0,.23,1,1,0,0,0,.16.3c.13.17.32.26.36.14s.13-.4.21-.59.13-.3.19-.45c.15-.34.29-.69.44-1a2.18,2.18,0,0,1,.2-.37c.18-.31.36-.63.55-.94l.51-.87a2.13,2.13,0,0,1,.16-.25l1.16-1.53.57-.74.21-.29.86-.94,1.42-1.58c.14-.15.29-.3.43-.46l.27-.26.66-.62,1.49-1.41.33-.31c.1-.1.21-.17.31-.26l1.56-1.24c.67-.53,1.36-1,2-1.54s1.18-.89,1.78-1.32c.09-.07.07-.28-.06-.5s-.31-.35-.4-.29Z"/><path class="cls-4" d="M491.35,167.19c.21.45.45.88.68,1.32l.68,1.27.51,1,.26.48c.28.48.55,1,.83,1.43l.48.83c0,.08.09.17.15.25l.95,1.36c.29.41.58.83.88,1.24l.29.43.12.17h0l0,0,0,0h0c.76.93,1.54,1.86,2.31,2.79l.32.39a3.76,3.76,0,0,0,.28.29l1.52,1.54.6.6a2.09,2.09,0,0,0,.22.2l1.7,1.36c.07.06.15.11.21.17l.08.06.5.3.83.5.25.15.52.27a.35.35,0,0,0,.24,0,1.16,1.16,0,0,0,.34-.12c.2-.11.32-.28.2-.34s-.39-.2-.57-.31l-.44-.26-1-.6a3,3,0,0,1-.34-.26l-.89-.71-.82-.66-.23-.2c-.46-.48-.93-.95-1.39-1.42L501,180l-.26-.27c-.27-.34-.56-.68-.84-1l-1.39-1.7c-.14-.16-.27-.33-.41-.5s-.15-.21-.22-.31l-.54-.78-1.22-1.74-.26-.38c-.08-.12-.14-.24-.21-.36-.35-.6-.69-1.2-1-1.79-.44-.76-.84-1.54-1.25-2.32s-.74-1.35-1.08-2c-.05-.1-.28-.11-.53,0s-.41.27-.37.37Z"/><path class="cls-5" d="M506.8,168.4c-.39.27-.77.56-1.16.85l-1.12.83-.83.62-.43.32L502,172l-.72.58c-.07.06-.15.11-.22.18l-1.16,1.1-1.07,1-.36.34-.14.14h0l0,0,0,0h0L496,178l-.33.36-.23.31-1.27,1.67c-.16.22-.32.44-.49.65l-.15.24-1.06,1.82a2.53,2.53,0,0,0-.13.22.35.35,0,0,0-.05.08l-.22.52-.36.85c0,.09-.07.18-.1.26s-.13.36-.19.53a.38.38,0,0,0,0,.24,1.1,1.1,0,0,0,.16.3c.13.17.32.26.36.14s.13-.41.21-.59.13-.3.19-.45c.15-.35.29-.69.44-1a2.18,2.18,0,0,1,.2-.37c.18-.31.36-.63.55-.94l.51-.88a2,2,0,0,1,.16-.24l1.16-1.53.57-.75.21-.28c.29-.31.57-.63.86-.95.47-.52.95-1,1.42-1.57l.43-.46.27-.26.66-.63,1.49-1.41.33-.31.31-.25,1.56-1.25c.67-.53,1.36-1,2-1.53s1.18-.9,1.78-1.33c.09-.06.07-.27-.06-.49s-.31-.35-.4-.29Z"/><path class="cls-4" d="M491.35,208.9c.21.44.45.88.68,1.32l.68,1.27.51.95.26.49.83,1.43.48.83c0,.08.09.17.15.25l.95,1.35.88,1.25.29.42.12.18h0l0,0,0,0h0c.76.94,1.54,1.86,2.31,2.79.1.14.21.27.32.4a2.47,2.47,0,0,0,.28.28c.5.52,1,1,1.52,1.55l.6.6a2.09,2.09,0,0,0,.22.2l1.7,1.36a1.73,1.73,0,0,1,.21.17l.08.05.5.31.83.49.25.15c.16.1.34.19.52.28a.43.43,0,0,0,.24,0,1.16,1.16,0,0,0,.34-.12c.2-.11.32-.28.2-.35l-.57-.3-.44-.27-1-.6a3,3,0,0,1-.34-.26l-.89-.71-.82-.65-.23-.2-1.39-1.43-.68-.69c-.08-.09-.18-.17-.26-.26-.27-.34-.56-.68-.84-1l-1.39-1.7c-.14-.17-.27-.34-.41-.5l-.22-.32-.54-.77-1.22-1.74c-.09-.13-.18-.26-.26-.39s-.14-.24-.21-.36l-1-1.78c-.44-.77-.84-1.55-1.25-2.32s-.74-1.35-1.08-2c-.05-.1-.28-.11-.53,0s-.41.26-.37.37Z"/><path class="cls-5" d="M506.8,210.11c-.39.27-.77.56-1.16.84l-1.12.84-.83.62-.43.32-1.25,1-.72.58a1.74,1.74,0,0,0-.22.18l-1.16,1.1-1.07,1-.36.35-.14.14h0l0,0,0,0h0l-2.34,2.6-.33.36c-.08.09-.15.2-.23.3l-1.27,1.68-.49.65-.15.24-1.06,1.81-.13.23a.22.22,0,0,0-.05.08c-.07.17-.14.34-.22.51l-.36.86c0,.09-.07.17-.1.26s-.13.35-.19.53a.36.36,0,0,0,0,.23,1,1,0,0,0,.16.3c.13.17.32.26.36.14s.13-.4.21-.59.13-.29.19-.44l.44-1a2.53,2.53,0,0,1,.2-.36l.55-1,.51-.87a2.13,2.13,0,0,1,.16-.25l1.16-1.53.57-.74.21-.29.86-.94,1.42-1.57.43-.47.27-.25.66-.63,1.49-1.41.33-.31.31-.25,1.56-1.25c.67-.53,1.36-1,2-1.53s1.18-.9,1.78-1.33c.09-.06.07-.27-.06-.49s-.31-.35-.4-.3Z"/></g></g></svg>