<svg xmlns="http://www.w3.org/2000/svg" viewBox="0 0 527.26 434.9"><defs><style>.cls-1,.cls-13,.cls-14{font-size:18.55px;}.cls-1,.cls-32,.cls-34{fill:#573001;}.cls-1,.cls-14,.cls-34{font-family:NotoSansCJKjp-Medium-83pv-RKSJ-H, Noto Sans CJK JP;}.cls-1,.cls-13,.cls-14,.cls-18{letter-spacing:0.1em;}.cls-2{letter-spacing:-0.01em;}.cls-3{letter-spacing:-0.03em;}.cls-4{letter-spacing:0.08em;}.cls-5{letter-spacing:0.06em;}.cls-6{letter-spacing:0.06em;}.cls-7{letter-spacing:0.06em;}.cls-8{letter-spacing:0.05em;}.cls-9{letter-spacing:0.05em;}.cls-10{letter-spacing:-0.39em;}.cls-11{font-size:26.49px;font-family:TsukuBRdGothicStd-B-83pv-RKSJ-H, FOT-TsukuBRdGothic Std;letter-spacing:0.06em;}.cls-12{letter-spacing:0.1em;}.cls-15{letter-spacing:0.08em;}.cls-16{letter-spacing:-0.17em;}.cls-17{letter-spacing:-0.15em;}.cls-19{letter-spacing:0.08em;}.cls-20{letter-spacing:0.07em;}.cls-21{letter-spacing:-0.02em;}.cls-22{letter-spacing:-0.05em;}.cls-23{letter-spacing:0.01em;}.cls-24{letter-spacing:0.06em;}.cls-25{letter-spacing:-0.02em;}.cls-26{letter-spacing:-0.01em;}.cls-27{letter-spacing:0.09em;}.cls-28{letter-spacing:0.08em;}.cls-29{letter-spacing:0.09em;}.cls-30{letter-spacing:0.05em;}.cls-31{fill:#fff;}.cls-32{font-size:32px;font-family:TsukuARdGothicStd-B-83pv-RKSJ-H, FOT-TsukuARdGothic Std;letter-spacing:0.1em;}.cls-33{letter-spacing:0.35em;}.cls-34{font-size:14px;}.cls-34,.cls-53{letter-spacing:0.1em;}.cls-35{letter-spacing:0.08em;}.cls-36{letter-spacing:0.08em;}.cls-37{letter-spacing:-0.17em;}.cls-38{letter-spacing:-0.15em;}.cls-39{letter-spacing:0.08em;}.cls-40{letter-spacing:0.07em;}.cls-41{letter-spacing:0.02em;}.cls-42{letter-spacing:0.08em;}.cls-43{letter-spacing:0.1em;}.cls-44{letter-spacing:0.1em;}.cls-45{letter-spacing:0.05em;}.cls-46{letter-spacing:0.09em;}.cls-47{letter-spacing:0.06em;}.cls-48{letter-spacing:-0.06em;}.cls-49{letter-spacing:-0.15em;}.cls-50{letter-spacing:-0.03em;}.cls-51{letter-spacing:0em;}.cls-52{letter-spacing:-0.01em;}.cls-54{fill:none;}</style></defs><g id="レイヤー_2" data-name="レイヤー 2"><g id="デザイン"><text class="cls-1" transform="translate(283.87 142.61)">1日分<tspan class="cls-2" x="53.23" y="0">/</tspan><tspan class="cls-3" x="60.31" y="0">３</tspan><tspan x="78.26" y="0">食9</tspan><tspan class="cls-4" x="111.09" y="0">品</tspan><tspan class="cls-5" x="131.19" y="0">の</tspan><tspan class="cls-6" x="150.83" y="0">お</tspan><tspan class="cls-7" x="170.57" y="0">か</tspan><tspan class="cls-8" x="190.19" y="0">ず</tspan><tspan class="cls-9" x="209.59" y="0">が</tspan><tspan class="cls-10" x="229.12" y="0">、</tspan><tspan class="cls-11"><tspan x="0" y="31.19">8</tspan><tspan class="cls-12" x="17.49" y="31.19">8</tspan><tspan x="36.03" y="31.19">0</tspan><tspan class="cls-13" x="53.52" y="31.19">円</tspan><tspan class="cls-14" x="73.92" y="31.19">(税別)〜</tspan></tspan><tspan class="cls-4"><tspan x="0" y="62.37">昼</tspan><tspan class="cls-15" x="20.1" y="62.37">の</tspan><tspan class="cls-16" x="40.06" y="62.37">み</tspan><tspan class="cls-17" x="55.49" y="62.37">・</tspan><tspan class="cls-18" x="71.25" y="62.37">朝</tspan><tspan x="91.65" y="62.37">夕</tspan><tspan class="cls-15" x="111.76" y="62.37">の</tspan><tspan class="cls-19" x="131.71" y="62.37">み</tspan><tspan class="cls-20" x="151.82" y="62.37">な</tspan><tspan class="cls-21" x="171.62" y="62.37">ど</tspan><tspan class="cls-10" x="189.8" y="62.37">、</tspan></tspan><tspan class="cls-22"><tspan x="-1.39" y="93.56">フ</tspan><tspan class="cls-23" x="16.17" y="93.56">レ</tspan><tspan class="cls-24" x="34.88" y="93.56">キ</tspan><tspan class="cls-25" x="54.54" y="93.56">シ</tspan><tspan class="cls-26" x="72.66" y="93.56">ブ</tspan><tspan class="cls-27" x="90.99" y="93.56">ル</tspan><tspan class="cls-28" x="111.13" y="93.56">な</tspan><tspan class="cls-18" x="131.16" y="93.56">発</tspan><tspan class="cls-29" x="151.56" y="93.56">注</tspan><tspan class="cls-30" x="171.87" y="93.56">も</tspan><tspan class="cls-18" x="191.36" y="93.56">可</tspan><tspan class="cls-17" x="211.76" y="93.56">能！</tspan></tspan></text><circle class="cls-31" cx="131.16" cy="217.45" r="131.16"/><text class="cls-32" transform="translate(42.82 189.67)">朝：22<tspan class="cls-33" x="115.2" y="0">0</tspan><tspan x="145.6" y="0">円</tspan><tspan x="0" y="41.39">昼：33</tspan><tspan class="cls-33" x="115.2" y="41.39">0</tspan><tspan x="145.6" y="41.39">円</tspan><tspan x="0" y="82.78">夕：33</tspan><tspan class="cls-33" x="115.2" y="82.78">0</tspan><tspan x="145.6" y="82.78">円</tspan></text><text class="cls-34" transform="translate(283.87 287.17)">■<tspan class="cls-35" x="15.4" y="0">朝</tspan><tspan class="cls-36" x="30.58" y="0">の</tspan><tspan class="cls-37" x="45.64" y="0">み</tspan><tspan class="cls-38" x="57.29" y="0">・</tspan><tspan x="69.19" y="0">朝</tspan><tspan class="cls-39" x="84.59" y="0">夕</tspan><tspan class="cls-36" x="99.76" y="0">の</tspan><tspan class="cls-35" x="114.83" y="0">み</tspan><tspan class="cls-40" x="130" y="0">な</tspan><tspan class="cls-41" x="144.96" y="0">ど</tspan><tspan class="cls-42" x="159.28" y="0">の</tspan><tspan class="cls-43" x="174.4" y="0">発</tspan><tspan class="cls-44" x="189.8" y="0">注</tspan><tspan class="cls-45" x="205.13" y="0">も</tspan><tspan x="219.84" y="0">OK</tspan><tspan class="cls-46"><tspan x="0" y="23.39">■</tspan><tspan class="cls-47" x="15.2" y="23.39">ユ</tspan><tspan class="cls-48" x="30.07" y="23.39">ニ</tspan><tspan class="cls-49" x="43.25" y="23.39">ッ</tspan><tspan class="cls-50" x="55.12" y="23.39">ト</tspan><tspan class="cls-51" x="68.66" y="23.39">ご</tspan><tspan class="cls-52" x="82.71" y="23.39">と</tspan><tspan class="cls-42" x="96.63" y="23.39">の</tspan><tspan class="cls-43" x="111.75" y="23.39">納</tspan><tspan class="cls-44" x="127.15" y="23.39">入</tspan><tspan class="cls-45" x="142.48" y="23.39">も</tspan><tspan class="cls-53" x="157.19" y="23.39">OK</tspan></tspan></text><rect class="cls-54" width="527.26" height="434.9"/></g></g></svg>