<?xml version="1.0" encoding="utf-8"?>
<!-- Generator: Adobe Illustrator 25.4.1, SVG Export Plug-In . SVG Version: 6.00 Build 0)  -->
<svg version="1.1" id="レイヤー_1" xmlns="http://www.w3.org/2000/svg" xmlns:xlink="http://www.w3.org/1999/xlink" x="0px"
	 y="0px" viewBox="0 0 443 106" style="enable-background:new 0 0 443 106;" xml:space="preserve">
<style type="text/css">
	.st0{fill:#60A069;}
	.st1{enable-background:new    ;}
	.st2{fill:#FFFFFF;}
	.st3{fill:none;stroke:#FFFFFF;stroke-width:3.19;stroke-linecap:round;stroke-miterlimit:10;}
</style>
<g id="レイヤー_2_00000109031577976264380190000016767397365621778836_">
	<g id="デザイン">
		
			<image style="overflow:visible;opacity:0.3;enable-background:new    ;" width="443" height="106" xlink:href="7B0527C77EB2EB80.png" >
		</image>
		<path class="st0" d="M27.1,11.6h384.3c8.8,0,15.9,7.1,15.9,15.9v46.2c0,8.8-7.1,15.9-15.9,15.9H27.1c-8.8,0-15.9-7.1-15.9-15.9
			V27.5C11.2,18.7,18.3,11.6,27.1,11.6z"/>
		<g class="st1">
			<path class="st2" d="M52,45.9c-1.6,0.2-3.2,0.4-4.9,0.4c-2.4-0.1-2.5-3.3,0.3-3c1.3,0.2,2.7,0.1,4.8-0.2c0-1.7,0-3.1,0-4.1
				c0.1-2.4,3.3-1.8,3.2,0c-0.1,1.1-0.2,2.4-0.2,3.6c0.7-0.1,1.4-0.3,2.1-0.5c2.1-0.5,2.9,2.4,0.2,2.9c-0.8,0.1-1.6,0.3-2.3,0.4
				c0,1.2,0,2.3,0,3.5c0.7-0.2,1.5-0.4,2.4-0.7c2.3-0.7,3.5,2.1,0.7,2.9c-1.1,0.3-2.1,0.6-3,0.8c0.1,1.1,0.1,2,0.2,2.9
				c0.1,0.8,0.2,2,0.2,3.1c1.6,0.6,2.9,1.4,3.9,2.2c2.1,1.7,0.1,4.6-1.9,2.7c-0.7-0.6-1.4-1.2-2.3-1.7c-1.1,2.7-4.9,4.7-8.7,2.8
				c-3-1.5-3.2-5,0.2-6.4c1.9-0.8,4-0.9,6-0.5c0-0.7-0.1-1.3-0.2-2c-0.1-0.8-0.1-1.6-0.2-2.6c-2.5,0.5-4.1,0.6-5.7,0.3
				c-2.2-0.3-1.8-3.5,0.7-3c0.9,0.2,2.5,0.2,4.9-0.3c-0.1-1.2-0.1-2.4-0.2-3.6L52,45.9z M48,59.8c-0.8,0.3-1,1.3-0.1,1.8
				c1.9,0.9,4.3,0,4.8-1.7C51,59.3,49.4,59.2,48,59.8z"/>
		</g>
		<g class="st1">
			<path class="st2" d="M79.9,54.8c-1.1-3,0.6-5.3,2.5-5.9c0.9-0.3,1.8-0.4,2.7-0.3c0-0.7-0.1-1.6-0.1-2.5c-2.6,0.2-5.2,0.6-6.8,0.9
				c-2.2,0.3-3.7,0.7-4.7,0.9c-2.1,0.4-2.7-2.7-0.2-3.2c1.2-0.2,3.3-0.4,4.6-0.7c1.6-0.2,4.4-0.6,7.1-0.8c0-0.2,0-0.4,0-0.6
				c0-1.9-0.2-2.1-0.2-3.1c0-2.3,3.2-2.1,3.3-0.1c0,0.7-0.1,2.2-0.1,3c0,0.2,0,0.3,0,0.5c0.9-0.1,1.7-0.1,2.4-0.1c1.5,0,2.6,0,4.7,0
				c2.6,0.1,2.5,3.4,0,3.2c-2.2-0.2-3-0.2-4.9-0.2c-0.7,0-1.5,0-2.3,0.1c0,1,0.1,2,0.1,2.9c0,0.4,0.1,1.1,0.1,1.8
				c2.8,4.4-0.5,11-3.8,13.6c-2.1,1.7-4.8-0.6-2.1-2.5c1.5-1.1,2.8-2.8,3.6-4.6C83.6,58.2,80.9,57.6,79.9,54.8z M85.1,51.5
				c-0.4-0.4-1.3-0.4-2-0.1c-0.8,0.3-1.2,1.3-0.9,2.4c0.6,1.7,3.3,1.7,3.6-0.5c0.1-0.7,0-0.9-0.2-1.2C85.5,51.8,85.3,51.6,85.1,51.5
				z M92.7,41.7c-0.3-0.6-1.6-1.9-2.2-2.2c-1.4-0.9,0.1-2.6,1.4-1.8c0.7,0.4,2.2,1.6,2.7,2.4C95.6,41.6,93.5,43.1,92.7,41.7z
				 M96.5,39.9c-0.5-0.5-1.7-1.9-2.3-2.2c-1.5-0.9,0-2.6,1.3-1.8c0.8,0.4,2.2,1.5,2.8,2.3C99.4,39.6,97.6,41,96.5,39.9z"/>
		</g>
		<g class="st1">
			<path class="st2" d="M106.7,62c-1-3.2-0.9-7.2-0.5-11s1.1-7.3,1.2-9.3c0.2-2.5,3.5-1.9,3.2,0.1c-0.2,1.4-0.8,4.1-1.2,6.8
				c-0.4,2.7-0.7,5.3-0.6,6.5c0.1,0.6,0.1,0.7,0.4,0c0.1-0.2,0.3-0.8,0.4-0.9c0.7-1.5,3.1-0.4,2,1.9c-0.4,0.8-0.7,1.7-1,2.5
				c-0.2,0.8-0.4,1.5-0.6,2c-0.2,0.9,0.2,1.7-0.6,2.5C108.7,63.8,107.3,63.7,106.7,62z M116.5,62.6c-2.7-1.6-2.8-5.1,0.5-6.6
				c1.7-0.7,3.6-0.8,5.5-0.4c0-0.5-0.1-1-0.1-1.6c-0.1-1.3-0.2-3.7-0.2-6.2c-1.7,0.2-3.3,0.4-5.1,0.2c-2.2-0.2-1.8-3.4,0.6-3
				c1.4,0.2,2.9,0.2,4.4-0.1c0-1.7-0.1-3.3,0-4.3c0.1-2,3.1-1.7,3-0.1c-0.1,0.9-0.1,2.2-0.1,3.7c0.5-0.2,1.1-0.3,1.6-0.4
				c2-0.6,3.4,2.2,0.7,2.9c-0.7,0.2-1.5,0.4-2.2,0.5c0,2.4,0.1,4.9,0.2,6.4c0,0.8,0.2,1.8,0.2,2.8c1.3,0.6,2.6,1.4,3.5,2.3
				c1.8,1.6-0.4,4.3-2,2.7c-0.6-0.6-1.2-1.1-1.9-1.6C123.7,62.5,119.9,64.6,116.5,62.6z M122.1,58.5c-1.6-0.6-3.1-0.8-4.3-0.2
				c-0.7,0.3-0.9,1.4-0.2,1.8C119.1,61,121.7,60.4,122.1,58.5L122.1,58.5z"/>
		</g>
		<g class="st1">
			<path class="st2" d="M139.7,56.5c-0.9,0-1.3-0.6-1.3-1.2c0-0.7,0.5-1.3,1.3-1.3h3.7v-4.1h-4.3c-0.9,0-1.3-0.6-1.3-1.2
				s0.5-1.3,1.3-1.3h4.3v-3.4c-1.8,2.2-2.5,2.6-3.1,2.6c-0.8,0-1.6-0.6-1.6-1.4c0-0.3,0.2-0.7,0.6-1.1c2.3-2,3.8-4,5.1-6.6
				c0.2-0.5,0.7-0.7,1.1-0.7c0.8,0,1.6,0.6,1.6,1.5c0,0.3-0.2,0.7-1.5,2.7h15.9c0.8,0,1.3,0.6,1.3,1.2c0,0.7-0.4,1.3-1.3,1.3h-1.8
				v3.9h4.2c0.8,0,1.3,0.6,1.3,1.2c0,0.7-0.4,1.3-1.3,1.3h-4.2v4.1h3.5c0.9,0,1.3,0.6,1.3,1.3c0,0.6-0.4,1.3-1.3,1.3H139.7z
				 M138.9,63.3c0-0.4,0.2-0.9,0.9-1.3c0.8-0.5,2.3-1.9,2.6-3.2c0.2-0.8,0.8-1.1,1.4-1.1c0.7,0,1.5,0.5,1.5,1.3
				c0,1.7-2.6,5.6-4.7,5.6C139.7,64.7,138.9,64.1,138.9,63.3z M148.1,43.4h-2.2v3.9h2.2V43.4z M148.1,49.8h-2.2v4.1h2.2V49.8z
				 M149,64.5c-0.7,0-1.3-0.5-1.3-1.4c0,0,0,0,0-0.1c0-0.1,0-0.2,0-0.3c0-1.3-0.2-2.6-0.6-3.6c-0.1-0.2-0.1-0.3-0.1-0.4
				c0-0.7,0.7-1,1.3-1c0.5,0,1,0.2,1.3,0.6c0.7,1,1.1,3,1.1,4.5C150.7,63.9,149.8,64.5,149,64.5z M152.6,43.4h-2.2v3.9h2.2V43.4z
				 M152.6,49.8h-2.2v4.1h2.2V49.8z M155.4,64.5c-0.7,0-1.2-0.4-1.4-1.2c-0.3-1.6-0.9-2.8-1.5-3.8c-0.1-0.2-0.2-0.4-0.2-0.6
				c0-0.7,0.7-1.1,1.4-1.1c2,0,3.4,4.4,3.4,5.1C157.1,63.9,156.2,64.5,155.4,64.5z M157.2,43.4h-2.2v3.9h2.2V43.4z M157.2,49.8h-2.2
				v4.1h2.2V49.8z M162.5,64.2c-0.5,0-1-0.2-1.3-0.9c-0.7-1.4-1.8-2.7-3-3.6c-0.3-0.2-0.4-0.5-0.4-0.8c0-0.6,0.8-1.2,1.6-1.2
				c1.3,0,4.9,3.2,4.9,4.8C164.2,63.6,163.3,64.2,162.5,64.2z"/>
		</g>
		<g class="st1">
			<path class="st2" d="M180,63.4c0,0.8-0.7,1.3-1.5,1.3c-0.8,0-1.5-0.4-1.5-1.3v0l0.1-9.4c-2.8,4.6-3.9,4.8-4.4,4.8
				c-0.8,0-1.5-0.7-1.5-1.4c0-0.3,0.2-0.7,0.5-1c1.7-1.4,3.9-4.1,5.4-6.7v-0.1l-3.5,0.1h0c-0.9,0-1.3-0.6-1.3-1.2
				c0-0.7,0.5-1.4,1.4-1.4h3.5l-0.1-8.4v0c0-0.9,0.7-1.4,1.5-1.4c0.7,0,1.5,0.5,1.5,1.4v0c0,0-0.1,2.6-0.1,5.6
				c0-0.1,0.1-0.2,0.2-0.3c0.5-0.7,1.3-2.1,1.8-3c0.2-0.5,0.6-0.7,1-0.7c0.7,0,1.5,0.6,1.5,1.3c0,0.6-1.2,2.5-2.3,3.7
				c-0.3,0.3-0.6,0.5-1,0.5c-0.5,0-1-0.3-1.2-0.7l0,2h3.3c0.8,0,1.3,0.7,1.3,1.3s-0.4,1.3-1.2,1.3h0l-3.3-0.1v1.6
				c0.2-0.1,0.4-0.2,0.6-0.2c0.7,0,3.6,2,3.6,3.2c0,0.8-0.7,1.5-1.4,1.5c-0.3,0-0.7-0.2-1-0.5c-0.6-0.8-1.2-1.5-1.8-2
				C179.9,57.8,180,63.4,180,63.4L180,63.4z M174.4,45c-0.4-1.1-1.3-2.4-1.7-2.8c-0.2-0.2-0.3-0.5-0.3-0.7c0-0.7,0.7-1.2,1.5-1.2
				c1.4,0,3,3.1,3,3.8c0,0.9-0.7,1.5-1.4,1.5C175,45.7,174.6,45.5,174.4,45z M192.9,56.1l-7.9,2.2c-0.2,0.1-0.3,0.1-0.5,0.1
				c-0.8,0-1.3-0.7-1.3-1.3c0-0.6,0.3-1.1,1.1-1.3l8.7-2.4l-0.1-14.8c0-0.9,0.7-1.3,1.5-1.3s1.5,0.5,1.5,1.3l-0.1,14l2.9-0.8
				c0.2,0,0.3-0.1,0.4-0.1c0.8,0,1.3,0.7,1.3,1.4c0,0.5-0.3,1.1-1,1.2l-3.7,1l0.1,8.1c0,0.8-0.7,1.2-1.5,1.2s-1.5-0.4-1.5-1.2
				L192.9,56.1z M188.8,51.3c-1-0.8-2.3-1.6-3.1-2c-0.5-0.2-0.7-0.6-0.7-1c0-0.6,0.7-1.3,1.6-1.3c1.2,0,3.4,1.4,3.9,1.8
				c0.4,0.4,0.6,0.8,0.6,1.3c0,0.8-0.6,1.5-1.4,1.5C189.5,51.7,189.1,51.5,188.8,51.3z M189,44.9c-0.9-1-2.1-1.8-2.9-2.3
				c-0.4-0.2-0.6-0.5-0.6-0.9c0-0.7,0.7-1.3,1.5-1.3c1.1,0,3.4,1.8,3.9,2.3c0.3,0.4,0.5,0.8,0.5,1.2c0,0.8-0.6,1.6-1.4,1.6
				C189.7,45.4,189.4,45.3,189,44.9z"/>
		</g>
		<g class="st1">
			<path class="st2" d="M214.1,48.2c0.3-0.6,0.6-1.1,1-1.6c0.5-0.7,0.3-0.6-0.2-0.4c-2.3,0.8-1.8,0.8-3.9,1.6
				c-1,0.4-1.9,0.7-2.8,0.9c-2.7,0.8-3.6-2.8-1.1-3.4c0.7-0.2,2.5-0.5,3.5-0.8c1.5-0.4,4.3-1,7.5-1.9c3.2-0.9,5.7-1.7,8.5-1.8
				c1.9-0.1,2.5,1.4,2.1,2.4c-0.2,0.5-0.9,1.2-3.1,1c-1.6-0.1-3.6,0.5-4.6,0.9c-1.7,0.6-3.3,2.5-4,3.7c-2.7,4.6-0.7,11.2,6.3,10.9
				c3.3-0.1,3.5,3.6,0.2,3.5C214,63.1,210.7,54.5,214.1,48.2z M223.8,50.3c-1.7-0.7-0.4-2.7,1.1-2.1c0.9,0.3,2.6,1.2,3.3,2
				c1.3,1.4-0.7,3.4-1.7,2.1C226,51.7,224.4,50.5,223.8,50.3z M226.9,47.5c-1.7-0.7-0.5-2.7,1.1-2.2c0.9,0.3,2.6,1.1,3.3,1.9
				c1.3,1.3-0.5,3.4-1.7,2.1C229.2,48.9,227.6,47.8,226.9,47.5z"/>
			<path class="st2" d="M245.9,58.9c0.2,4.5-3.7,4.4-6.3,3.2c-3.7-1.8-2.7-4-1-5.8c1-1,2.6-2.2,4.4-3.3c0-1.3-0.1-2.7-0.1-3.9
				c-1.3,0.2-2.6,0.3-3.7,0.1c-2.3-0.3-1.9-3.4,0.7-2.9c0.8,0.2,1.9,0,3.2-0.3c0-1.5-0.1-2.5-0.1-3.7c-0.1-2.3,3.3-2.2,3.2,0
				c-0.1,0.7-0.1,1.7-0.2,2.6c0.5-0.2,0.9-0.5,1.2-0.7c1.7-1.1,3.6,1.3,1.4,2.7c-0.9,0.6-1.9,1-2.9,1.4c0,1,0,2.1,0,3.3
				c0.9-0.4,1.8-0.7,2.6-1c2.7-0.8,5.3-0.5,6.9,0c5.2,1.8,4.3,6,2.7,8.3c-2,2.9-6.4,3.9-10,1.9c-1.8-1-0.6-3.6,1.3-2.7
				c2.4,1.2,4.4,1.2,5.9-0.8c0.7-1,1.6-3.2-1.1-4.2c-1.2-0.5-2.9-0.6-5.1-0.1c-1.1,0.2-2.2,0.7-3.3,1.2
				C245.7,55.9,245.8,57.6,245.9,58.9z M240.7,57.9c-0.7,0.7-0.7,1.5,0.1,1.9c1.3,0.7,2.2,0.6,2.3-0.7c0-0.8,0-2,0-3.3
				C242.1,56.5,241.3,57.2,240.7,57.9z M258.4,48c-0.8-0.7-2.5-1.5-4.1-1.3c-1.9,0.2-2.4-2.6-0.2-2.7c2.2-0.2,5.4,0.6,6.5,1.8
				c0.8,0.8,0.6,1.7,0,2.2C260.1,48.6,259.1,48.7,258.4,48z"/>
		</g>
		<g class="st1">
			<path class="st2" d="M274,61.9c-0.9,2.1-4.2,1.2-2.9-1.5c1.3-2.7,3.6-7.5,5.5-13.6c-1.7,0.2-3.2,0.1-4.6-0.4
				c-1.6-0.7-1.3-3.5,1.1-2.7c1.3,0.5,2.8,0.5,4.3,0.2c0.2-1.2,0.1-2,0-3.4c-0.1-1.8,2.8-1.9,3.1-0.2c0.1,0.8,0.1,1.6,0,2.5
				c0.4-0.2,0.8-0.4,1.2-0.7c1.6-1.1,3.6,1.5,1.2,2.7c-0.9,0.4-2,0.9-3.2,1.2C277.8,53,275.5,58.4,274,61.9z M281.6,60.5
				c-1.3-1.5,0.6-4,2.2-2.3c1.6,1.6,3.5,1.5,7.2,1.2c2.3-0.2,2.5,2.8,0.4,3.2C286.8,63.4,283,62,281.6,60.5z M285.1,49.6
				c-1.6,0.6-2.6-2-0.5-2.7c1.6-0.6,4.4-0.9,7.5,0.2c2.1,0.7,1.2,3.5-0.7,2.8C289.6,49.3,286.8,48.9,285.1,49.6z"/>
		</g>
		<g class="st1">
			<path class="st2" d="M309.5,57.7c-3.7,4-7,2.6-7.8-1.3c-0.7-3,0.8-6.4,3.4-8.9c-0.2-0.7-0.4-1.3-0.6-2c-0.2-0.6-0.5-2.1-0.6-2.7
				c-0.5-2.6,3-2.6,3.1-0.3c0.1,0.9,0.1,1.5,0.3,2.6c0,0.2,0.1,0.5,0.2,0.7c0.2-0.1,0.4-0.2,0.6-0.3c1.6-0.8,3.5-1.2,5.3-1.3
				c0.2-1.2,0.4-2.5,0.4-3.4c0-2.2,3.2-1.9,3.1,0.3c-0.1,1.1-0.2,2.1-0.4,3.3c2.9,0.7,5.4,2.5,6.3,5.7c1.6,5.8-2.2,10.1-7.6,12
				c-2.4,0.9-3.9-2.1-1.2-2.9c5.4-1.7,6.7-5.2,5.9-8.2c-0.6-2.4-2.2-3.7-4-4.2c-0.1,0.3-0.2,0.6-0.3,0.9c-0.7,1.9-1.9,4.2-3.2,6.3
				c0.1,0.1,0.2,0.2,0.4,0.3c0.7,0.5,0.6,1.4,0.2,1.9s-1.2,0.8-2.1,0.3c-0.1-0.1-0.2-0.1-0.2-0.2C310.3,56.8,309.9,57.2,309.5,57.7z
				 M306.1,50c-1.3,1.7-2.1,3.6-1.7,5.2c0.5,2.4,1.9,1.7,2.8,0.8c0.5-0.5,1-1.1,1.5-1.8C307.7,53.1,306.8,51.6,306.1,50z
				 M309.2,47.5c-0.3,0.2-0.6,0.3-0.9,0.6c0.5,1.4,1.2,2.7,2.1,3.8c1-1.7,1.9-3.5,2.4-5.1c0-0.1,0.1-0.3,0.1-0.4
				C311.6,46.5,310.3,46.9,309.2,47.5z"/>
		</g>
		<g class="st1">
			<path class="st2" d="M331.7,57.1c-0.1-3.3,0.2-5.9,0.4-9.2c0.1-2,0.3-5.1,0.2-7c-0.1-2.3,3.5-2.1,3.4-0.1c-0.1,2-0.3,4.9-0.4,7
				c-0.2,3.3-0.7,6.2-0.6,9.2c0.2,4.6,5.7,4.2,11.2,0c2-1.6,3.9,1.3,2.2,2.7C342,64.6,332,65.5,331.7,57.1z"/>
		</g>
		<g class="st1">
			<path class="st2" d="M358.5,63.6c-1.2,0-2.2-1-2.2-2.1c0-1.4,1.3-2.2,2.2-2.2c1.2,0,2.2,0.7,2.2,2.2
				C360.7,63.1,359.4,63.6,358.5,63.6z M357.2,55.7c0-0.2,0-0.4,0-0.7c0-3-0.3-10.3-0.5-15.2c0,0,0-0.1,0-0.1c0-1.2,0.9-1.7,1.8-1.7
				c0.9,0,1.9,0.6,1.9,1.8c0,3.7-0.5,12.3-0.5,15.3c0,0.7,0,2.1-1.4,2.1C357.8,57.2,357.2,56.7,357.2,55.7L357.2,55.7z"/>
		</g>
		<polyline class="st3" points="399.4,38.1 409,50.6 399.3,63.2 		"/>
	</g>
</g>
</svg>
