<svg xmlns="http://www.w3.org/2000/svg" viewBox="0 0 355.99 36.9"><defs><style>.cls-1{fill:#573001;}.cls-2{fill:none;stroke:#573001;stroke-linecap:round;stroke-linejoin:round;stroke-width:2px;}</style></defs><g id="レイヤー_2" data-name="レイヤー 2"><g id="デザイン"><path class="cls-1" d="M52.22,22.24a1.24,1.24,0,0,1-1.17-1.38,2.32,2.32,0,0,1,.06-.45,28.67,28.67,0,0,1-4.92,3.18,1.94,1.94,0,0,1-.75.18A1.4,1.4,0,0,1,44,22.39,1.49,1.49,0,0,1,45,21.07a26.07,26.07,0,0,0,4.29-2.73A12.4,12.4,0,0,0,47.75,17a1.27,1.27,0,0,1-.54-1,1.39,1.39,0,0,1,1.38-1.35,1.53,1.53,0,0,1,.93.33,14,14,0,0,1,1.8,1.53,14.53,14.53,0,0,0,1.89-2.31.9.9,0,0,0,.18-.42c0-.18-.18-.27-.6-.27H48a1.2,1.2,0,0,1-1.14-1.32A1.2,1.2,0,0,1,48,10.81h5.55c2.1,0,3.21.93,3.21,2.28A4.05,4.05,0,0,1,56,15.25a22.46,22.46,0,0,1-3.75,4.23H64a1.25,1.25,0,0,1,1.2,1.38A1.25,1.25,0,0,1,64,22.24H62.66v3.12h6a1.28,1.28,0,0,1,1.23,1.41,1.3,1.3,0,0,1-1.23,1.41h-6V32.8c0,.72.3.84,2.25.84,2.22,0,2.7-.21,2.85-1.77a1.39,1.39,0,0,1,1.5-1.23c.84,0,1.74.54,1.64,1.47-.27,3.24-1.7,4.23-6.35,4.23-3.93,0-5.07-.81-5.07-3V28.18H55.94c-1.08,3.84-3.78,6.57-8,8.46a1.51,1.51,0,0,1-.69.15,1.49,1.49,0,0,1-1.47-1.47A1.43,1.43,0,0,1,46.67,34c3-1.44,5-3.21,5.94-5.82H47.33a1.29,1.29,0,0,1-1.2-1.41,1.28,1.28,0,0,1,1.2-1.41h5.88c0-.48.06-1,.06-1.53V22.24Zm7.26,0h-3V24c0,.45,0,.87-.06,1.32h3.09Zm7.89-8.88a1.41,1.41,0,0,1,1.11-.54A1.49,1.49,0,0,1,70,14.23a1.34,1.34,0,0,1-.36.9,16.18,16.18,0,0,1-2.46,2.28A25.59,25.59,0,0,0,71.24,20a1.69,1.69,0,0,1,1,1.5A1.51,1.51,0,0,1,70.76,23a1.83,1.83,0,0,1-.84-.21A29.44,29.44,0,0,1,58,11.2a1.46,1.46,0,0,1-.18-.66,1.41,1.41,0,0,1,1.5-1.32,1.59,1.59,0,0,1,1.41.87A22.36,22.36,0,0,0,62,12.22a17.67,17.67,0,0,0,1.8-1.86,1.41,1.41,0,0,1,1.11-.54,1.51,1.51,0,0,1,1.53,1.38,1.33,1.33,0,0,1-.39.9,16.41,16.41,0,0,1-2.37,2.19c.42.48.87.9,1.32,1.35A14,14,0,0,0,67.37,13.36Z"/><path class="cls-1" d="M82.91,19.63a1.79,1.79,0,0,1,.54,1.23,1.69,1.69,0,0,1-1.68,1.62A1.53,1.53,0,0,1,80.63,22,29.74,29.74,0,0,0,78,19.6a1.45,1.45,0,0,1-.63-1.14A1.65,1.65,0,0,1,79,16.93a1.87,1.87,0,0,1,1,.33A17.63,17.63,0,0,1,82.91,19.63Zm.78,5.64a1.67,1.67,0,0,1,1.77,1.53,1.7,1.7,0,0,1-.09.54,37.59,37.59,0,0,1-3.75,8,1.91,1.91,0,0,1-1.62.93,1.62,1.62,0,0,1-1.71-1.53,1.76,1.76,0,0,1,.33-1,36.61,36.61,0,0,0,3.54-7.47A1.55,1.55,0,0,1,83.69,25.27Zm1.32-13a1.79,1.79,0,0,1,.54,1.23,1.65,1.65,0,0,1-1.62,1.59,1.61,1.61,0,0,1-1.17-.57c-.84-.81-1.77-1.71-2.49-2.28a1.49,1.49,0,0,1-.6-1.14,1.6,1.6,0,0,1,1.65-1.47,1.85,1.85,0,0,1,1.05.36A18.93,18.93,0,0,1,85,12.31ZM97,23.2h5.19a1.33,1.33,0,0,1,1.29,1.47,1.34,1.34,0,0,1-1.29,1.47H97v6.42h6.86a1.51,1.51,0,0,1,0,3H86.63a1.51,1.51,0,0,1,0-3h7V26.14H89.06a1.36,1.36,0,0,1-1.29-1.47,1.34,1.34,0,0,1,1.29-1.47h4.56V18.1H87.89a1.37,1.37,0,0,1-1.32-1.5,1.37,1.37,0,0,1,1.32-1.5h15.57a1.36,1.36,0,0,1,1.32,1.5,1.36,1.36,0,0,1-1.32,1.5H97Zm-.21-11.7a1.82,1.82,0,0,1,.51,1.2,1.66,1.66,0,0,1-1.68,1.56,1.79,1.79,0,0,1-1.32-.6c-.63-.66-1.5-1.41-2.13-2a1.55,1.55,0,0,1-.57-1.14A1.59,1.59,0,0,1,93.2,9.07a1.94,1.94,0,0,1,1.08.36A15.47,15.47,0,0,1,96.77,11.5Z"/><path class="cls-1" d="M115.52,13.12A1.07,1.07,0,0,1,114.44,12a1.07,1.07,0,0,1,1.08-1.14h6.87v-1c0-.84.78-1.23,1.56-1.23s1.56.39,1.56,1.23v1h4.23c2.88,0,3.72.81,3.72,2.49v.9h3.33a1.06,1.06,0,0,1,1.07,1.14,1.06,1.06,0,0,1-1.07,1.14h-3.33v.93c0,1.68-.84,2.49-3.72,2.49h-4.23v1h8.82a1.14,1.14,0,0,1,0,2.28h-8.82v1.05H136.9a1.2,1.2,0,0,1,0,2.4H111.29a1.2,1.2,0,0,1,0-2.4h11.1V23.23h-8.31a1.14,1.14,0,0,1,0-2.28h8.31v-1h-7.17a1.14,1.14,0,0,1,0-2.28h7.17V16.51h-11a1.06,1.06,0,0,1-1-1.14,1.06,1.06,0,0,1,1-1.14h11V13.12Zm3,23.52c-2.79,0-3.75-.9-3.75-2.85V30.52c0-1.95,1-2.85,3.75-2.85h11.43c2.79,0,3.75.9,3.75,2.85v3.27c0,2.46-1.62,2.82-3.75,2.85Zm12.06-6.15c0-.48-.24-.66-1.11-.66H119c-.87,0-1.11.18-1.11.66v.63h12.69Zm-1.11,4c.87,0,1.11-.18,1.11-.66v-.66H117.86v.66c0,.66.57.66,1.11.66Zm-3.93-20.25h4.83v-.57c0-.42-.12-.54-1.08-.54h-3.75Zm0,2.28v1.14h3.75c1,0,1.08-.12,1.08-.54v-.6Z"/><path class="cls-1" d="M160.16,14.71c2.49,0,3.75,1,3.75,2.76a5.35,5.35,0,0,1-.27,1.59c-2.1,7-8.1,13.8-14.76,17.4a2.14,2.14,0,0,1-1,.27,1.67,1.67,0,0,1-1.65-1.68,1.81,1.81,0,0,1,1.08-1.62,29.16,29.16,0,0,0,7.74-6.27,27.58,27.58,0,0,0-3.48-2.79,1.58,1.58,0,0,1-.75-1.32,1.65,1.65,0,0,1,1.65-1.59,1.87,1.87,0,0,1,1.05.33,27.52,27.52,0,0,1,3.6,2.76,24.19,24.19,0,0,0,3-5.94,1.18,1.18,0,0,0,.09-.42c0-.33-.24-.48-.81-.48l-7.32.06a32.38,32.38,0,0,1-5,5.94,1.94,1.94,0,0,1-1.32.54,1.64,1.64,0,0,1-1.68-1.59,1.9,1.9,0,0,1,.72-1.41A31.31,31.31,0,0,0,152,11.11,1.76,1.76,0,0,1,153.68,10a1.62,1.62,0,0,1,1.71,1.53,1.72,1.72,0,0,1-.15.72c-.36.84-.78,1.68-1.26,2.55Zm1.8-3.42a1.22,1.22,0,0,1,1.26-1.11,1.2,1.2,0,0,1,.9.42,16,16,0,0,1,2.1,2.82,1.33,1.33,0,0,1,.21.72,1.23,1.23,0,0,1-1.23,1.2,1.15,1.15,0,0,1-1-.66,21.49,21.49,0,0,0-2-2.73A1,1,0,0,1,162,11.29Zm3.18-2.1a1.17,1.17,0,0,1,1.23-1,1.39,1.39,0,0,1,1,.42,15.11,15.11,0,0,1,2.07,2.67,1.61,1.61,0,0,1,.27.81,1.18,1.18,0,0,1-1.2,1.17,1.36,1.36,0,0,1-1.11-.66,33.1,33.1,0,0,0-2-2.7A1,1,0,0,1,165.14,9.19Z"/><path class="cls-1" d="M193.19,14.83c3.3,0,4.53,1.41,4.53,3.42a5.83,5.83,0,0,1-.06.72A19.84,19.84,0,0,1,185,35.29a2.66,2.66,0,0,1-.9.18,1.7,1.7,0,0,1-1.77-1.71,1.91,1.91,0,0,1,1.29-1.71c5.94-2.52,9.42-6.84,10.29-12.78.15-1.08-.12-1.32-1.35-1.32H181.43c-1.14,0-1.44.33-1.44,1.26v3.87a1.59,1.59,0,0,1-1.77,1.47,1.61,1.61,0,0,1-1.77-1.47V18.4c0-2.4,1.29-3.57,4.08-3.57H185v-3.3a1.75,1.75,0,0,1,3.48,0v3.3Z"/><path class="cls-1" d="M213.32,17a1.77,1.77,0,0,1,.54,1.29,2,2,0,0,1-1.92,2,1.9,1.9,0,0,1-1.35-.6,43.86,43.86,0,0,0-4.08-3.63,1.67,1.67,0,0,1-.72-1.35,1.94,1.94,0,0,1,1.92-1.83,2.18,2.18,0,0,1,1.2.39A26.94,26.94,0,0,1,213.32,17Zm13.2-.87a1.74,1.74,0,0,1,1.83,1.65,1.79,1.79,0,0,1-.3,1,36,36,0,0,1-18.54,15.78,2.12,2.12,0,0,1-.81.15,1.83,1.83,0,0,1-1.8-1.83,1.62,1.62,0,0,1,1.17-1.59A33.42,33.42,0,0,0,225,17.08,1.71,1.71,0,0,1,226.52,16.15Z"/><path class="cls-1" d="M241.73,33.37c-3.45,0-4.89-1.41-4.89-4.23V18c0-2.82,1.44-4.23,4.89-4.23H253.4c3.45,0,4.89,1.41,4.89,4.23V29.14c0,2.82-1.44,4.23-4.89,4.23ZM253,30.13c1.38,0,1.8-.39,1.8-1.41V18.37c0-1-.42-1.41-1.8-1.41H242.18c-1.38,0-1.8.39-1.8,1.41V28.72c0,1,.42,1.41,1.8,1.41Z"/><path class="cls-1" d="M289,21.4a1.71,1.71,0,0,1,0,3.42h-21.9a1.71,1.71,0,0,1,0-3.42Z"/><path class="cls-1" d="M304.07,20.26a1.71,1.71,0,0,1,1.47-.93,1.85,1.85,0,0,1,.78.18,35.18,35.18,0,0,1,6.36,3.84,1.93,1.93,0,0,1,.84,1.56,1.74,1.74,0,0,1-1.71,1.77,2,2,0,0,1-1.26-.45,53,53,0,0,0-5.61-3.6,2.14,2.14,0,0,1-.87-.84V34.72a1.78,1.78,0,0,1-3.54,0V11.83a1.78,1.78,0,0,1,3.54,0ZM309,13.87a1.26,1.26,0,0,1,2.1-.81,15,15,0,0,1,2.34,2.61,1.25,1.25,0,0,1,.27.81,1.22,1.22,0,0,1-1.2,1.2,1.2,1.2,0,0,1-1-.57,21.82,21.82,0,0,0-2.22-2.55A1.07,1.07,0,0,1,309,13.87Zm3-2.4a1.2,1.2,0,0,1,1.26-1.11,1.44,1.44,0,0,1,.9.36,15,15,0,0,1,2.31,2.46,1.4,1.4,0,0,1,.33.9,1.17,1.17,0,0,1-1.2,1.14,1.3,1.3,0,0,1-1.05-.54c-.69-.87-1.53-1.77-2.22-2.49A1,1,0,0,1,312,11.47Z"/><line class="cls-2" x1="11.28" y1="1" x2="21.56" y2="35.9"/><line class="cls-2" x1="1" y1="11.6" x2="11.28" y2="35.9"/><line class="cls-2" x1="344.71" y1="1" x2="334.43" y2="35.9"/><line class="cls-2" x1="354.99" y1="11.6" x2="344.71" y2="35.9"/></g></g></svg>