<svg xmlns="http://www.w3.org/2000/svg" viewBox="0 0 355.99 36.9"><defs><style>.cls-1{fill:#573001;}.cls-2{fill:none;stroke:#573001;stroke-linecap:round;stroke-linejoin:round;stroke-width:2px;}</style></defs><g id="レイヤー_2" data-name="レイヤー 2"><g id="デザイン"><path class="cls-1" d="M46.22,16.54c-.81,0-1,.3-1,1V32.41a1.54,1.54,0,0,1-3,0V17.14c0-2.1,1-3.18,3.57-3.18h2.34V12H42.62a1.27,1.27,0,0,1-1.2-1.38,1.27,1.27,0,0,1,1.2-1.38h5.46V7.09c0-.81.78-1.23,1.56-1.23s1.56.42,1.56,1.23V9.25h5.64A1.25,1.25,0,0,1,58,10.63,1.25,1.25,0,0,1,56.84,12H51.2v2h2.4c2.52,0,3.51,1,3.51,3.15v13c0,2.16-1.14,3-3.18,3-.3,0-.72,0-1.29-.09a1.38,1.38,0,0,1-1.26-1.44,1.29,1.29,0,0,1,1.44-1.38,7.49,7.49,0,0,0,.75.06c.39,0,.54-.09.54-.54V17.56c0-.72-.24-1-1-1Zm3.15,4.59A20.82,20.82,0,0,0,50.66,18a1.28,1.28,0,0,1,1.23-1,1.25,1.25,0,0,1,1.32,1.17,1.49,1.49,0,0,1-.09.48A22.44,22.44,0,0,1,52,21.13h.48a1.08,1.08,0,0,1,1,1.2,1.08,1.08,0,0,1-1,1.2H51v2h1.71c.66,0,1,.6,1,1.23a1.1,1.1,0,0,1-1,1.23H51v3.93c0,.75-.69,1.11-1.38,1.11s-1.38-.36-1.38-1.11V28H46.61a1.1,1.1,0,0,1-1-1.23c0-.63.33-1.23,1-1.23h1.65v-2H46.85a1.21,1.21,0,0,1,0-2.4ZM49,19a1.46,1.46,0,0,1,.18.66,1.18,1.18,0,0,1-1.23,1.14A1.25,1.25,0,0,1,46.73,20a12.69,12.69,0,0,0-.6-1.14,1.24,1.24,0,0,1-.18-.6,1.17,1.17,0,0,1,1.2-1.11,1.25,1.25,0,0,1,1,.57A7.19,7.19,0,0,1,49,19ZM64.4,17.11a32.83,32.83,0,0,0,4.8,14,1.79,1.79,0,0,1,.3,1,1.59,1.59,0,0,1-1.59,1.56,1.62,1.62,0,0,1-1.38-.9A31.09,31.09,0,0,1,63,23.29a32.31,32.31,0,0,1-3.3,9.63,1.77,1.77,0,0,1-1.5,1,1.4,1.4,0,0,1-1.41-1.38,1.67,1.67,0,0,1,.24-.78c1.92-3.27,3.36-7.86,3.84-14.7H58.52c-.75,0-1.11-.72-1.11-1.41s.36-1.41,1.11-1.41H61c0-.9,0-1.77,0-2.67V7.45a1.4,1.4,0,0,1,1.53-1.32A1.38,1.38,0,0,1,64.1,7.45v4.29c0,.84,0,1.71,0,2.55h3.78c.78,0,1.14.69,1.14,1.41s-.36,1.41-1.14,1.41Zm4-6.12a1.4,1.4,0,0,1,.15.66,1.31,1.31,0,0,1-1.38,1.26,1.25,1.25,0,0,1-1.2-.75,17.88,17.88,0,0,0-1-1.95,1.3,1.3,0,0,1-.21-.69A1.21,1.21,0,0,1,66,8.38,1.44,1.44,0,0,1,67.22,9,13.48,13.48,0,0,1,68.42,11Z"/><path class="cls-1" d="M88.91,29.77A75.23,75.23,0,0,0,92.39,17a1.57,1.57,0,0,1,1.68-1.23c1,0,1.92.63,1.68,1.8A78.63,78.63,0,0,1,92.3,29.77h8.37A1.35,1.35,0,0,1,102,31.24a1.36,1.36,0,0,1-1.32,1.47h-25a1.36,1.36,0,0,1-1.29-1.47,1.34,1.34,0,0,1,1.29-1.47ZM86.33,7.48A1.48,1.48,0,0,1,88,6.13c.84,0,1.65.45,1.65,1.35v4.11H99.86a1.35,1.35,0,0,1,1.32,1.47,1.36,1.36,0,0,1-1.32,1.47H76.49a1.36,1.36,0,0,1-1.29-1.47,1.34,1.34,0,0,1,1.29-1.47h9.84Zm-5.94,11a1.89,1.89,0,0,1-.15-.66A1.61,1.61,0,0,1,82,16.36a1.66,1.66,0,0,1,1.62,1.05,42.74,42.74,0,0,1,2.34,8.1,1.71,1.71,0,1,1-3.36.57A41.27,41.27,0,0,0,80.39,18.46Z"/><path class="cls-1" d="M123.83,20.41a15.49,15.49,0,0,0,2.07,3.45A22.24,22.24,0,0,0,129,21.34a1.67,1.67,0,0,1,1.14-.48,1.52,1.52,0,0,1,1.53,1.44,1.55,1.55,0,0,1-.57,1.11A27,27,0,0,1,127.73,26a20.44,20.44,0,0,0,5.88,4.11,1.67,1.67,0,0,1,1.11,1.5,1.59,1.59,0,0,1-1.56,1.56,1.83,1.83,0,0,1-.84-.21A23.61,23.61,0,0,1,121,20.71,30.43,30.43,0,0,1,117.14,24a1.25,1.25,0,0,1,1.11,1.17v4.56c1.65-.33,3.21-.69,4.53-1.05a2.66,2.66,0,0,1,.45-.06A1.39,1.39,0,0,1,124.64,30a1.31,1.31,0,0,1-1,1.29,77.1,77.1,0,0,1-11.94,2.31A1.43,1.43,0,0,1,110,32.2a1.36,1.36,0,0,1,1.26-1.38c1.17-.12,2.43-.3,3.72-.51V25.45a32.48,32.48,0,0,1-5.46,2.79,1.78,1.78,0,0,1-.63.12,1.44,1.44,0,0,1-1.44-1.44,1.28,1.28,0,0,1,.9-1.23,29.22,29.22,0,0,0,8.82-5.28h-8.61a1.24,1.24,0,0,1-1.2-1.35,1.22,1.22,0,0,1,1.2-1.35h10.86V15.82h-6.78a1.2,1.2,0,0,1-1.17-1.29,1.18,1.18,0,0,1,1.17-1.29h6.78V11.47h-9a1.21,1.21,0,0,1-1.17-1.32,1.21,1.21,0,0,1,1.17-1.32h9V7c0-.84.81-1.26,1.62-1.26s1.68.45,1.68,1.29V8.83h10a1.21,1.21,0,0,1,1.17,1.32,1.21,1.21,0,0,1-1.17,1.32h-10v1.77h7.38a1.18,1.18,0,0,1,1.17,1.29,1.2,1.2,0,0,1-1.17,1.29h-7.38v1.89h11A1.24,1.24,0,0,1,135,19.06a1.26,1.26,0,0,1-1.23,1.35Z"/><path class="cls-1" d="M157.22,11.71c2.49,0,3.75,1,3.75,2.76a5.35,5.35,0,0,1-.27,1.59c-2.1,7-8.1,13.8-14.76,17.4a2.14,2.14,0,0,1-1,.27,1.67,1.67,0,0,1-1.65-1.68,1.81,1.81,0,0,1,1.08-1.62,29.16,29.16,0,0,0,7.74-6.27,27.58,27.58,0,0,0-3.48-2.79,1.58,1.58,0,0,1-.75-1.32,1.65,1.65,0,0,1,1.65-1.59,1.87,1.87,0,0,1,1.05.33,27.52,27.52,0,0,1,3.6,2.76,24.19,24.19,0,0,0,3-5.94,1.18,1.18,0,0,0,.09-.42c0-.33-.24-.48-.81-.48l-7.32.06a32.38,32.38,0,0,1-5,5.94,1.94,1.94,0,0,1-1.32.54,1.64,1.64,0,0,1-1.68-1.59,1.9,1.9,0,0,1,.72-1.41,31.31,31.31,0,0,0,7.2-10.14A1.76,1.76,0,0,1,150.74,7a1.62,1.62,0,0,1,1.71,1.53,1.72,1.72,0,0,1-.15.72c-.36.84-.78,1.68-1.26,2.55ZM159,8.29a1.22,1.22,0,0,1,1.26-1.11,1.2,1.2,0,0,1,.9.42,16,16,0,0,1,2.1,2.82,1.33,1.33,0,0,1,.21.72,1.23,1.23,0,0,1-1.23,1.2,1.15,1.15,0,0,1-1-.66,21.49,21.49,0,0,0-2-2.73A1,1,0,0,1,159,8.29Zm3.18-2.1a1.17,1.17,0,0,1,1.23-1.05,1.39,1.39,0,0,1,1,.42,15.11,15.11,0,0,1,2.07,2.67,1.61,1.61,0,0,1,.27.81,1.18,1.18,0,0,1-1.2,1.17,1.36,1.36,0,0,1-1.11-.66,33.1,33.1,0,0,0-2-2.7A1,1,0,0,1,162.2,6.19Z"/><path class="cls-1" d="M190.25,11.83c3.3,0,4.53,1.41,4.53,3.42a5.83,5.83,0,0,1-.06.72,19.84,19.84,0,0,1-12.63,16.32,2.66,2.66,0,0,1-.9.18,1.7,1.7,0,0,1-1.77-1.71,1.91,1.91,0,0,1,1.29-1.71c5.94-2.52,9.42-6.84,10.29-12.78.15-1.08-.12-1.32-1.35-1.32H178.49c-1.14,0-1.44.33-1.44,1.26v3.87a1.59,1.59,0,0,1-1.77,1.47,1.61,1.61,0,0,1-1.77-1.47V15.4c0-2.4,1.29-3.57,4.08-3.57h4.5V8.53a1.75,1.75,0,0,1,3.48,0v3.3Z"/><path class="cls-1" d="M210.38,14a1.77,1.77,0,0,1,.54,1.29,2,2,0,0,1-1.92,2,1.9,1.9,0,0,1-1.35-.6,43.86,43.86,0,0,0-4.08-3.63,1.67,1.67,0,0,1-.72-1.35,1.94,1.94,0,0,1,1.92-1.83,2.18,2.18,0,0,1,1.2.39A26.94,26.94,0,0,1,210.38,14Zm13.2-.87a1.74,1.74,0,0,1,1.83,1.65,1.79,1.79,0,0,1-.3,1,36,36,0,0,1-18.54,15.78,2.12,2.12,0,0,1-.81.15,1.83,1.83,0,0,1-1.8-1.83,1.62,1.62,0,0,1,1.17-1.59,33.42,33.42,0,0,0,16.92-14.19A1.71,1.71,0,0,1,223.58,13.15Z"/><path class="cls-1" d="M238.79,30.37c-3.45,0-4.89-1.41-4.89-4.23V15c0-2.82,1.44-4.23,4.89-4.23h11.67c3.45,0,4.89,1.41,4.89,4.23V26.14c0,2.82-1.44,4.23-4.89,4.23ZM250,27.13c1.38,0,1.8-.39,1.8-1.41V15.37c0-1-.42-1.41-1.8-1.41H239.24c-1.38,0-1.8.39-1.8,1.41V25.72c0,1,.42,1.41,1.8,1.41Z"/><path class="cls-1" d="M286.07,18.4a1.6,1.6,0,0,1,1.62,1.71,1.61,1.61,0,0,1-1.62,1.71h-21.9a1.61,1.61,0,0,1-1.62-1.71,1.6,1.6,0,0,1,1.62-1.71Z"/><path class="cls-1" d="M301.13,17.26a1.71,1.71,0,0,1,1.47-.93,1.85,1.85,0,0,1,.78.18,35.18,35.18,0,0,1,6.36,3.84,1.93,1.93,0,0,1,.84,1.56,1.74,1.74,0,0,1-1.71,1.77,2,2,0,0,1-1.26-.45,53,53,0,0,0-5.61-3.6,2.14,2.14,0,0,1-.87-.84V31.72a1.78,1.78,0,0,1-3.54,0V8.83a1.78,1.78,0,0,1,3.54,0Zm4.92-6.39a1.26,1.26,0,0,1,2.1-.81,15,15,0,0,1,2.34,2.61,1.25,1.25,0,0,1,.27.81,1.22,1.22,0,0,1-1.2,1.2,1.2,1.2,0,0,1-1-.57,21.82,21.82,0,0,0-2.22-2.55A1.07,1.07,0,0,1,306.05,10.87Zm3-2.4a1.2,1.2,0,0,1,1.26-1.11,1.44,1.44,0,0,1,.9.36,15,15,0,0,1,2.31,2.46,1.4,1.4,0,0,1,.33.9,1.17,1.17,0,0,1-1.2,1.14,1.3,1.3,0,0,1-1.05-.54c-.69-.87-1.53-1.77-2.22-2.49A1,1,0,0,1,309,8.47Z"/><line class="cls-2" x1="11.28" y1="1" x2="21.56" y2="35.9"/><line class="cls-2" x1="1" y1="11.6" x2="11.28" y2="35.9"/><line class="cls-2" x1="344.71" y1="1" x2="334.43" y2="35.9"/><line class="cls-2" x1="354.99" y1="11.6" x2="344.71" y2="35.9"/></g></g></svg>