<?xml version="1.0" encoding="utf-8"?>
<!-- Generator: Adobe Illustrator 25.4.1, SVG Export Plug-In . SVG Version: 6.00 Build 0)  -->
<svg version="1.1" id="レイヤー_1" xmlns="http://www.w3.org/2000/svg" xmlns:xlink="http://www.w3.org/1999/xlink" x="0px"
	 y="0px" viewBox="0 0 734 97" style="enable-background:new 0 0 734 97;" xml:space="preserve">
<style type="text/css">
	.st0{fill:#FFFFFF;}
	.st1{enable-background:new    ;}
	.st2{fill:#573001;}
</style>
<g id="レイヤー_2_00000106856825380018692290000016550680373589758121_">
	<g id="デザイン">
		
			<image style="overflow:visible;opacity:0.2;enable-background:new    ;" width="734" height="97" xlink:href="81A1B3291CE2051B.png" >
		</image>
		<path class="st0" d="M45,10h637.7c19.7,0,35.7,16,35.7,35.7l0,0c0,19.7-16,35.7-35.7,35.7H45c-19.7,0-35.7-16-35.7-35.7l0,0
			C9.2,26,25.2,10,45,10z"/>
		<g class="st1">
			<path class="st2" d="M417.7,48.6c-0.1-1.5-0.2-3-0.2-4.5c0-1.3,0.1-2.7,0.2-4.1c0.5-6.1,3.8-9.5,8.6-9.5c4.7,0,8,3.2,8.6,9.1
				c0.1,1.5,0.2,3.1,0.2,4.6c0,4-0.3,13.5-8.8,13.5C421.6,57.7,418.2,54.5,417.7,48.6z M430.7,48.7c0.2-1.5,0.3-3.3,0.3-5
				c0-2.7,0-9.7-4.8-9.7c-2.5,0-4.3,2.2-4.7,6c-0.1,1.3-0.2,2.6-0.2,3.9c0,1.5,0.1,3,0.2,4.4c0.4,3.6,2.3,5.7,4.6,5.7
				C428.4,54,430.2,52.1,430.7,48.7z"/>
			<path class="st2" d="M446.4,57.5c-1,0-2.1-0.7-2.1-1.9c0-3.3,0.1-10.7,0.1-15.4c0-4.9-0.2-5.3-1.4-5.3c-0.1,0-0.2,0-0.3,0
				c-0.1,0-0.1,0-0.2,0c-1.2,0-1.8-0.9-1.8-1.9c0-1,0.6-2,1.8-2.1c0.7,0,1,0,1.7,0c2.4,0,4,1.4,4.1,3.8c0,0.5,0,1.1,0,1.9
				c0,2.8-0.1,7.5-0.1,12.5c0,2.2,0,4.4,0.1,6.6c0,0,0,0,0,0.1C448.4,56.8,447.4,57.5,446.4,57.5z"/>
		</g>
		<g class="st1">
			<path class="st2" d="M458.7,57.3c-1.2,0-2-0.9-2-2.1c0-0.8,0.3-1.6,1-2.4c2.4-2.7,6.5-6.9,9.6-10.7c1.4-1.7,2-3.2,2-4.5
				c0-2.2-1.7-3.6-3.7-3.6c-1.5,0-3.2,0.8-4.3,2.7c-0.5,0.7-1.2,1.1-1.8,1.1c-1.1,0-2.1-0.8-2.1-1.9c0-1.2,2.7-5.4,8.2-5.4
				c4.1,0,7.9,2.5,7.9,6.7c0,2-0.8,4.3-2.9,7c-2.7,3.4-6.1,6.4-9,9.5c2.9,0,6.9-0.3,9.8-0.3c1.4,0,2.1,0.9,2.1,1.8
				c0,1-0.8,2.1-2.2,2.1H458.7z"/>
		</g>
		<g class="st1">
			<path class="st2" d="M478.8,48.6c-0.1-1.5-0.2-3-0.2-4.5c0-1.3,0.1-2.7,0.2-4.1c0.5-6.1,3.8-9.5,8.6-9.5c4.7,0,8,3.2,8.6,9.1
				c0.1,1.5,0.2,3.1,0.2,4.6c0,4-0.3,13.5-8.8,13.5C482.7,57.7,479.3,54.5,478.8,48.6z M491.9,48.7c0.2-1.5,0.3-3.3,0.3-5
				c0-2.7,0-9.7-4.8-9.7c-2.5,0-4.3,2.2-4.7,6c-0.1,1.3-0.2,2.6-0.2,3.9c0,1.5,0.1,3,0.2,4.4c0.4,3.6,2.3,5.7,4.6,5.7
				C489.5,54,491.4,52.1,491.9,48.7z"/>
			<path class="st2" d="M516,50.5c-2.8,0-4.4-0.1-5.9-0.1c-1.1,0-2.1,0-3.5,0.1c-1.3,0.1-1.8-1.1-1.8-2c0-0.9,0.6-1.9,1.7-1.9
				c0,0,0,0,0.1,0c1.2,0,2.7,0.1,4.1,0.1c1.8,0,3.7,0,5.4-0.1c0,0,0,0,0.1,0c1.2,0,1.8,0.9,1.8,1.9C517.8,49.5,517.3,50.5,516,50.5
				L516,50.5z"/>
		</g>
		<g class="st1">
			<path class="st2" d="M530.3,55.4c0-0.5,0.3-1.1,0.9-1.5c3.7-2.4,7.2-6.9,7.2-7.8c0-0.1,0-0.1-0.1-0.1s-0.1,0-0.2,0.1
				c-1.2,0.6-2.5,0.8-3.7,0.8c-3.8,0-8.1-2.6-8.1-7.9c0-4.4,3.2-8.5,8.8-8.5c4.8,0,8.9,3.4,8.9,9c0,2.9-1.1,5.9-2.4,8.4
				c-1.4,2.6-6.8,9.4-9.3,9.4C531.2,57.4,530.3,56.4,530.3,55.4z M535.2,34c-2.7,0-5.2,1.8-5.2,4.8c0,3.3,2.7,4.7,5,4.7
				c3.3,0,5.3-2.4,5.3-4.9C540.3,35.9,538,34,535.2,34z"/>
			<path class="st2" d="M556.1,57.5c-1,0-2.1-0.7-2.1-1.9c0-3.3,0.1-10.7,0.1-15.4c0-4.9-0.2-5.3-1.4-5.3c-0.1,0-0.2,0-0.3,0
				c-0.1,0-0.1,0-0.2,0c-1.2,0-1.8-0.9-1.8-1.9c0-1,0.6-2,1.8-2.1c0.7,0,1,0,1.7,0c2.4,0,4,1.4,4.1,3.8c0,0.5,0,1.1,0,1.9
				c0,2.8-0.1,7.5-0.1,12.5c0,2.2,0,4.4,0.1,6.6c0,0,0,0,0,0.1C558.1,56.8,557.1,57.5,556.1,57.5z"/>
		</g>
		<g class="st1">
			<path class="st2" d="M585.2,49.5c0,6-4.9,8.2-9.3,8.2c-5,0-9.1-2.9-9.1-8.2c0-3.8,2.5-6,4.4-6.9c-1.8-0.9-3.1-3-3.1-5.3
				c0-4.8,4.1-6.8,7.9-6.8c5.3,0,7.9,3.3,7.9,6.8c0,2.4-1.3,4.4-3.1,5.3C583.6,43.8,585.2,46.4,585.2,49.5z M576,44.6
				c-3.5,0-5.4,2.3-5.4,4.9c0,3,2.7,4.6,5.4,4.6c2.7,0,5.4-1.7,5.4-4.6C581.4,47.8,580.7,44.6,576,44.6z M576,33.9
				c-2.4,0-4.2,1.6-4.2,3.5c0,2.5,1.8,3.6,4.1,3.6c4.1,0,4.3-2.9,4.3-3.6C580.1,34.7,577.4,33.9,576,33.9z"/>
		</g>
		<g class="st1">
			<path class="st2" d="M605.3,50.5c-2.8,0-4.4-0.1-5.9-0.1c-1.1,0-2.1,0-3.5,0.1c-1.3,0.1-1.8-1.1-1.8-2c0-0.9,0.6-1.9,1.7-1.9
				c0,0,0,0,0.1,0c1.2,0,2.7,0.1,4.1,0.1c1.8,0,3.7,0,5.4-0.1c0,0,0,0,0.1,0c1.2,0,1.8,0.9,1.8,1.9
				C607.2,49.5,606.6,50.5,605.3,50.5L605.3,50.5z"/>
		</g>
		<g class="st1">
			<path class="st2" d="M617.7,57.3c-1.2,0-2-0.9-2-2.1c0-0.8,0.3-1.6,1-2.4c2.4-2.7,6.5-6.9,9.6-10.7c1.4-1.7,2-3.2,2-4.5
				c0-2.2-1.7-3.6-3.7-3.6c-1.5,0-3.2,0.8-4.3,2.7c-0.5,0.7-1.2,1.1-1.8,1.1c-1.1,0-2.1-0.8-2.1-1.9c0-1.2,2.7-5.4,8.2-5.4
				c4.1,0,7.9,2.5,7.9,6.7c0,2-0.8,4.3-2.9,7c-2.7,3.4-6.1,6.4-9,9.5c2.9,0,6.9-0.3,9.8-0.3c1.4,0,2.1,0.9,2.1,1.8
				c0,1-0.8,2.1-2.2,2.1H617.7z"/>
		</g>
		<g class="st1">
			<path class="st2" d="M646.6,57.5c-3.2,0-7.7-1.7-7.7-4c0-1.1,0.8-2,1.8-2c0.4,0,0.8,0.2,1.2,0.5c1.4,1.3,3.2,1.8,4.8,1.8
				c3.7,0,5.6-2.7,5.6-5.3c0-1.4-0.7-4.7-4.8-4.7c-0.9,0-1.9,0.2-2.8,0.5c-0.5,0.2-0.8,0.5-1.4,0.5c-0.2,0-0.4,0-0.5,0
				c-1.5,0-2.5-0.7-2.5-2.4c0-0.3,0.7-5.7,1.2-8.8c0.4-1.9,1.2-2.8,3.4-2.8c0.1,0,0.1,0,0.2,0c1,0,1.5,0,7.3,0
				c1.2,0,1.9,0.9,1.9,1.9c0,0.9-0.6,1.8-1.8,1.8c-1,0-5.7,0-6.8,0c-0.7,0-0.9,0.3-1.1,0.9c-0.2,1.2-0.7,4-0.8,4.7
				c0,0.1,0,0.2,0,0.2c0,0.3,0.1,0.4,0.3,0.4c0.2,0,0.5-0.1,0.8-0.2c0.6-0.1,1.6-0.2,2.6-0.2c6.3,0,8.5,4.2,8.5,8.1
				C656.2,53.6,652.4,57.5,646.6,57.5z"/>
		</g>
		<g class="st1">
			<path class="st2" d="M668.4,57.5c-3.2,0-7.7-1.7-7.7-4c0-1.1,0.8-2,1.8-2c0.4,0,0.8,0.2,1.2,0.5c1.4,1.3,3.2,1.8,4.8,1.8
				c3.7,0,5.6-2.7,5.6-5.3c0-1.4-0.7-4.7-4.8-4.7c-0.9,0-1.9,0.2-2.8,0.5c-0.5,0.2-0.8,0.5-1.4,0.5c-0.2,0-0.4,0-0.5,0
				c-1.5,0-2.5-0.7-2.5-2.4c0-0.3,0.7-5.7,1.2-8.8c0.4-1.9,1.2-2.8,3.4-2.8c0.1,0,0.1,0,0.2,0c1,0,1.5,0,7.3,0
				c1.2,0,1.9,0.9,1.9,1.9c0,0.9-0.6,1.8-1.8,1.8c-1,0-5.7,0-6.8,0c-0.7,0-0.9,0.3-1.1,0.9c-0.2,1.2-0.7,4-0.8,4.7
				c0,0.1,0,0.2,0,0.2c0,0.3,0.1,0.4,0.3,0.4c0.2,0,0.5-0.1,0.8-0.2c0.6-0.1,1.6-0.2,2.6-0.2c6.3,0,8.5,4.2,8.5,8.1
				C678,53.6,674.2,57.5,668.4,57.5z"/>
		</g>
		<g class="st1">
			<path class="st2" d="M42.7,55.1c5.7-1.8,9.2-6.6,10.3-10.4c0.2-0.7,0.1-1.4-0.8-1.4c-2.5-0.1-6.7,0.1-10.4,0.2
				c-1.7,0.1-1.9-2.5-0.1-2.6c3.4-0.2,8.3-0.2,11.6-0.1c2.1,0,3.6,1.6,2.8,3.7c-1.8,5.2-5,10.2-12.3,13
				C41.7,58.4,40.7,55.7,42.7,55.1z"/>
		</g>
		<g class="st1">
			<path class="st2" d="M65.1,48.6c-0.9,0-1.4-0.6-1.4-1.2c0-0.7,0.5-1.3,1.4-1.3h16.3c0.9,0,1.3,0.7,1.3,1.3c0,0.6-0.4,1.3-1.3,1.3
				H65.1z"/>
		</g>
		<g class="st1">
			<path class="st2" d="M90.6,56.9c0.1,2.1-2.9,2.2-2.8,0.1c0.2-4.2,0.3-14.4,0.2-18.1c-0.1-1.8,2.8-1.7,2.7,0
				c0,1.3-0.1,3.5-0.1,6.1c0.1,0,0.3,0,0.4,0c1.5,0.2,4.8,1.1,6.2,2.3c1.4,1.1-0.1,3.4-1.6,2.3c-1.1-0.8-3.7-1.8-5.1-2.1
				C90.6,51,90.6,54.8,90.6,56.9z M94.4,41.6c-1.4-0.5-0.4-2.2,0.9-1.8c0.7,0.2,2.1,0.9,2.7,1.5c1.1,1.1-0.4,2.8-1.3,1.8
				C96.3,42.7,95,41.8,94.4,41.6z M96.7,39.2c-1.4-0.4-0.5-2.1,0.8-1.8c0.7,0.2,2.1,0.8,2.8,1.4c1.1,1-0.3,2.8-1.2,1.8
				C98.7,40.2,97.3,39.4,96.7,39.2z"/>
		</g>
		<g class="st1">
			<path class="st2" d="M127.6,46.4c0,5-2.1,9.1-6.9,11.9c-2.1,1.2-3.1-1.2-1.5-2.1c4-2.2,5.8-5.5,5.8-9.7v-0.6
				c-1.4,0-2.8,0-4.2,0.1c0,1.5,0,2.9,0,3.9c0,0.9-0.7,1.4-1.3,1.4c-0.7,0-1.4-0.5-1.3-1.3c0.1-1.1,0.1-2.4,0.1-3.8
				c-1.6,0.1-3.2,0.1-4.7,0.2c-2,0.1-2-2.4-0.2-2.4c1.6-0.1,3.2-0.1,4.8-0.1c0-1.2-0.1-2.4-0.1-3.2c-0.1-1.8,2.5-2,2.6-0.1
				c0.1,0.9,0.1,2,0.1,3.3c1.4,0,2.8-0.1,4.2-0.1c0-1.4,0-2.6,0-3.4c-0.1-2.2,2.6-2,2.6,0c0,1,0,2.2,0,3.4c1.7,0,3.3-0.1,4.9-0.1
				c2.4,0,1.9,2.6,0.1,2.5c-1.6-0.1-3.2-0.1-4.9-0.1V46.4z"/>
		</g>
		<g class="st1">
			<path class="st2" d="M141.1,55.1c5.7-1.8,9.2-6.6,10.3-10.4c0.2-0.7,0.1-1.4-0.8-1.4c-2.5-0.1-6.7,0.1-10.4,0.2
				c-1.7,0.1-1.9-2.5-0.1-2.6c3.4-0.2,8.3-0.2,11.6-0.1c2.1,0,3.6,1.6,2.8,3.7c-1.8,5.2-5,10.2-12.3,13
				C140.1,58.4,139.1,55.7,141.1,55.1z M156.5,41.4c-1.5,0-2.7-1.2-2.7-2.7s1.2-2.8,2.7-2.8c1.5,0,2.8,1.2,2.8,2.8
				S158,41.4,156.5,41.4z M156.5,37.3c-0.7,0-1.3,0.6-1.3,1.4s0.6,1.3,1.3,1.3c0.7,0,1.3-0.6,1.3-1.3S157.3,37.3,156.5,37.3z"/>
		</g>
		<g class="st1">
			<path class="st2" d="M169.7,57.7c-2.1,0.7-3.1-1.9-1-2.5c5.1-1.4,8.4-4.5,9.6-7.8c0.3-0.7,0.1-1.1-0.9-1.1
				c-2.7-0.1-7.5,0-10.3,0.1c-1.8,0.1-2.1-2.4-0.1-2.4c3.4-0.1,7.7-0.1,11.3-0.1c2.6,0,3.9,1.5,2.8,4
				C179.3,52.2,176.2,55.7,169.7,57.7z M178,41.5c-2.4,0-6,0.1-8.8,0c-1.7-0.1-1.8-2.4,0.2-2.4c2.5,0,6.1,0,8.8,0
				c0.9,0,1.4,0.6,1.4,1.2C179.5,40.9,179,41.5,178,41.5z"/>
		</g>
		<g class="st1">
			<path class="st2" d="M191.7,52.9c-2.4,1.5-3.7-1.2-2-2.1c4.8-2.3,9.8-7.1,12.7-11.8c1.1-1.8,3.4-0.1,2.3,1.4
				c-1.2,1.6-2.3,3-3.4,4.3c-0.1,2.7-0.1,9.5-0.1,12.1c0.1,2-2.8,2.2-2.7,0.1c0-2.1,0.1-6.3,0.2-9.4
				C196.7,49.5,194.4,51.2,191.7,52.9z"/>
		</g>
		<g class="st1">
			<path class="st2" d="M232.6,51.7c0,1.5-0.2,2.9-2.7,2.9c-1.4,0-2.8,0-4.3,0l0,1.2v0c0,1.6-1.3,3-4,3c-0.8,0-2.7,0-2.7-1.4
				c0-0.6,0.4-1.2,1.1-1.2c0.1,0,0.3,0,0.4,0.1c0.4,0.1,0.9,0.2,1.4,0.2c0.8,0,1.4-0.3,1.4-1.2l0-0.7c-2.3,0-4.5,0-6.6,0
				c-0.7,0-1-0.5-1-1c0-0.5,0.3-1,1-1h0c1.9,0,4.3,0.1,6.6,0.1v-1.2h-9.6c-0.6,0-0.9-0.5-0.9-1c0-0.5,0.3-1,0.9-1h9.6v-1.1
				c-2.4,0-4.9,0-6.6,0.1h0c-0.6,0-0.9-0.4-0.9-0.9c0-0.5,0.3-0.9,1-1c1.8,0,4.2,0,6.5,0v-0.9c-6.2,0-6.8-0.1-6.8-2.4
				c0-1.7,0.3-2.5,2.7-2.5c1,0,2.5,0,4.1,0v-1l-7.9,0c-0.7,0-1.1-0.5-1.1-1c0-0.5,0.4-1,1.1-1l7.9,0l0-1.1c0-0.8,0.6-1.2,1.2-1.2
				c0.6,0,1.2,0.4,1.2,1.2v1.1l7.7,0c0.7,0,1.1,0.5,1.1,1c0,0.5-0.3,1-1.1,1l-7.7,0v1c1.6,0,3.1,0,4.1,0c1.7,0,2.4,0.5,2.5,1.6
				c0,0.3,0.1,0.6,0.1,0.8c0,0.3,0,0.5-0.1,0.8c-0.2,1.7-0.9,1.7-6.6,1.7v0.9c1.5,0,3,0,4.2,0c1.7,0,2.7,0.6,2.7,1.9
				c0,0.2,0,0.5,0,0.9h2.4c0.7,0,1,0.5,1,1.1s-0.3,1.1-1,1.1H232.6z M223.2,42.6c-1.4,0-2.7,0-3.5,0c-0.5,0-0.8,0.1-0.8,0.4
				c0,0,0,0,0,0.6c0,0.4,0.6,0.5,4.3,0.5V42.6z M225.6,44c4.1,0,4.2,0,4.2-0.8c0-0.4-0.1-0.7-0.9-0.7c-0.8,0-2,0-3.3,0V44z
				 M230.2,49.3c0-0.5-0.3-0.7-0.8-0.7c-1.1,0-2.4,0-3.8,0v1.1h4.7L230.2,49.3z M225.6,51.6v1.2c1.4,0,2.7,0,3.8-0.1
				c0.5,0,0.8-0.3,0.8-0.7c0-0.1,0-0.3,0-0.4H225.6z"/>
			<path class="st2" d="M262.5,52.3l-6.6-0.1h-0.8c2.7,1.9,5.4,2.9,8.4,3.8c0.6,0.2,0.8,0.6,0.8,1c0,0.7-0.6,1.4-1.4,1.4
				c-0.5,0-5-1.7-9-4.8l0.1,4.5v0c0,0.7-0.6,1-1.2,1c-0.6,0-1.2-0.3-1.2-1v0l0.1-4.4c-3.2,2.6-8.2,4.8-9,4.8c-0.8,0-1.3-0.6-1.3-1.2
				c0-0.4,0.3-0.8,0.9-1c3.2-1.1,5.6-2.2,8.1-4.2h-0.9l-6.3,0.1h0c-0.6,0-1-0.5-1-1s0.3-1,1-1l8.5,0.1l0-1.1l-5.9,0
				c-0.6,0-0.9-0.4-0.9-0.9c0-0.4,0.3-0.9,0.9-0.9l5.9,0v-1.1l-7.2,0c-0.7,0-1-0.5-1-1c0-0.5,0.3-0.9,1-0.9l4.5,0
				c-0.2-0.4-0.3-0.8-0.5-1.1c-0.1-0.1-0.1-0.3-0.1-0.4c0-0.3,0.3-0.6,0.6-0.7l-6,0c-0.7,0-1.1-0.5-1.1-1.1s0.4-1.1,1.1-1.1h0
				l3.4,0.1c-0.4-0.6-0.9-1.1-1.4-1.7c-0.2-0.2-0.2-0.4-0.2-0.5c0-0.5,0.7-1,1.3-1c0.2,0,0.4,0,0.6,0.2c0.5,0.3,1.8,2.1,2.1,3.1
				l0.9,0l0-3.5v0c0-0.7,0.6-1.1,1.1-1.1c0.6,0,1.2,0.4,1.2,1.1v3.5h1.5v-3.5c0-0.7,0.6-1.1,1.2-1.1c0.6,0,1.1,0.4,1.1,1.1v0
				l-0.1,3.5l0.9,0c0.5-0.8,1-1.8,1.3-2.6c0.2-0.5,0.6-0.8,1.1-0.8c0.7,0,1.4,0.5,1.4,1.2c0,0.1,0,0.6-1.2,2.2l3.5-0.1h0
				c0.7,0,1,0.5,1,1.1s-0.3,1.1-1.1,1.1l-6.3,0c0.4,0.2,0.7,0.5,0.7,0.9c0,0.3-0.4,1.1-0.5,1.3l4.5,0c0.7,0,1,0.5,1,1
				c0,0.5-0.3,0.9-1,0.9l-7.1,0v1.1l5.8,0c0.6,0,0.9,0.4,0.9,0.9c0,0.4-0.3,0.9-0.9,0.9l-5.8,0l0,1.1l8.5-0.1c0.7,0,1,0.5,1,1
				C263.5,51.8,263.2,52.3,262.5,52.3L262.5,52.3z M250.1,42.4c0.3,0.1,1.1,0.8,1.3,2.1l0,0.1h2.9c0.2-0.5,0.5-1.2,0.5-1.7
				c0-0.2,0.1-0.3,0.3-0.4H250.1z"/>
			<path class="st2" d="M271.1,48.2c-0.8,0-1.1-0.5-1.1-1c0-0.5,0.4-1.1,1.1-1.1h5.7c0.5-0.9,1.3-2.7,1.6-4c0.2-0.6,0.6-0.8,1.1-0.8
				c0.6,0,1.4,0.5,1.4,1.1c0,0.4-1,2.3-1.8,3.6h3c0.7,0,1.1,0.5,1.1,1c0,0.5-0.4,1-1.1,1H271.1z M271.7,40.8c-0.8,0-1.2-0.5-1.2-1
				c0-0.5,0.4-1.1,1.2-1.1h3.7l0-1.6v0c0-0.7,0.6-1.1,1.2-1.1s1.2,0.4,1.2,1.1v0l0,1.6h3.8c0.8,0,1.1,0.5,1.1,1c0,0.5-0.4,1-1.1,1
				H271.7z M276.8,58.3c-1,0-2.1,0-2.9-0.1c-1.7-0.1-2.4-1.1-2.4-2.4c0-0.5,0-1,0-1.5c0-0.7,0-1.4,0.1-2.1c0.1-1.3,1-2.3,2.4-2.3
				c0.7,0,1.6-0.1,2.5-0.1c1.1,0,2.1,0,2.9,0.1c1.3,0.1,2.4,0.9,2.5,2.2c0,0.9,0.1,1.7,0.1,2.6c0,1.4,0,3.3-2.5,3.5
				C278.6,58.3,277.7,58.3,276.8,58.3z M273.6,45c-0.4-0.9-0.7-1.6-1.1-2c-0.2-0.2-0.3-0.4-0.3-0.6c0-0.5,0.6-0.9,1.1-0.9
				c1.1,0,2.4,2.3,2.4,3c0,0.7-0.7,1.3-1.2,1.3C274.2,45.7,273.8,45.4,273.6,45z M279.4,52.7c-0.1-0.8-0.5-0.8-2.8-0.8
				c-0.7,0-1.3,0-1.8,0c-0.9,0-1,0.5-1,2.4c0,1.9,0,1.9,2.8,1.9c2.7,0,2.8-0.1,2.8-2.3C279.4,53.5,279.4,53.1,279.4,52.7z
				 M286.8,53.7c0-0.7,0.4-1.3,1.1-1.3c0.1,0,0.2,0,0.3,0c0.3,0.1,0.5,0.1,0.7,0.1c0.4,0,1.5-0.1,1.5-2c0-1.2-0.7-2.3-1.5-3.4
				c-0.6-0.7-0.8-1.4-0.8-2c0-0.7,0.3-1.4,0.6-2.1c0.9-1.9,1.3-2.7,1.3-3.1c0-0.5-0.4-0.5-1.8-0.5c-0.4,0-0.8,0-1.2,0
				c-0.6,0-0.9,0.5-0.9,1c0,1.6,0,3.1,0,4.8c0,3.5,0,7,0,10.7c0,0.7,0,1.4,0,2.1c0,0.8-0.6,1.1-1.2,1.1c-0.6,0-1.3-0.4-1.3-1.1
				c0-11.1,0-14.5,0.1-17.9c0-1.7,0.9-2.7,2.6-2.8c0.7,0,1.5,0,2.3,0c0.6,0,1.1,0,1.7,0c1.7,0.1,2.6,1,2.6,2.2c0,1-0.3,1.6-1.8,4.2
				c-0.3,0.6-0.5,0.9-0.5,1.3c0,0.4,0.2,0.8,0.7,1.4c1,1.3,1.8,2.5,1.8,4.5c0,2.7-1.5,4.4-4.1,4.4C287.8,55.2,286.8,54.9,286.8,53.7
				z"/>
			<path class="st2" d="M312,40.9l-0.2,1.6c1.3,0,2.5,0,3.2,0.1c1.6,0.1,2.5,1.1,2.6,2.2c0.1,0.9,0.1,2.5,0.1,3.9
				c0,1.4,0,2.6-0.1,3.4c-0.1,1.2-1,2.3-2.7,2.4c-0.9,0.1-2.3,0.1-3.6,0.1c-1.2,0-2.4,0-3.1-0.1c-1.7-0.2-2.5-1-2.6-2.3
				c0-1.1-0.1-2.4-0.1-3.6c0-1.3,0-2.6,0.1-3.8c0-1,0.7-2.1,2.6-2.2c0.3,0,0.6,0,1,0l0.2-1.6l-8.3,0c-0.8,0-1.1-0.6-1.1-1.1
				c0-0.6,0.4-1.1,1.1-1.1l8.6,0l0.2-1.8c0.1-0.7,0.7-1.1,1.3-1.1c0.7,0,1.4,0.4,1.4,1.2c0,0.1,0,0.1,0,0.2l-0.2,1.6l7.1,0
				c0.7,0,1.1,0.5,1.1,1.1c0,0.5-0.4,1.1-1.1,1.1L312,40.9z M319.6,58.2c-1.7,0.1-4.6,0.1-7.5,0.1c-3.2,0-6.5,0-8.2-0.1
				c-2.1-0.1-3.3-1.2-3.3-3.4c0-1.2,0-2.7,0-4.1c0-2.1,0-4.3,0.1-6.2c0-0.8,0.6-1.2,1.3-1.2c0.7,0,1.3,0.4,1.3,1.2c0,0,0,0,0,0.1
				c-0.1,1.8-0.1,4.4-0.1,6.6c0,1.2,0,2.3,0.1,3.1c0.1,1,0.3,1.6,1.6,1.7c1.4,0.1,4,0.1,6.7,0.1c3.1,0,6.4,0,8.1-0.1c0,0,0,0,0.1,0
				c0.8,0,1.2,0.6,1.2,1.1C320.8,57.6,320.4,58.2,319.6,58.2z M315.4,47.6h-7.6v1.6h7.6V47.6z M315.4,45.2c0-0.6-0.3-0.9-1-1
				c-0.6,0-1.8-0.1-2.9-0.1s-2.2,0-2.6,0.1c-0.7,0-0.9,0.5-1,1l0,0.6h7.5L315.4,45.2z M307.8,51l0,0.8c0,1,0.6,1,3.7,1
				c3.8,0,3.8,0,3.8-1.8H307.8z"/>
			<path class="st2" d="M328.4,58.7c-0.8,0-1.4-0.7-1.4-1.4c0-0.4,0.2-0.7,0.6-1c1.4-0.8,2.6-1.7,3.5-2.7c0-1.2,0.1-2.2,0.1-3.2
				c0-0.4,0-0.7,0-1.1c0-0.7-0.3-0.8-1.2-0.8c-0.4,0-0.7,0-1,0c-0.5,0-1.4,0-1.4-1.1c0-0.6,0.4-1.2,1.1-1.2c0.9,0,1.7,0,2.5,0
				c1.7,0.1,2.4,0.8,2.4,2.4c0,1.5-0.1,3.3-0.1,5c1.6,2.1,4.3,2.6,7.9,2.6c2.6,0,5.4-0.3,7.4-0.4c0.1,0,0.1,0,0.1,0
				c0.8,0,1.2,0.6,1.2,1.2c0,0.6-0.4,1.2-1.3,1.3c-1.6,0.2-4,0.3-6.4,0.3c-6.1,0-8-0.9-10.2-3.2C331,57.1,329.4,58.7,328.4,58.7z
				 M331.6,41.7c-0.7-1-1.8-1.8-2.5-2.3c-0.4-0.2-0.5-0.5-0.5-0.8c0-0.6,0.6-1.2,1.3-1.2c0.8,0,4,2,4,3.3c0,0.8-0.7,1.5-1.4,1.5
				C332.2,42.2,331.8,42,331.6,41.7z M346.2,50.6h-3.1v3.7c0,0.7-0.5,1-1.1,1c-0.5,0-1.1-0.3-1.1-1v-3.7h-3c0,1.2,0,2.4,0,3.6v0
				c0,0.7-0.5,1-1.1,1c-0.5,0-1.1-0.4-1.1-1.1c0-1.5,0-3,0-4.5c0-2,0-3.9,0-5.7c0-1.6,0.9-2.4,2.7-2.4c0.7,0,1.4,0,2.1,0
				c-0.4-0.2-0.7-0.4-0.9-0.5c-0.3-0.1-0.5-0.4-0.5-0.6c0-0.5,0.5-1,1.1-1c0.6,0,1.8,0.8,1.8,0.8c0.5-0.3,2.3-1.2,2.3-1.4
				c0-0.1-0.1-0.1-0.2-0.1c-1.8,0-5.4,0.1-7.4,0.1c0,0,0,0-0.1,0c-0.6,0-0.9-0.5-0.9-1c0-0.5,0.3-1,0.9-1c2.7-0.1,5.9-0.1,8.5-0.1
				c1.6,0,2.5,0.8,2.5,1.6c0,0.7-0.7,1.6-3.9,3.1c4,0,4.8,0.1,4.8,3.4c0,4.3,0,5.5,0.1,6.9c0,0.1,0,0.2,0,0.2c0,1.6-0.9,3-2.8,3
				c-0.9,0-1.9-0.2-1.9-1.3c0-0.5,0.3-1,0.9-1c0.1,0,0.2,0,0.2,0c0.2,0.1,0.4,0.1,0.5,0.1c0.4,0,0.7-0.3,0.7-1.4V50.6z M340.9,47h-3
				c0,0.6,0,1.2,0,1.9h3V47z M340.9,43.4c-2.8,0-3,0-3,0.9l0,0.9h3V43.4z M346.2,45.2c0-0.3,0-0.6,0-0.9c0-0.5-0.3-0.8-0.9-0.8
				c-0.7,0-1.5,0-2.2,0v1.8H346.2z M343.1,47v1.9h3.1c0-0.6,0-1.2,0-1.9H343.1z"/>
		</g>
		<path class="st2" d="M393.9,40.5v-5.1l-2.8,0.5v2.1h-5v-2.1l-2.8-0.5v5.1h-3.3l-3.7,8.2v7.3c0,0.7,0.5,1.2,1.1,1.3c0,0,0,0,0,0
			h22.1c0.7,0,1.2-0.6,1.1-1.3c0,0,0,0,0,0v-7.3l-3.8-8.2H393.9z M388.6,53.6c-2.6,0-4.7-2.1-4.7-4.6s2.1-4.7,4.6-4.7
			c2.6,0,4.7,2.1,4.7,4.6c0,0,0,0,0,0C393.3,51.5,391.2,53.5,388.6,53.6L388.6,53.6z"/>
		<path class="st2" d="M400.1,31.7c-2.5-1-7.9-1.7-11.4-1.7s-9,0.6-11.4,1.7c-2.5,1-5,3.4-5,6.2c0,1,0.3,1.9,1,2.7h5.3
			c0.3,0,1-1.4,1-1.9c-0.1-0.8-0.2-1.6-0.5-2.4c0-0.7,0.3-1.2,1.4-1.7c2-0.9,6.4-0.9,8.3-0.9s6.3,0,8.3,0.9c1.1,0.5,1.4,1,1.4,1.7
			c-0.3,0.8-0.5,1.6-0.5,2.4c0,0.6,0.7,1.9,1,1.9h5.3c0.6-0.7,1-1.7,0.9-2.7C405.1,35.2,402.6,32.8,400.1,31.7z"/>
	</g>
</g>
</svg>
