<?xml version="1.0" encoding="utf-8"?>
<!-- Generator: Adobe Illustrator 25.4.1, SVG Export Plug-In . SVG Version: 6.00 Build 0)  -->
<svg version="1.1" id="レイヤー_1" xmlns="http://www.w3.org/2000/svg" xmlns:xlink="http://www.w3.org/1999/xlink" x="0px"
	 y="0px" viewBox="0 0 212.9 47.7" style="enable-background:new 0 0 212.9 47.7;" xml:space="preserve">
<style type="text/css">
	.st0{fill:#FFFFFF;}
	.st1{enable-background:new    ;}
	.st2{fill:#573001;}
	.st3{fill:#FFB847;}
	.st4{fill:none;stroke:#FFFFFF;stroke-width:0.99;stroke-linecap:round;stroke-linejoin:round;}
</style>
<g id="レイヤー_2_00000050629898686428061020000006372348230151145636_">
	<g id="デザイン">
		<path class="st0" d="M23.9,0H189c13.2,0,23.9,10.7,23.9,23.9v0c0,13.2-10.7,23.9-23.9,23.9H23.9C10.7,47.7,0,37,0,23.9v0
			C0,10.7,10.7,0,23.9,0z"/>
		<g class="st1">
			<path class="st2" d="M47.1,18.8c1.6,0,2.4,0.6,2.4,1.8c0,0.3-0.1,0.7-0.2,1c-1.4,4.5-5.3,9-9.6,11.3c-0.2,0.1-0.4,0.2-0.6,0.2
				c-0.6,0-1.1-0.5-1.1-1.1c0-0.4,0.2-0.8,0.7-1.1c1.9-1,3.6-2.4,5-4.1c-0.9-0.8-1.6-1.4-2.3-1.8c-0.4-0.3-0.5-0.5-0.5-0.9
				c0-0.5,0.5-1,1.1-1c0.2,0,0.4,0.1,0.7,0.2c0.8,0.5,1.5,1.1,2.3,1.8c0.9-1.3,1.5-2.6,2-3.9c0-0.1,0.1-0.2,0.1-0.3
				c0-0.2-0.2-0.3-0.5-0.3l-4.8,0c-1,1.5-2.2,2.9-3.3,3.9c-0.3,0.3-0.6,0.4-0.9,0.4c-0.6,0-1.1-0.5-1.1-1c0-0.3,0.1-0.6,0.5-0.9
				c1.8-1.6,3.7-4.2,4.7-6.6c0.2-0.5,0.7-0.7,1.1-0.7c0.6,0,1.1,0.4,1.1,1c0,0.1,0,0.3-0.1,0.5c-0.2,0.5-0.5,1.1-0.8,1.7L47.1,18.8z
				 M48.3,16.6c0-0.4,0.4-0.7,0.8-0.7c0.2,0,0.4,0.1,0.6,0.3c0.5,0.5,1,1.2,1.4,1.8c0.1,0.2,0.1,0.3,0.1,0.5c0,0.5-0.4,0.8-0.8,0.8
				c-0.3,0-0.5-0.1-0.7-0.4c-0.4-0.7-0.9-1.3-1.3-1.8C48.3,16.9,48.3,16.8,48.3,16.6z M50.3,15.2c0-0.4,0.4-0.7,0.8-0.7
				c0.2,0,0.4,0.1,0.6,0.3c0.5,0.5,1,1.1,1.3,1.7c0.1,0.2,0.2,0.4,0.2,0.5c0,0.4-0.4,0.8-0.8,0.8c-0.3,0-0.5-0.1-0.7-0.4
				c-0.4-0.6-0.9-1.3-1.3-1.8C50.4,15.5,50.3,15.4,50.3,15.2z"/>
		</g>
		<g class="st1">
			<path class="st2" d="M68.7,18.9c2.2,0,3,0.9,3,2.2c0,0.2,0,0.3,0,0.5c-0.7,5.1-3.7,8.8-8.2,10.6c-0.2,0.1-0.4,0.1-0.6,0.1
				c-0.7,0-1.2-0.5-1.2-1.1c0-0.4,0.3-0.9,0.8-1.1c3.9-1.6,6.1-4.5,6.7-8.3c0.1-0.7-0.1-0.9-0.9-0.9H61c-0.7,0-0.9,0.2-0.9,0.8v2.5
				c0,0.6-0.6,1-1.2,1c-0.6,0-1.2-0.3-1.2-1v-3.1c0-1.6,0.8-2.3,2.7-2.3h2.9v-2.2c0-0.7,0.6-1,1.1-1s1.1,0.3,1.1,1v2.2H68.7z"/>
		</g>
		<g class="st1">
			<path class="st2" d="M80.6,20.4c0.3,0.3,0.4,0.5,0.4,0.8c0,0.7-0.6,1.3-1.3,1.3c-0.3,0-0.6-0.1-0.9-0.4c-0.9-0.9-1.8-1.7-2.7-2.4
				c-0.3-0.3-0.5-0.6-0.5-0.9c0-0.6,0.6-1.2,1.3-1.2c0.3,0,0.5,0.1,0.8,0.3C78.6,18.5,79.7,19.4,80.6,20.4z M89.2,19.8
				c0.6,0,1.2,0.4,1.2,1.1c0,0.2-0.1,0.4-0.2,0.6c-2.8,4.9-7.2,8.5-12.1,10.3c-0.2,0.1-0.4,0.1-0.5,0.1c-0.7,0-1.2-0.6-1.2-1.2
				c0-0.4,0.2-0.8,0.8-1c4.4-1.7,8.7-5.1,11-9.3C88.4,20,88.8,19.8,89.2,19.8z"/>
		</g>
		<g class="st1">
			<path class="st2" d="M100,31c-2.2,0-3.2-0.9-3.2-2.8V21c0-1.8,0.9-2.8,3.2-2.8h7.6c2.2,0,3.2,0.9,3.2,2.8v7.3
				c0,1.8-0.9,2.8-3.2,2.8H100z M107.4,28.9c0.9,0,1.2-0.3,1.2-0.9v-6.7c0-0.7-0.3-0.9-1.2-0.9h-7c-0.9,0-1.2,0.3-1.2,0.9V28
				c0,0.7,0.3,0.9,1.2,0.9H107.4z"/>
		</g>
		<g class="st1">
			<path class="st2" d="M129.7,23.2c0.7,0,1.1,0.5,1.1,1.1c0,0.5-0.4,1.1-1.1,1.1h-14.3c-0.7,0-1.1-0.6-1.1-1.1
				c0-0.6,0.4-1.1,1.1-1.1H129.7z"/>
		</g>
		<g class="st1">
			<path class="st2" d="M137.4,22.5c0.2-0.4,0.5-0.6,1-0.6c0.2,0,0.3,0,0.5,0.1c1.2,0.5,2.9,1.5,4.1,2.5c0.4,0.3,0.5,0.7,0.5,1
				c0,0.6-0.5,1.2-1.1,1.2c-0.3,0-0.5-0.1-0.8-0.3c-1.1-0.9-2.8-1.9-3.7-2.3c-0.3-0.2-0.5-0.3-0.6-0.5v8.4c0,0.7-0.6,1-1.2,1
				c-0.6,0-1.2-0.3-1.2-1V17c0-0.7,0.6-1,1.2-1c0.6,0,1.2,0.4,1.2,1V22.5z M140.6,18.3c0-0.4,0.4-0.7,0.8-0.7c0.2,0,0.4,0.1,0.5,0.2
				c0.5,0.5,1.1,1.1,1.5,1.7c0.1,0.2,0.2,0.4,0.2,0.5c0,0.4-0.4,0.8-0.8,0.8c-0.2,0-0.5-0.1-0.6-0.4c-0.5-0.6-1-1.2-1.4-1.7
				C140.7,18.6,140.6,18.4,140.6,18.3z M142.5,16.7c0-0.4,0.4-0.7,0.8-0.7c0.2,0,0.4,0.1,0.6,0.2c0.5,0.4,1.1,1,1.5,1.6
				c0.2,0.2,0.2,0.4,0.2,0.6c0,0.4-0.4,0.7-0.8,0.7c-0.2,0-0.5-0.1-0.7-0.4c-0.5-0.6-1-1.2-1.4-1.6C142.6,17,142.5,16.9,142.5,16.7z
				"/>
		</g>
		<circle class="st3" cx="185.3" cy="23.9" r="16.3"/>
		<line class="st4" x1="185.3" y1="28.9" x2="185.3" y2="14.7"/>
		<polyline class="st4" points="180.9,24.7 185.3,28.9 189.7,24.7 		"/>
		<line class="st4" x1="179.3" y1="33" x2="191.3" y2="33"/>
	</g>
</g>
</svg>
