<svg xmlns="http://www.w3.org/2000/svg" viewBox="0 0 16.62 13.23"><defs><style>.cls-1{fill:#573001;}</style></defs><g id="レイヤー_2" data-name="レイヤー 2"><g id="デザイン"><g id="FZytVp"><path class="cls-1" d="M16.62,0l-.93.7a35.63,35.63,0,0,0-9.78,11.5,3.3,3.3,0,0,1-.26.45,1.1,1.1,0,0,1-1.5.43,3,3,0,0,1-.86-.59A12.5,12.5,0,0,1,.85,9.19a6.23,6.23,0,0,1-.8-1.76A1.34,1.34,0,0,1,.6,5.91a1.51,1.51,0,0,1,1.7,0,3,3,0,0,1,1,1.21,14.35,14.35,0,0,0,.84,1.6c.1.14.16.17.26,0A16.4,16.4,0,0,1,9.36,3.4,29.69,29.69,0,0,1,15.24.25,2.52,2.52,0,0,1,16.62,0Z"/></g></g></g></svg>