<svg xmlns="http://www.w3.org/2000/svg" viewBox="0 0 512 512"><defs><style>.cls-1{fill:#f96300;}</style></defs><g id="レイヤー_2" data-name="レイヤー 2"><g id="デザイン"><path class="cls-1" d="M256,0C114.62,0,0,114.62,0,256S114.62,512,256,512,512,397.38,512,256,397.38,0,256,0ZM375.69,364.19c-3.1,3.6-32.18,41.88-78.48,25.76s-82-45.4-108.19-76.5-49-71.21-57-119.58,34.62-70.53,38.69-73,22-6.69,30,5.26,22.32,48.34,23.58,57.12-7.92,18.5-18.49,20.51-10,7.49-10,7.49,5.88,21.36,40.49,62.43,54.67,50.49,54.67,50.49,5.29,1.44,9.08-8.63,14.9-17.5,23.34-14.75,41.88,23,52.3,32.93S378.79,360.59,375.69,364.19Z"/></g></g></svg>