<?xml version="1.0" encoding="utf-8"?>
<!-- Generator: Adobe Illustrator 25.4.1, SVG Export Plug-In . SVG Version: 6.00 Build 0)  -->
<svg version="1.1" id="レイヤー_1" xmlns="http://www.w3.org/2000/svg" xmlns:xlink="http://www.w3.org/1999/xlink" x="0px"
	 y="0px" viewBox="0 0 50 49.3" style="enable-background:new 0 0 50 49.3;" xml:space="preserve">
<style type="text/css">
	.st0{fill:#F96300;}
	.st1{enable-background:new    ;}
</style>
<g id="レイヤー_2_00000039114240366880909960000013582601231422003094_">
	<g id="デザイン">
		<g id="QaoVNx.tif">
			<path class="st0" d="M33.6,35.2H16.4c-0.1,0-0.2-0.1-0.2-0.1c-3.9-0.5-7-3.3-8-7.1c-0.1-0.5-0.2-1.1-0.3-1.6V8.8
				c0-0.1,0.1-0.2,0.1-0.2c0.5-4.8,4.5-8.5,9.4-8.6c5.2,0,10.4,0,15.6,0c5.2,0.1,9.4,4.4,9.4,9.6c0,5.3,0,10.7,0,16
				c0,4.3-2.9,8.1-7,9.2C34.7,35,34.2,35.1,33.6,35.2z M38.4,17.6c0-2.5,0-5,0-7.6c0-0.4,0-0.8-0.1-1.2c-0.4-2.9-2.8-5-5.7-4.9
				c-5.1,0-10.2,0-15.3,0c-3.1-0.1-5.7,2.4-5.8,5.5c0,0.1,0,0.2,0,0.4c0,5.2,0,10.4,0,15.5c0,0.3,0,0.7,0.1,1c0.4,2.9,2.8,5,5.7,5
				c5.1,0,10.2,0,15.3,0c0.3,0,0.6,0,0.9-0.1c2.8-0.5,4.9-2.9,4.8-5.8C38.4,22.8,38.4,20.2,38.4,17.6z"/>
			<path class="st0" d="M25,25.4c-4.3,0-7.7-3.5-7.7-7.8c0,0,0,0,0,0c-0.1-4.2,3.2-7.8,7.4-7.9s7.8,3.2,7.9,7.4c0,0.2,0,0.4,0,0.5
				C32.7,21.9,29.3,25.4,25,25.4z M28.9,17.6c0-2.1-1.8-3.8-3.9-3.8c-2.1,0-3.8,1.8-3.8,3.9c0,2.1,1.7,3.8,3.8,3.8
				C27.1,21.5,28.8,19.8,28.9,17.6L28.9,17.6z"/>
			<path class="st0" d="M35.5,8.8c0.1,1.1-0.7,2-1.8,2c-1.1,0.1-2-0.7-2-1.8c0-0.1,0-0.2,0-0.3c-0.1-1.1,0.7-2,1.8-2
				c1.1-0.1,2,0.7,2,1.8C35.5,8.6,35.5,8.7,35.5,8.8z"/>
		</g>
		<g class="st1">
			<path class="st0" d="M0.8,39.9c0-0.3,0.3-0.5,0.6-0.5c0.3,0,0.6,0.2,0.6,0.5V46c0,0.3-0.2,0.5-0.6,0.5c-0.3,0-0.6-0.2-0.6-0.5
				V39.9z"/>
			<path class="st0" d="M5.3,42.5c0.2-0.6,0.7-1,1.3-1c0.5,0,0.9,0.1,1.2,0.4c0.3,0.3,0.4,0.7,0.4,1.6v1.4c0,0.3,0,0.8,0.1,1
				c0,0,0,0.1,0,0.2c0,0.2-0.2,0.4-0.6,0.4c-0.3,0-0.4-0.1-0.5-0.3c-0.1-0.3-0.1-0.7-0.1-1.2v-1.3c0-0.7-0.1-0.9-0.2-1
				c-0.1-0.1-0.3-0.2-0.5-0.2c-0.6,0-1.1,0.6-1.1,1.5V46c0,0.3-0.2,0.5-0.5,0.5c-0.3,0-0.5-0.2-0.5-0.5v-4c0-0.3,0.2-0.5,0.5-0.5
				c0.3,0,0.5,0.2,0.5,0.5V42.5z"/>
			<path class="st0" d="M11.6,44.3c-1.1-0.3-1.4-0.7-1.4-1.5c0-0.8,0.7-1.3,1.7-1.3c0.7,0,1.1,0.2,1.6,0.5c0.1,0.1,0.1,0.2,0.1,0.4
				c0,0.2-0.2,0.5-0.5,0.5c-0.1,0-0.2,0-0.3-0.1c-0.3-0.3-0.5-0.4-0.9-0.4c-0.5,0-0.7,0.2-0.7,0.5c0,0.3,0.1,0.5,0.8,0.6l0.3,0.1
				c1,0.2,1.4,0.6,1.4,1.5c0,0.9-0.7,1.5-1.8,1.5c-0.8,0-1.4-0.3-1.8-0.7C10,45.7,10,45.7,10,45.5c0-0.2,0.2-0.4,0.5-0.4
				c0.1,0,0.2,0,0.3,0.2c0.3,0.3,0.6,0.5,1.1,0.5c0.5,0,0.8-0.3,0.8-0.7c0-0.3-0.2-0.5-0.8-0.7L11.6,44.3z"/>
			<path class="st0" d="M17,45c0,0.5,0.2,0.6,0.5,0.6c0.1,0,0.2,0,0.3,0c0.1,0,0.2-0.1,0.3-0.1c0.2,0,0.3,0.2,0.3,0.4
				c0,0.2-0.1,0.3-0.2,0.4c-0.3,0.1-0.6,0.1-0.9,0.1c-1,0-1.4-0.4-1.4-1.5v-2.5h-0.5c-0.3,0-0.5-0.2-0.5-0.4s0.2-0.4,0.5-0.4h0.5
				v-1.2c0-0.3,0.2-0.5,0.5-0.5c0.3,0,0.5,0.2,0.5,0.5v1.2h0.9c0.3,0,0.5,0.2,0.5,0.4s-0.2,0.4-0.5,0.4H17V45z"/>
			<path class="st0" d="M22.5,43.1c0-0.4-0.3-0.7-0.8-0.7c-0.4,0-0.7,0.1-1,0.4c-0.1,0.1-0.2,0.1-0.3,0.1c-0.2,0-0.5-0.2-0.5-0.5
				c0-0.1,0-0.2,0.1-0.3c0.3-0.3,1-0.6,1.6-0.6c1.1,0,1.7,0.5,1.7,1.6v1.7c0,0.6,0.1,0.8,0.3,1C24,45.8,24,45.9,24,46
				c0,0.3-0.2,0.4-0.4,0.4c-0.2,0-0.3,0-0.4-0.1c-0.2-0.1-0.4-0.3-0.5-0.5c-0.3,0.4-0.7,0.7-1.4,0.7c-1,0-1.6-0.6-1.6-1.4
				c0-0.8,0.5-1.3,1.2-1.5c0.5-0.1,1-0.2,1.5-0.2V43.1z M22.5,44.1c-0.4,0-0.8,0-1.2,0.2c-0.4,0.1-0.6,0.4-0.6,0.7
				c0,0.4,0.2,0.7,0.8,0.7c0.5,0,1-0.4,1-1V44.1z"/>
			<path class="st0" d="M28.3,45.5c1.1,0.1,1.5,0.6,1.5,1.4c0,0.9-0.8,1.5-2.2,1.5c-1.4,0-2.2-0.5-2.2-1.4c0-0.5,0.3-0.8,0.8-1.1
				c-0.3-0.1-0.4-0.4-0.4-0.7c0-0.3,0.3-0.6,0.7-0.8c-0.5-0.3-0.8-0.7-0.8-1.3c0-1,0.8-1.6,1.8-1.6c0.3,0,0.6,0.1,0.9,0.2
				c0.3-0.4,0.6-0.5,1.1-0.5c0.2,0,0.4,0.2,0.4,0.5c0,0.3-0.2,0.4-0.4,0.4c-0.3,0-0.4,0-0.5,0.1c0.2,0.2,0.3,0.6,0.3,0.9
				c0,1-0.8,1.6-1.8,1.6c-0.2,0-0.3,0-0.5,0c-0.3,0.1-0.4,0.3-0.4,0.4c0,0.1,0.1,0.2,0.5,0.3L28.3,45.5z M27.1,46.2
				c-0.1,0-0.1,0-0.2,0c-0.4,0.2-0.5,0.4-0.5,0.8c0,0.4,0.5,0.7,1.3,0.7c0.8,0,1.3-0.3,1.3-0.7c0-0.3-0.2-0.5-0.8-0.6L27.1,46.2z
				 M26.7,43.1c0,0.5,0.4,0.8,0.9,0.8c0.5,0,0.9-0.3,0.9-0.8c0-0.5-0.4-0.8-0.9-0.8C27,42.3,26.7,42.6,26.7,43.1z"/>
			<path class="st0" d="M32.7,46c0,0.3-0.2,0.5-0.5,0.5c-0.3,0-0.5-0.2-0.5-0.5v-4c0-0.3,0.2-0.5,0.5-0.5c0.3,0,0.5,0.2,0.5,0.5v0.7
				c0.2-0.8,0.6-1.2,1.3-1.2c0.4,0,0.5,0.2,0.5,0.5c0,0.3-0.2,0.5-0.5,0.5c-0.7,0-1.2,0.6-1.2,1.8V46z"/>
			<path class="st0" d="M38.5,43.1c0-0.4-0.3-0.7-0.8-0.7c-0.4,0-0.7,0.1-1,0.4c-0.1,0.1-0.2,0.1-0.3,0.1c-0.2,0-0.5-0.2-0.5-0.5
				c0-0.1,0-0.2,0.1-0.3c0.3-0.3,1-0.6,1.6-0.6c1.1,0,1.7,0.5,1.7,1.6v1.7c0,0.6,0.1,0.8,0.3,1C40,45.8,40,45.9,40,46
				c0,0.3-0.2,0.4-0.4,0.4c-0.2,0-0.3,0-0.4-0.1c-0.2-0.1-0.4-0.3-0.5-0.5c-0.3,0.4-0.7,0.7-1.4,0.7c-1,0-1.6-0.6-1.6-1.4
				c0-0.8,0.5-1.3,1.2-1.5c0.5-0.1,1-0.2,1.5-0.2V43.1z M38.5,44.1c-0.4,0-0.8,0-1.2,0.2c-0.4,0.1-0.6,0.4-0.6,0.7
				c0,0.4,0.2,0.7,0.8,0.7c0.5,0,1-0.4,1-1V44.1z"/>
			<path class="st0" d="M47.3,43.7c0-0.7-0.1-0.9-0.2-1c-0.1-0.1-0.3-0.2-0.5-0.2c-0.6,0-1.1,0.6-1.1,1.5V46c0,0.3-0.2,0.5-0.5,0.5
				c-0.3,0-0.5-0.2-0.5-0.5v-2.4c0-0.7-0.1-0.9-0.2-1c-0.1-0.1-0.3-0.2-0.5-0.2c-0.6,0-1.1,0.6-1.1,1.5V46c0,0.3-0.2,0.5-0.5,0.5
				s-0.5-0.2-0.5-0.5v-4c0-0.3,0.2-0.5,0.5-0.5c0.3,0,0.5,0.2,0.5,0.5v0.5c0.2-0.6,0.7-1,1.2-1c0.5,0,0.9,0.1,1.1,0.4
				c0.1,0.1,0.2,0.2,0.3,0.4c0.2-0.5,0.7-0.8,1.4-0.8c0.5,0,0.9,0.1,1.1,0.4c0.3,0.3,0.4,0.7,0.4,1.6v1.4c0,0.3,0,0.8,0.1,1
				c0,0,0,0.1,0,0.2c0,0.2-0.2,0.4-0.6,0.4c-0.3,0-0.4-0.1-0.5-0.3c-0.1-0.3-0.1-0.7-0.1-1.2V43.7z"/>
		</g>
	</g>
</g>
</svg>
